<svg width="44" height="44" viewBox="0 0 44 44" version="1.1" xmlns="http://www.w3.org/2000/svg" xmlns:xlink="http://www.w3.org/1999/xlink" xmlns:figma="http://www.figma.com/figma/ns">
<title>Picture</title>
<desc>Created using Figma</desc>
<g id="Canvas" transform="translate(349 621)" figma:type="canvas">
<g id="Picture" style="mix-blend-mode:normal;" figma:type="frame">
<g id="Rectangle 10" style="mix-blend-mode:normal;" figma:type="rounded-rectangle">
<mask id="mask0_outline_ins">
<use xlink:href="#path0_fill" fill="white" transform="translate(-348.5 -620.414)"/>
</mask>
<g mask="url(#mask0_outline_ins)">
<use xlink:href="#path1_stroke_2x" transform="translate(-348.5 -620.414)" style="mix-blend-mode:normal;"/>
</g>
</g>
<g id="Vector 4" style="mix-blend-mode:normal;" figma:type="vector">
<use xlink:href="#path2_stroke" transform="translate(-347 -601.414)" style="mix-blend-mode:normal;"/>
</g>
<g id="Ellipse 3" style="mix-blend-mode:normal;" figma:type="ellipse">
<mask id="mask1_outline_ins">
<use xlink:href="#path3_fill" fill="white" transform="translate(-325.5 -612.414)"/>
</mask>
<g mask="url(#mask1_outline_ins)">
<use xlink:href="#path4_stroke_2x" transform="translate(-325.5 -612.414)" style="mix-blend-mode:normal;"/>
</g>
</g>
</g>
</g>
<defs>
<path id="path0_fill" d="M 0 4C 0 1.79086 1.79086 0 4 0L 39 0C 41.2091 0 43 1.79086 43 4L 43 39C 43 41.2091 41.2091 43 39 43L 4 43C 1.79086 43 0 41.2091 0 39L 0 4Z"/>
<path id="path1_stroke_2x" d="M 4 1.5L 39 1.5L 39 -1.5L 4 -1.5L 4 1.5ZM 41.5 4L 41.5 39L 44.5 39L 44.5 4L 41.5 4ZM 39 41.5L 4 41.5L 4 44.5L 39 44.5L 39 41.5ZM 1.5 39L 1.5 4L -1.5 4L -1.5 39L 1.5 39ZM 4 -1.5C 0.962434 -1.5 -1.5 0.962434 -1.5 4L 1.5 4C 1.5 2.61929 2.61929 1.5 4 1.5L 4 -1.5ZM 39 1.5C 40.3807 1.5 41.5 2.61929 41.5 4L 44.5 4C 44.5 0.962434 42.0376 -1.5 39 -1.5L 39 1.5ZM 41.5 39C 41.5 40.3807 40.3807 41.5 39 41.5L 39 44.5C 42.0376 44.5 44.5 42.0376 44.5 39L 41.5 39ZM 4 41.5C 2.61929 41.5 1.5 40.3807 1.5 39L -1.5 39C -1.5 42.0376 0.962434 44.5 4 44.5L 4 41.5Z"/>
<path id="path2_stroke" d="M 0 23C 0.67082 23.3354 0.670856 23.3353 0.670935 23.3352C 0.671019 23.335 0.671142 23.3348 0.671311 23.3344C 0.671655 23.3337 0.672162 23.3327 0.672847 23.3314C 0.674229 23.3286 0.676279 23.3245 0.679022 23.319C 0.684532 23.308 0.692719 23.2917 0.703573 23.27C 0.725329 23.2266 0.757557 23.1623 0.799753 23.0783C 0.884242 22.91 1.00818 22.6636 1.16664 22.3496C 1.48377 21.7212 1.93801 20.8244 2.4882 19.7475C 3.58903 17.5926 5.07045 14.7233 6.59946 11.8526C 8.12848 8.98174 9.69759 6.12293 10.9797 3.97859C 11.6187 2.90955 12.1725 2.03961 12.617 1.4298C 12.8343 1.131 12.9987 0.927331 13.14 0.785725C 13.2021 0.722165 13.2715 0.67543 13.2447 0.691398C 13.2416 0.693665 13.233 0.698428 13.2337 0.697788C 13.2369 0.69638 13.1875 0.718751 13.1959 0.715058C 13.1629 0.727954 13.0944 0.75 13 0.75L 13 -0.75C 12.7329 -0.75 12.5256 -0.631435 12.4168 -0.55944C 12.3122 -0.488371 12.1782 -0.37402 12.0736 -0.269123C 11.8817 -0.0738151 11.6452 0.216657 11.4045 0.546761C 10.933 1.19476 10.3422 2.1217 9.6922 3.20891C 8.39616 5.37707 6.80902 8.26826 5.27554 11.1474C 3.74205 14.0267 2.25472 16.9074 1.15242 19.065C 0.601052 20.1443 0.145136 21.0444 -0.172498 21.6738C -0.331417 21.9887 -0.456019 22.2365 -0.54072 22.4051C -0.583119 22.4896 -0.615649 22.5544 -0.637503 22.598C -0.648453 22.6199 -0.656784 22.6365 -0.662341 22.6476C -0.665131 22.6532 -0.667251 22.6575 -0.668656 22.6603C -0.669364 22.6617 -0.669905 22.6628 -0.670261 22.6635C -0.670442 22.6638 -0.670581 22.6641 -0.670672 22.6643C -0.670768 22.6645 -0.67082 22.6646 0 23ZM 13 0.75C 12.8405 0.75 12.7957 0.677525 12.9292 0.772972C 13.0451 0.854438 13.1709 0.968035 13.3502 1.15008C 13.7217 1.52544 14.1727 2.06 14.6998 2.72959C 15.7596 4.07531 17.0451 5.87218 18.3251 7.68293C 19.6051 9.49366 20.8756 11.3131 21.8897 12.681C 22.3985 13.3673 22.856 13.9566 23.2143 14.3691C 23.3982 14.5803 23.5824 14.7725 23.7283 14.9013C 23.8093 14.9716 23.9189 15.0537 24.0016 15.104C 24.0856 15.1537 24.2661 15.25 24.5 15.25L 24.5 13.75C 24.5945 13.75 24.6646 13.7707 24.7001 13.7834C 24.7371 13.7966 24.7596 13.8096 24.765 13.8128C 24.7751 13.8174 24.757 13.8089 24.7168 13.773C 24.6202 13.6894 24.507 13.5701 24.3463 13.3849C 24.015 13.0044 23.5937 12.4608 23.0947 11.7877C 22.0931 10.4369 20.8324 8.63134 19.5499 6.81707C 18.2674 5.00282 16.9591 3.17469 15.8783 1.80166C 15.3351 1.11188 14.8291 0.513625 14.4174 0.0960127C 14.2051 -0.118426 13.9828 -0.316352 13.8015 -0.447289C 13.6379 -0.564243 13.347 -0.75 13 -0.75L 13 0.75ZM 24.5 15.25C 24.877 15.25 25.1911 15.0537 25.386 14.9092C 25.5891 14.7569 25.8238 14.5337 26.0347 14.3064C 26.4467 13.8605 26.9045 13.273 27.342 12.7105C 27.7795 12.148 28.1967 11.6105 28.5659 11.2127C 28.7457 11.0181 28.8781 10.8897 29.0071 10.7959C 29.1442 10.6943 29.127 10.75 29 10.75L 29 9.25C 28.623 9.25 28.3089 9.4463 28.114 9.59082C 27.9109 9.74314 27.6762 9.96631 27.4653 10.1936C 27.0533 10.6395 26.5955 11.227 26.158 11.7895C 25.7205 12.352 25.3033 12.8895 24.9341 13.2873C 24.7543 13.4819 24.6219 13.6103 24.4929 13.7041C 24.3558 13.8057 24.373 13.75 24.5 13.75L 24.5 15.25ZM 29 10.75C 28.8454 10.75 28.751 10.6937 28.7508 10.6936C 28.7441 10.6914 28.7491 10.6908 28.7839 10.7206C 28.8703 10.792 28.968 10.8923 29.1121 11.0555C 29.411 11.3928 29.7838 11.8733 30.2226 12.4738C 31.1048 13.6807 32.1875 15.2896 33.2473 16.9104C 34.307 18.5312 35.3346 20.1504 36.0993 21.3677C 36.4814 21.9759 36.7967 22.4821 37.0171 22.837C 37.1272 23.0143 37.2132 23.1533 37.2719 23.2483C 37.3012 23.2957 37.3235 23.3319 37.3386 23.3564C 37.3462 23.3686 37.3518 23.3777 37.3556 23.3839C 37.3575 23.387 37.3589 23.3893 37.3599 23.3908C 37.3604 23.3916 37.3607 23.3922 37.3609 23.3925C 37.361 23.3927 37.3611 23.3929 37.3612 23.393C 37.3612 23.393 37.3613 23.3931 38 23C 38.6387 22.6069 38.6387 22.6069 38.6386 22.6067C 38.6386 22.6066 38.6385 22.6065 38.6383 22.6063C 38.6381 22.6059 38.6377 22.6052 38.6372 22.6044C 38.6362 22.6028 38.6347 22.6004 38.6328 22.5972C 38.6289 22.5909 38.6231 22.5815 38.6154 22.5691C 38.6002 22.5444 38.5775 22.5076 38.5479 22.4597C 38.489 22.3643 38.4021 22.224 38.2915 22.0458C 38.0705 21.6898 37.753 21.1803 37.3695 20.5698C 36.6029 19.3496 35.568 17.7188 34.5027 16.0896C 33.4375 14.4604 32.3327 12.8193 31.4337 11.5887C 30.9818 10.9705 30.5656 10.4353 30.2356 10.0617C 30.0652 9.8694 29.8885 9.69043 29.7478 9.57135C 29.6691 9.50602 29.5592 9.42803 29.4768 9.38102C 29.3877 9.3317 29.2171 9.25 29 9.25L 29 10.75Z"/>
<path id="path3_fill" d="M 10 5C 10 7.76142 7.76142 10 5 10C 2.23858 10 0 7.76142 0 5C 0 2.23858 2.23858 0 5 0C 7.76142 0 10 2.23858 10 5Z"/>
<path id="path4_stroke_2x" d="M 8.5 5C 8.5 6.933 6.933 8.5 5 8.5L 5 11.5C 8.58985 11.5 11.5 8.58985 11.5 5L 8.5 5ZM 5 8.5C 3.067 8.5 1.5 6.933 1.5 5L -1.5 5C -1.5 8.58985 1.41015 11.5 5 11.5L 5 8.5ZM 1.5 5C 1.5 3.067 3.067 1.5 5 1.5L 5 -1.5C 1.41015 -1.5 -1.5 1.41015 -1.5 5L 1.5 5ZM 5 1.5C 6.933 1.5 8.5 3.067 8.5 5L 11.5 5C 11.5 1.41015 8.58985 -1.5 5 -1.5L 5 1.5Z"/>
</defs>
</svg>
