<svg width="77" height="66" viewBox="0 0 77 66" version="1.1" xmlns="http://www.w3.org/2000/svg" xmlns:xlink="http://www.w3.org/1999/xlink" xmlns:figma="http://www.figma.com/figma/ns">
<title>delete icon</title>
<desc>Created using Figma</desc>
<g id="Canvas" transform="translate(-907 683)" figma:type="canvas">
<g id="delete icon" style="mix-blend-mode:normal;" figma:type="frame">
<g id="DELETE ACCOUNT" style="mix-blend-mode:normal;" figma:type="text">
<use xlink:href="#path0_fill" transform="translate(902.974 -650.482)" style="mix-blend-mode:normal;"/>
</g>
<g id="delete" style="mix-blend-mode:normal;" figma:type="frame">
<g id="head" style="mix-blend-mode:normal;" figma:type="ellipse">
<mask id="mask0_outline_ins">
<use xlink:href="#path1_fill" fill="white" transform="translate(933.224 -683)"/>
</mask>
<g mask="url(#mask0_outline_ins)">
<use xlink:href="#path2_stroke_2x" transform="translate(933.224 -683)" style="mix-blend-mode:normal;"/>
</g>
</g>
<g id="body" style="mix-blend-mode:normal;" figma:type="vector">
<use xlink:href="#path3_stroke" transform="translate(929.974 -665.341)" style="mix-blend-mode:normal;"/>
</g>
<g id="thrash" style="mix-blend-mode:normal;" figma:type="frame">
<g id="Vector 27" style="mix-blend-mode:normal;" figma:type="vector">
<use xlink:href="#path4_stroke" transform="translate(945.724 -667.341)" style="mix-blend-mode:normal;"/>
</g>
<g id="Vector 28" style="mix-blend-mode:normal;" figma:type="vector">
<use xlink:href="#path5_stroke" transform="translate(950.224 -669.341)" style="mix-blend-mode:normal;"/>
</g>
<g id="Vector 29" style="mix-blend-mode:normal;" figma:type="vector">
<use xlink:href="#path6_fill" transform="translate(946.224 -665.841)" fill="#FFFFFF" style="mix-blend-mode:normal;"/>
<use xlink:href="#path7_stroke" transform="translate(946.224 -665.841)" style="mix-blend-mode:normal;"/>
</g>
<g id="Vector 30" style="mix-blend-mode:normal;" figma:type="vector">
<use xlink:href="#path8_stroke" transform="matrix(0.999848 -0.0174524 0.0174524 0.999848 949.409 -663.347)" style="mix-blend-mode:normal;"/>
</g>
<g id="Vector 30" style="mix-blend-mode:normal;" figma:type="vector">
<use xlink:href="#path8_stroke" transform="matrix(0.999848 0.0174524 -0.0174524 0.999848 955.524 -663.347)" style="mix-blend-mode:normal;"/>
</g>
<g id="Vector 30" style="mix-blend-mode:normal;" figma:type="vector">
<use xlink:href="#path8_stroke" transform="matrix(1 0 0 1 952.424 -663.347)" style="mix-blend-mode:normal;"/>
</g>
</g>
</g>
</g>
</g>
<defs>
<path id="path0_fill" d="M 16.7974 6.69092L 16.7974 14.9014L 18.3135 14.9014C 18.5332 14.9014 18.7139 14.8989 18.8555 14.894C 19.002 14.8892 19.1973 14.8745 19.4414 14.8501C 19.6904 14.8257 19.9028 14.7891 20.0786 14.7402C 20.2593 14.6914 20.4619 14.6206 20.6865 14.5278C 20.916 14.4351 21.1187 14.3228 21.2944 14.1909C 21.4702 14.0591 21.646 13.8906 21.8218 13.6855C 21.9976 13.4805 22.1514 13.2485 22.2832 12.9897C 22.6055 12.3696 22.7666 11.6152 22.7666 10.7266C 22.7666 10.1113 22.6763 9.55713 22.4956 9.06396C 22.3198 8.56592 22.083 8.16309 21.7852 7.85547C 21.4922 7.54297 21.1772 7.29639 20.8403 7.11572C 20.5083 6.93506 20.1592 6.81299 19.793 6.74951C 19.5781 6.71045 19.2534 6.69092 18.8188 6.69092L 16.7974 6.69092ZM 18.7749 5.59229C 19.4487 5.59229 20.0615 5.66064 20.6133 5.79736C 21.165 5.9292 21.6265 6.11719 21.9976 6.36133C 22.3735 6.60547 22.6958 6.88135 22.9644 7.18896C 23.2329 7.49658 23.4404 7.84082 23.5869 8.22168C 23.7383 8.59766 23.8481 8.96875 23.9165 9.33496C 23.9849 9.70117 24.019 10.082 24.019 10.4775C 24.019 10.9316 23.9849 11.3687 23.9165 11.7886C 23.8481 12.2085 23.7285 12.6357 23.5576 13.0703C 23.3916 13.5049 23.1768 13.8955 22.9131 14.2422C 22.6543 14.584 22.3174 14.894 21.9023 15.1724C 21.4873 15.4458 21.0161 15.6484 20.4888 15.7803C 20.2153 15.8486 19.9102 15.8999 19.5732 15.9341C 19.2363 15.9683 18.958 15.9878 18.7383 15.9927C 18.5186 15.9976 18.2085 16 17.8081 16L 15.5522 16L 15.5522 5.59229L 18.7749 5.59229ZM 27.3149 16L 27.3149 5.59229L 33.416 5.59229L 33.416 6.69092L 28.5601 6.69092L 28.5601 10.0894L 33.0132 10.0894L 33.0132 11.188L 28.5601 11.188L 28.5601 14.9014L 33.416 14.9014L 33.416 16L 27.3149 16ZM 36.7192 5.59229L 37.9644 5.59229L 37.9644 14.9087L 42.6372 14.9087L 42.6372 16L 36.7192 16L 36.7192 5.59229ZM 45.0249 16L 45.0249 5.59229L 51.126 5.59229L 51.126 6.69092L 46.27 6.69092L 46.27 10.0894L 50.7231 10.0894L 50.7231 11.188L 46.27 11.188L 46.27 14.9014L 51.126 14.9014L 51.126 16L 45.0249 16ZM 52.9277 5.59229L 61.1309 5.59229L 61.1309 6.69092L 57.6519 6.69092L 57.6519 16L 56.4067 16L 56.4067 6.69092L 52.9277 6.69092L 52.9277 5.59229ZM 63.2915 16L 63.2915 5.59229L 69.3926 5.59229L 69.3926 6.69092L 64.5366 6.69092L 64.5366 10.0894L 68.9897 10.0894L 68.9897 11.188L 64.5366 11.188L 64.5366 14.9014L 69.3926 14.9014L 69.3926 16L 63.2915 16ZM 8.46973 22.5923L 9.8833 22.5923L 13.582 33L 12.3223 33L 11.2676 29.9751L 6.97559 29.9751L 5.9209 33L 4.771 33L 8.46973 22.5923ZM 9.12158 23.8081L 7.34912 28.8838L 10.8867 28.8838L 9.12158 23.8081ZM 21.1772 22.519C 22.1245 22.519 23.0669 22.7046 24.0044 23.0757L 23.6235 24.1084C 22.6763 23.7813 21.8486 23.6177 21.1406 23.6177C 20.5547 23.6177 20.0103 23.7349 19.5073 23.9692C 19.0093 24.1987 18.5942 24.5088 18.2622 24.8994C 17.9351 25.2852 17.6787 25.7295 17.4932 26.2324C 17.3076 26.7305 17.2148 27.2529 17.2148 27.7998C 17.2148 28.3662 17.3125 28.9058 17.5078 29.4185C 17.708 29.9263 17.9863 30.373 18.3428 30.7588C 18.6992 31.1396 19.1411 31.4424 19.6685 31.667C 20.2007 31.8916 20.7817 32.0039 21.4116 32.0039C 22.1636 32.0039 22.9473 31.8574 23.7627 31.5645L 24.1436 32.4873C 23.123 32.9268 22.1074 33.1465 21.0967 33.1465C 20.4717 33.1465 19.8857 33.0562 19.3389 32.8755C 18.792 32.6948 18.3135 32.4434 17.9033 32.1211C 17.498 31.7939 17.1489 31.4082 16.856 30.9639C 16.563 30.5195 16.3408 30.0312 16.1895 29.499C 16.043 28.9619 15.9697 28.3979 15.9697 27.8071C 15.9697 26.8062 16.1772 25.9077 16.5923 25.1118C 17.0122 24.3159 17.6201 23.686 18.416 23.2222C 19.2119 22.7534 20.1323 22.519 21.1772 22.519ZM 31.812 22.519C 32.7593 22.519 33.7017 22.7046 34.6392 23.0757L 34.2583 24.1084C 33.311 23.7813 32.4834 23.6177 31.7754 23.6177C 31.1895 23.6177 30.645 23.7349 30.1421 23.9692C 29.644 24.1987 29.229 24.5088 28.897 24.8994C 28.5698 25.2852 28.3135 25.7295 28.1279 26.2324C 27.9424 26.7305 27.8496 27.2529 27.8496 27.7998C 27.8496 28.3662 27.9473 28.9058 28.1426 29.4185C 28.3428 29.9263 28.6211 30.373 28.9775 30.7588C 29.334 31.1396 29.7759 31.4424 30.3032 31.667C 30.8354 31.8916 31.4165 32.0039 32.0464 32.0039C 32.7983 32.0039 33.582 31.8574 34.3975 31.5645L 34.7783 32.4873C 33.7578 32.9268 32.7422 33.1465 31.7314 33.1465C 31.1064 33.1465 30.5205 33.0562 29.9736 32.8755C 29.4268 32.6948 28.9482 32.4434 28.5381 32.1211C 28.1328 31.7939 27.7837 31.4082 27.4907 30.9639C 27.1978 30.5195 26.9756 30.0312 26.8242 29.499C 26.6777 28.9619 26.6045 28.3979 26.6045 27.8071C 26.6045 26.8062 26.812 25.9077 27.2271 25.1118C 27.647 24.3159 28.2549 23.686 29.0508 23.2222C 29.8467 22.7534 30.7671 22.519 31.812 22.519ZM 41.6997 22.4824C 42.3882 22.4824 43.0303 22.6045 43.626 22.8486C 44.2266 23.0879 44.7441 23.4272 45.1787 23.8667C 45.6182 24.3062 45.9624 24.8555 46.2114 25.5146C 46.4604 26.1689 46.585 26.8892 46.585 27.6753C 46.585 28.7397 46.3726 29.687 45.9478 30.5171C 45.5278 31.3423 44.9419 31.9819 44.1899 32.436C 43.4429 32.8853 42.5957 33.1099 41.6484 33.1099C 41.0234 33.1099 40.4253 33 39.854 32.7803C 39.2827 32.5557 38.7676 32.231 38.3086 31.8062C 37.8496 31.3813 37.4834 30.8271 37.21 30.1436C 36.9365 29.4551 36.7998 28.6812 36.7998 27.8218C 36.7998 27.0161 36.9243 26.2788 37.1733 25.6099C 37.4224 24.9409 37.7642 24.3794 38.1987 23.9253C 38.6333 23.4663 39.1509 23.1123 39.7515 22.8633C 40.3521 22.6094 41.0015 22.4824 41.6997 22.4824ZM 41.6338 23.5737C 41.1895 23.5737 40.7622 23.6567 40.3521 23.8228C 39.9419 23.9888 39.5635 24.2329 39.2168 24.5552C 38.875 24.8726 38.5991 25.3022 38.3892 25.8442C 38.1841 26.3813 38.0815 26.9893 38.0815 27.668C 38.0815 28.3174 38.1768 28.918 38.3672 29.4697C 38.5576 30.0166 38.8164 30.4756 39.1436 30.8467C 39.4707 31.2178 39.8564 31.5059 40.3008 31.7109C 40.75 31.916 41.231 32.0186 41.7437 32.0186C 42.0903 32.0186 42.4297 31.9673 42.7617 31.8647C 43.0986 31.7622 43.4209 31.6011 43.7285 31.3813C 44.0361 31.1567 44.3047 30.8833 44.5342 30.561C 44.7686 30.2388 44.9541 29.8408 45.0908 29.3672C 45.2324 28.8936 45.3032 28.3735 45.3032 27.8071C 45.3032 27.231 45.23 26.7036 45.0835 26.2251C 44.937 25.7466 44.7417 25.3462 44.4976 25.0239C 44.2583 24.7017 43.9775 24.4307 43.6553 24.2109C 43.3379 23.9863 43.0083 23.8252 42.6665 23.7275C 42.3296 23.625 41.9854 23.5737 41.6338 23.5737ZM 49.6978 22.5923L 50.9429 22.5923L 50.9429 29.3379C 50.9429 29.7529 50.9771 30.1094 51.0454 30.4072C 51.1187 30.7051 51.27 30.9834 51.4995 31.2422C 51.9878 31.7939 52.708 32.0698 53.6602 32.0698C 54.3486 32.0698 54.9224 31.9209 55.3813 31.623C 55.8452 31.3203 56.1455 30.8955 56.2822 30.3486C 56.3457 30.0898 56.3774 29.7529 56.3774 29.3379L 56.3774 22.5923L 57.6079 22.5923C 57.6079 24.1597 57.6079 25.4414 57.6079 26.4375C 57.6128 27.4336 57.6152 28.0732 57.6152 28.3564C 57.6152 28.6348 57.6152 28.8594 57.6152 29.0303C 57.6201 29.1963 57.6226 29.3354 57.6226 29.4478C 57.6226 29.6724 57.6177 29.8701 57.6079 30.041C 57.5981 30.207 57.564 30.4268 57.5054 30.7002C 57.4517 30.9736 57.376 31.2129 57.2783 31.418C 57.1807 31.6182 57.0317 31.833 56.8315 32.0625C 56.6362 32.292 56.4019 32.4824 56.1284 32.6338C 55.8599 32.7803 55.5132 32.9023 55.0884 33C 54.6685 33.0977 54.1924 33.1465 53.6602 33.1465C 53.0889 33.1465 52.5762 33.0879 52.1221 32.9707C 51.668 32.8486 51.3115 32.7046 51.0527 32.5386C 50.7939 32.3726 50.5693 32.1724 50.3789 31.938C 50.1934 31.7036 50.064 31.5034 49.9907 31.3374C 49.9224 31.1665 49.8662 30.9883 49.8223 30.8027C 49.7393 30.4805 49.6978 30.0239 49.6978 29.4331L 49.6978 22.5923ZM 61.2847 22.5923L 62.8594 22.5923L 68.5283 31.3008L 68.5283 22.5923L 69.7734 22.5923L 69.7734 33L 68.1987 33L 62.5298 24.2769L 62.5298 33L 61.2847 33L 61.2847 22.5923ZM 71.9414 22.5923L 80.1445 22.5923L 80.1445 23.6909L 76.6655 23.6909L 76.6655 33L 75.4204 33L 75.4204 23.6909L 71.9414 23.6909L 71.9414 22.5923Z"/>
<path id="path1_fill" d="M 16 8C 16 12.4183 12.4183 16 8 16C 3.58172 16 0 12.4183 0 8C 0 3.58172 3.58172 0 8 0C 12.4183 0 16 3.58172 16 8Z"/>
<path id="path2_stroke_2x" d="M 14.5 8C 14.5 11.5899 11.5899 14.5 8 14.5L 8 17.5C 13.2467 17.5 17.5 13.2467 17.5 8L 14.5 8ZM 8 14.5C 4.41015 14.5 1.5 11.5899 1.5 8L -1.5 8C -1.5 13.2467 2.75329 17.5 8 17.5L 8 14.5ZM 1.5 8C 1.5 4.41015 4.41015 1.5 8 1.5L 8 -1.5C 2.75329 -1.5 -1.5 2.75329 -1.5 8L 1.5 8ZM 8 1.5C 11.5899 1.5 14.5 4.41015 14.5 8L 17.5 8C 17.5 2.75329 13.2467 -1.5 8 -1.5L 8 1.5Z"/>
<path id="path3_stroke" d="M 0 12.5L -0.75 12.5L -0.75 13.25L 0 13.25L 0 12.5ZM 22.5 12.5L 22.5 13.25L 23.25 13.25L 23.25 12.5L 22.5 12.5ZM 0 12.5C 0.75 12.5 0.75 12.5 0.75 12.5C 0.75 12.4999 0.75 12.4999 0.75 12.4998C 0.75 12.4997 0.75 12.4996 0.75 12.4994C 0.75 12.4989 0.75 12.4983 0.75 12.4974C 0.75 12.4958 0.75 12.4932 0.75 12.4899C 0.75 12.4831 0.75 12.4731 0.75 12.4598C 0.75 12.4333 0.75 12.394 0.75 12.3428C 0.75 12.2402 0.75 12.0898 0.75 11.8984C 0.75 11.5156 0.75 10.9688 0.75 10.3125C 0.75 9 0.75 7.25 0.75 5.5L -0.75 5.5C -0.75 7.25 -0.75 9 -0.75 10.3125C -0.75 10.9688 -0.75 11.5156 -0.75 11.8984C -0.75 12.0898 -0.75 12.2402 -0.75 12.3428C -0.75 12.394 -0.75 12.4333 -0.75 12.4598C -0.75 12.4731 -0.75 12.4831 -0.75 12.4899C -0.75 12.4932 -0.75 12.4958 -0.75 12.4974C -0.75 12.4983 -0.75 12.4989 -0.75 12.4994C -0.75 12.4996 -0.75 12.4997 -0.75 12.4998C -0.75 12.4999 -0.75 12.4999 -0.75 12.5C -0.75 12.5 -0.75 12.5 0 12.5ZM 0.75 5.5C 0.75 4.06004 1.57048 2.88017 2.65223 2.02616C 3.75936 1.15211 4.9747 0.75 5.5 0.75L 5.5 -0.75C 4.5253 -0.75 2.99064 -0.152113 1.72277 0.848838C 0.429515 1.86983 -0.75 3.43996 -0.75 5.5L 0.75 5.5ZM 5.5 0.75C 7 0.75 14.5 0.75 16.5 0.75L 16.5 -0.75C 14.5 -0.75 7 -0.75 5.5 -0.75L 5.5 0.75ZM 16.5 0.75C 17.3516 0.75 18.7004 1.08076 19.8199 1.86442C 20.9116 2.62864 21.75 3.79211 21.75 5.5L 23.25 5.5C 23.25 3.20789 22.0884 1.62136 20.6801 0.635576C 19.2996 -0.330764 17.6484 -0.75 16.5 -0.75L 16.5 0.75ZM 21.75 5.5C 21.75 7.5 21.75 9.25 21.75 10.5C 21.75 11.125 21.75 11.625 21.75 11.9688C 21.75 12.1406 21.75 12.2734 21.75 12.3633C 21.75 12.4082 21.75 12.4424 21.75 12.4653C 21.75 12.4768 21.75 12.4855 21.75 12.4913C 21.75 12.4942 21.75 12.4964 21.75 12.4978C 21.75 12.4985 21.75 12.4991 21.75 12.4995C 21.75 12.4996 21.75 12.4998 21.75 12.4999C 21.75 12.4999 21.75 12.4999 21.75 12.5C 21.75 12.5 21.75 12.5 22.5 12.5C 23.25 12.5 23.25 12.5 23.25 12.5C 23.25 12.4999 23.25 12.4999 23.25 12.4999C 23.25 12.4998 23.25 12.4996 23.25 12.4995C 23.25 12.4991 23.25 12.4985 23.25 12.4978C 23.25 12.4964 23.25 12.4942 23.25 12.4913C 23.25 12.4855 23.25 12.4768 23.25 12.4653C 23.25 12.4424 23.25 12.4082 23.25 12.3633C 23.25 12.2734 23.25 12.1406 23.25 11.9688C 23.25 11.625 23.25 11.125 23.25 10.5C 23.25 9.25 23.25 7.5 23.25 5.5L 21.75 5.5ZM 22.5 11.75L 0 11.75L 0 13.25L 22.5 13.25L 22.5 11.75Z"/>
<path id="path4_stroke" d="M 0 0.5L 13.5 0.5L 13.5 -0.5L 0 -0.5L 0 0.5Z"/>
<path id="path5_stroke" d="M 0 0L 0 -0.5C -0.276142 -0.5 -0.5 -0.276142 -0.5 1.11022e-16L 0 0ZM 4.5 0L 5 0C 5 -0.276142 4.77614 -0.5 4.5 -0.5L 4.5 0ZM 0.5 2L 0.5 0L -0.5 0L -0.5 2L 0.5 2ZM 0 0.5L 4.5 0.5L 4.5 -0.5L 0 -0.5L 0 0.5ZM 4 0L 4 2L 5 2L 5 0L 4 0Z"/>
<path id="path6_fill" d="M 12 0L 0 0L 0.5 14L 11.5 14L 12 0Z"/>
<path id="path7_stroke" d="M 0 0L 0 -0.5L -0.518176 -0.5L -0.499681 0.0178458L 0 0ZM 12 0L 12.4997 0.0178458L 12.5182 -0.5L 12 -0.5L 12 0ZM 11.5 14L 11.5 14.5L 11.9825 14.5L 11.9997 14.0178L 11.5 14ZM 0.5 14L 0.000318573 14.0178L 0.0175384 14.5L 0.5 14.5L 0.5 14ZM 0 0.5L 12 0.5L 12 -0.5L 0 -0.5L 0 0.5ZM 11.5003 -0.0178458L 11.0003 13.9822L 11.9997 14.0178L 12.4997 0.0178458L 11.5003 -0.0178458ZM 11.5 13.5L 0.5 13.5L 0.5 14.5L 11.5 14.5L 11.5 13.5ZM 0.999681 13.9822L 0.499681 -0.0178458L -0.499681 0.0178458L 0.000318573 14.0178L 0.999681 13.9822Z"/>
<path id="path8_stroke" d="M 0.5 0C 0.5 -0.276142 0.276142 -0.5 0 -0.5C -0.276142 -0.5 -0.5 -0.276142 -0.5 0L 0.5 0ZM -0.5 8.98756C -0.5 9.2637 -0.276142 9.48756 0 9.48756C 0.276142 9.48756 0.5 9.2637 0.5 8.98756L -0.5 8.98756ZM -0.5 0L -0.5 8.98756L 0.5 8.98756L 0.5 0L -0.5 0Z"/>
</defs>
</svg>
