<svg width="79" height="44" viewBox="0 0 79 44" version="1.1" xmlns="http://www.w3.org/2000/svg" xmlns:xlink="http://www.w3.org/1999/xlink" xmlns:figma="http://www.figma.com/figma/ns">
<title>folder</title>
<desc>Created using Figma</desc>
<g id="Canvas" transform="translate(103 117)" figma:type="canvas">
<g id="folder" style="mix-blend-mode:normal;" figma:type="frame">
<g id="bottom" style="mix-blend-mode:normal;" figma:type="vector">
<mask id="mask0_outline_ins">
<use xlink:href="#path0_fill" fill="white" transform="translate(-76.1652 -113.023)"/>
</mask>
<g mask="url(#mask0_outline_ins)">
<use xlink:href="#path1_stroke_2x" transform="translate(-76.1652 -113.023)" style="mix-blend-mode:normal;"/>
</g>
</g>
<g id="top" style="mix-blend-mode:normal;" figma:type="vector">
<use xlink:href="#path2_fill" transform="translate(-76.1652 -116.625)" fill="#FFFFFF" style="mix-blend-mode:normal;"/>
<mask id="mask1_outline_ins">
<use xlink:href="#path2_fill" fill="white" transform="translate(-76.1652 -116.625)"/>
</mask>
<g mask="url(#mask1_outline_ins)">
<use xlink:href="#path3_stroke_2x" transform="translate(-76.1652 -116.625)" style="mix-blend-mode:normal;"/>
</g>
</g>
<g id="hide" style="mix-blend-mode:normal;" figma:type="rounded-rectangle">
<use xlink:href="#path4_fill" transform="translate(-74.6652 -111.55)" fill="#FFFFFF" style="mix-blend-mode:normal;"/>
</g>
<g id="ADD FOLDER" style="mix-blend-mode:normal;" figma:type="text">
<use xlink:href="#path5_fill" transform="translate(-103.465 -85.625)" style="mix-blend-mode:normal;"/>
</g>
</g>
</g>
<defs>
<path id="path0_fill" d="M 0 4C 0 1.79086 1.79086 0 4 0L 26 0C 28.2091 0 30 1.79086 30 4L 30 15.7727C 30 17.9819 28.2091 19.7727 26 19.7727L 4 19.7727C 1.79086 19.7727 0 17.9819 0 15.7727L 0 4Z"/>
<path id="path1_stroke_2x" d="M 4 1.5L 26 1.5L 26 -1.5L 4 -1.5L 4 1.5ZM 28.5 4L 28.5 15.7727L 31.5 15.7727L 31.5 4L 28.5 4ZM 26 18.2727L 4 18.2727L 4 21.2727L 26 21.2727L 26 18.2727ZM 1.5 15.7727L 1.5 4L -1.5 4L -1.5 15.7727L 1.5 15.7727ZM 4 -1.5C 0.962434 -1.5 -1.5 0.962434 -1.5 4L 1.5 4C 1.5 2.61929 2.61929 1.5 4 1.5L 4 -1.5ZM 26 1.5C 27.3807 1.5 28.5 2.61929 28.5 4L 31.5 4C 31.5 0.962434 29.0376 -1.5 26 -1.5L 26 1.5ZM 28.5 15.7727C 28.5 17.1534 27.3807 18.2727 26 18.2727L 26 21.2727C 29.0376 21.2727 31.5 18.8103 31.5 15.7727L 28.5 15.7727ZM 4 18.2727C 2.61929 18.2727 1.5 17.1534 1.5 15.7727L -1.5 15.7727C -1.5 18.8103 0.962434 21.2727 4 21.2727L 4 18.2727Z"/>
<path id="path2_fill" d="M -1.50452e-07 4C -3.93179e-07 1.79086 1.79086 0 4 0L 9.56229 0C 10.5544 0 11.5111 0.368698 12.2466 1.0345L 15.2029 3.71047C 17.9093 6.16029 16.189 10.6577 12.5385 10.6759L 4.02001 10.7185C 1.80308 10.7296 3.91835e-07 8.93553 1.48249e-07 6.71858L -1.50452e-07 4Z"/>
<path id="path3_stroke_2x" d="M 4 1.5L 9.56229 1.5L 9.56229 -1.5L 4 -1.5L 4 1.5ZM 11.24 2.14656L 14.1962 4.82253L 16.2095 2.5984L 13.2533 -0.0775641L 11.24 2.14656ZM 12.531 9.17594L 4.0125 9.21854L 4.02751 12.2185L 12.546 12.1759L 12.531 9.17594ZM 1.5 6.71858L 1.5 4L -1.5 4L -1.5 6.71858L 1.5 6.71858ZM 4 -1.5C 0.962434 -1.5 -1.5 0.962434 -1.5 4L 1.5 4C 1.5 2.61929 2.61929 1.5 4 1.5L 4 -1.5ZM 9.56229 1.5C 10.2801 1.4747 10.7248 1.6461 11.24 2.14656L 13.2533 -0.0775641C 12.2974 -0.908707 10.8287 -1.4747 9.56229 -1.5L 9.56229 1.5ZM 14.1962 4.82253C 15.8877 6.35367 14.8126 9.16453 12.531 9.17594L 12.546 12.1759C 17.5654 12.1508 19.9308 5.96692 16.2095 2.5984L 14.1962 4.82253ZM 4.0125 9.21854C 2.62692 9.22547 1.5 8.10417 1.5 6.71858L -1.5 6.71858C -1.5 9.76689 0.979232 12.2338 4.02751 12.2185L 4.0125 9.21854Z"/>
<path id="path4_fill" d="M 0 0L 22.4 0L 22.4 6L 0 6L 0 0Z"/>
<path id="path5_fill" d="M 3.7207 4.19531L 4.85156 4.19531L 7.81055 12.5215L 6.80273 12.5215L 5.95898 10.1016L 2.52539 10.1016L 1.68164 12.5215L 0.761719 12.5215L 3.7207 4.19531ZM 4.24219 5.16797L 2.82422 9.22852L 5.6543 9.22852L 4.24219 5.16797ZM 10.8047 5.07422L 10.8047 11.6426L 12.0176 11.6426C 12.1934 11.6426 12.3379 11.6406 12.4512 11.6367C 12.5684 11.6328 12.7246 11.6211 12.9199 11.6016C 13.1191 11.582 13.2891 11.5527 13.4297 11.5137C 13.5742 11.4746 13.7363 11.418 13.916 11.3438C 14.0996 11.2695 14.2617 11.1797 14.4023 11.0742C 14.543 10.9688 14.6836 10.834 14.8242 10.6699C 14.9648 10.5059 15.0879 10.3203 15.1934 10.1133C 15.4512 9.61719 15.5801 9.01367 15.5801 8.30273C 15.5801 7.81055 15.5078 7.36719 15.3633 6.97266C 15.2227 6.57422 15.0332 6.25195 14.7949 6.00586C 14.5605 5.75586 14.3086 5.55859 14.0391 5.41406C 13.7734 5.26953 13.4941 5.17187 13.2012 5.12109C 13.0293 5.08984 12.7695 5.07422 12.4219 5.07422L 10.8047 5.07422ZM 12.3867 4.19531C 12.9258 4.19531 13.416 4.25 13.8574 4.35938C 14.2988 4.46484 14.668 4.61523 14.9648 4.81055C 15.2656 5.00586 15.5234 5.22656 15.7383 5.47266C 15.9531 5.71875 16.1191 5.99414 16.2363 6.29883C 16.3574 6.59961 16.4453 6.89648 16.5 7.18945C 16.5547 7.48242 16.582 7.78711 16.582 8.10352C 16.582 8.4668 16.5547 8.81641 16.5 9.15234C 16.4453 9.48828 16.3496 9.83008 16.2129 10.1777C 16.0801 10.5254 15.9082 10.8379 15.6973 11.1152C 15.4902 11.3887 15.2207 11.6367 14.8887 11.8594C 14.5566 12.0781 14.1797 12.2402 13.7578 12.3457C 13.5391 12.4004 13.2949 12.4414 13.0254 12.4688C 12.7559 12.4961 12.5332 12.5117 12.3574 12.5156C 12.1816 12.5195 11.9336 12.5215 11.6133 12.5215L 9.80859 12.5215L 9.80859 4.19531L 12.3867 4.19531ZM 20.2148 5.07422L 20.2148 11.6426L 21.4277 11.6426C 21.6035 11.6426 21.748 11.6406 21.8613 11.6367C 21.9785 11.6328 22.1348 11.6211 22.3301 11.6016C 22.5293 11.582 22.6992 11.5527 22.8398 11.5137C 22.9844 11.4746 23.1465 11.418 23.3262 11.3438C 23.5098 11.2695 23.6719 11.1797 23.8125 11.0742C 23.9531 10.9688 24.0938 10.834 24.2344 10.6699C 24.375 10.5059 24.498 10.3203 24.6035 10.1133C 24.8613 9.61719 24.9902 9.01367 24.9902 8.30273C 24.9902 7.81055 24.918 7.36719 24.7734 6.97266C 24.6328 6.57422 24.4434 6.25195 24.2051 6.00586C 23.9707 5.75586 23.7188 5.55859 23.4492 5.41406C 23.1836 5.26953 22.9043 5.17187 22.6113 5.12109C 22.4395 5.08984 22.1797 5.07422 21.832 5.07422L 20.2148 5.07422ZM 21.7969 4.19531C 22.3359 4.19531 22.8262 4.25 23.2676 4.35938C 23.709 4.46484 24.0781 4.61523 24.375 4.81055C 24.6758 5.00586 24.9336 5.22656 25.1484 5.47266C 25.3633 5.71875 25.5293 5.99414 25.6465 6.29883C 25.7676 6.59961 25.8555 6.89648 25.9102 7.18945C 25.9648 7.48242 25.9922 7.78711 25.9922 8.10352C 25.9922 8.4668 25.9648 8.81641 25.9102 9.15234C 25.8555 9.48828 25.7598 9.83008 25.623 10.1777C 25.4902 10.5254 25.3184 10.8379 25.1074 11.1152C 24.9004 11.3887 24.6309 11.6367 24.2988 11.8594C 23.9668 12.0781 23.5898 12.2402 23.168 12.3457C 22.9492 12.4004 22.7051 12.4414 22.4355 12.4688C 22.166 12.4961 21.9434 12.5117 21.7676 12.5156C 21.5918 12.5195 21.3438 12.5215 21.0234 12.5215L 19.2188 12.5215L 19.2188 4.19531L 21.7969 4.19531ZM 32.9062 5.07422L 32.9062 7.79297L 36.3809 7.79297L 36.3809 8.67188L 32.9062 8.67188L 32.9062 12.5215L 31.9102 12.5215L 31.9102 4.19531L 36.7324 4.19531L 36.7324 5.07422L 32.9062 5.07422ZM 42.7031 4.10742C 43.2539 4.10742 43.7676 4.20508 44.2441 4.40039C 44.7246 4.5918 45.1387 4.86328 45.4863 5.21484C 45.8379 5.56641 46.1133 6.00586 46.3125 6.5332C 46.5117 7.05664 46.6113 7.63281 46.6113 8.26172C 46.6113 9.11328 46.4414 9.87109 46.1016 10.5352C 45.7656 11.1953 45.2969 11.707 44.6953 12.0703C 44.0977 12.4297 43.4199 12.6094 42.6621 12.6094C 42.1621 12.6094 41.6836 12.5215 41.2266 12.3457C 40.7695 12.166 40.3574 11.9062 39.9902 11.5664C 39.623 11.2266 39.3301 10.7832 39.1113 10.2363C 38.8926 9.68555 38.7832 9.06641 38.7832 8.37891C 38.7832 7.73438 38.8828 7.14453 39.082 6.60938C 39.2812 6.07422 39.5547 5.625 39.9023 5.26172C 40.25 4.89453 40.6641 4.61133 41.1445 4.41211C 41.625 4.20898 42.1445 4.10742 42.7031 4.10742ZM 42.6504 4.98047C 42.2949 4.98047 41.9531 5.04688 41.625 5.17969C 41.2969 5.3125 40.9941 5.50781 40.7168 5.76562C 40.4434 6.01953 40.2227 6.36328 40.0547 6.79688C 39.8906 7.22656 39.8086 7.71289 39.8086 8.25586C 39.8086 8.77539 39.8848 9.25586 40.0371 9.69727C 40.1895 10.1348 40.3965 10.502 40.6582 10.7988C 40.9199 11.0957 41.2285 11.3262 41.584 11.4902C 41.9434 11.6543 42.3281 11.7363 42.7383 11.7363C 43.0156 11.7363 43.2871 11.6953 43.5527 11.6133C 43.8223 11.5312 44.0801 11.4023 44.3262 11.2266C 44.5723 11.0469 44.7871 10.8281 44.9707 10.5703C 45.1582 10.3125 45.3066 9.99414 45.416 9.61523C 45.5293 9.23633 45.5859 8.82031 45.5859 8.36719C 45.5859 7.90625 45.5273 7.48437 45.4102 7.10156C 45.293 6.71875 45.1367 6.39844 44.9414 6.14062C 44.75 5.88281 44.5254 5.66602 44.2676 5.49023C 44.0137 5.31055 43.75 5.18164 43.4766 5.10352C 43.207 5.02148 42.9316 4.98047 42.6504 4.98047ZM 49.1016 4.19531L 50.0977 4.19531L 50.0977 11.6484L 53.8359 11.6484L 53.8359 12.5215L 49.1016 12.5215L 49.1016 4.19531ZM 56.7422 5.07422L 56.7422 11.6426L 57.9551 11.6426C 58.1309 11.6426 58.2754 11.6406 58.3887 11.6367C 58.5059 11.6328 58.6621 11.6211 58.8574 11.6016C 59.0566 11.582 59.2266 11.5527 59.3672 11.5137C 59.5117 11.4746 59.6738 11.418 59.8535 11.3438C 60.0371 11.2695 60.1992 11.1797 60.3398 11.0742C 60.4805 10.9688 60.6211 10.834 60.7617 10.6699C 60.9023 10.5059 61.0254 10.3203 61.1309 10.1133C 61.3887 9.61719 61.5176 9.01367 61.5176 8.30273C 61.5176 7.81055 61.4453 7.36719 61.3008 6.97266C 61.1602 6.57422 60.9707 6.25195 60.7324 6.00586C 60.498 5.75586 60.2461 5.55859 59.9766 5.41406C 59.7109 5.26953 59.4316 5.17187 59.1387 5.12109C 58.9668 5.08984 58.707 5.07422 58.3594 5.07422L 56.7422 5.07422ZM 58.3242 4.19531C 58.8633 4.19531 59.3535 4.25 59.7949 4.35938C 60.2363 4.46484 60.6055 4.61523 60.9023 4.81055C 61.2031 5.00586 61.4609 5.22656 61.6758 5.47266C 61.8906 5.71875 62.0566 5.99414 62.1738 6.29883C 62.2949 6.59961 62.3828 6.89648 62.4375 7.18945C 62.4922 7.48242 62.5195 7.78711 62.5195 8.10352C 62.5195 8.4668 62.4922 8.81641 62.4375 9.15234C 62.3828 9.48828 62.2871 9.83008 62.1504 10.1777C 62.0176 10.5254 61.8457 10.8379 61.6348 11.1152C 61.4277 11.3887 61.1582 11.6367 60.8262 11.8594C 60.4941 12.0781 60.1172 12.2402 59.6953 12.3457C 59.4766 12.4004 59.2324 12.4414 58.9629 12.4688C 58.6934 12.4961 58.4707 12.5117 58.2949 12.5156C 58.1191 12.5195 57.8711 12.5215 57.5508 12.5215L 55.7461 12.5215L 55.7461 4.19531L 58.3242 4.19531ZM 65.1562 12.5215L 65.1562 4.19531L 70.0371 4.19531L 70.0371 5.07422L 66.1523 5.07422L 66.1523 7.79297L 69.7148 7.79297L 69.7148 8.67188L 66.1523 8.67188L 66.1523 11.6426L 70.0371 11.6426L 70.0371 12.5215L 65.1562 12.5215ZM 78.1758 6.48047C 78.1758 6.75781 78.1426 7.02148 78.0762 7.27148C 78.0098 7.52148 77.9062 7.75977 77.7656 7.98633C 77.625 8.21289 77.4297 8.41016 77.1797 8.57812C 76.9336 8.74219 76.6445 8.86328 76.3125 8.94141L 78.6621 12.5215L 77.5488 12.5215L 75.293 9.05273L 73.6816 9.05273L 73.6816 12.5215L 72.6797 12.5215L 72.6797 4.19531L 75.7383 4.19531C 75.8789 4.19531 76.0059 4.19922 76.1191 4.20703C 76.2324 4.21484 76.377 4.23633 76.5527 4.27148C 76.7324 4.30273 76.8906 4.34766 77.0273 4.40625C 77.1641 4.46094 77.3066 4.54688 77.4551 4.66406C 77.6074 4.77734 77.7324 4.91211 77.8301 5.06836C 77.9316 5.22461 78.0137 5.42383 78.0762 5.66602C 78.1426 5.9082 78.1758 6.17969 78.1758 6.48047ZM 73.6816 8.17383L 75.1172 8.17383C 75.3164 8.17383 75.4922 8.16797 75.6445 8.15625C 75.7969 8.14062 75.9746 8.10352 76.1777 8.04492C 76.3848 7.98242 76.5547 7.89844 76.6875 7.79297C 76.8242 7.68359 76.9395 7.52734 77.0332 7.32422C 77.1309 7.11719 77.1797 6.87305 77.1797 6.5918C 77.1797 6.39258 77.1543 6.21289 77.1035 6.05273C 77.0527 5.89258 76.9883 5.76172 76.9102 5.66016C 76.832 5.55469 76.7363 5.46484 76.623 5.39062C 76.5098 5.3125 76.4004 5.25391 76.2949 5.21484C 76.1895 5.17578 76.0723 5.14453 75.9434 5.12109C 75.8145 5.09766 75.707 5.08398 75.6211 5.08008C 75.5391 5.07227 75.4512 5.06836 75.3574 5.06836L 73.6816 5.06836L 73.6816 8.17383Z"/>
</defs>
</svg>
