<svg width="25" height="24" viewBox="0 0 25 24" version="1.1" xmlns="http://www.w3.org/2000/svg" xmlns:xlink="http://www.w3.org/1999/xlink" xmlns:figma="http://www.figma.com/figma/ns">
<title>pencil</title>
<desc>Created using Figma</desc>
<g id="Canvas" transform="translate(-73 223)" figma:type="canvas">
<g id="pencil" style="mix-blend-mode:normal;" figma:type="frame">
<g id="Vector 2" style="mix-blend-mode:normal;" figma:type="vector">
<use xlink:href="#path0_fill" transform="matrix(0.707107 0.707107 -0.707107 0.707107 91.5159 -222.377)" fill="#FFFFFF" style="mix-blend-mode:normal;"/>
<use xlink:href="#path1_stroke" transform="matrix(0.707107 0.707107 -0.707107 0.707107 91.5159 -222.377)" style="mix-blend-mode:normal;"/>
</g>
<g id="Vector 3" style="mix-blend-mode:normal;" figma:type="vector">
<use xlink:href="#path2_stroke" transform="matrix(0.707107 0.707107 -0.707107 0.707107 78.0498 -206.145)" style="mix-blend-mode:normal;"/>
</g>
</g>
</g>
<defs>
<path id="path0_fill" d="M 3.22876 0L 3.22876 2.54545L 1.95604 2.54545L 1.95604 4.65341L 1.95604 21L 4.50149 24.8182L 7.04694 21L 7.04694 2.54545L 5.77422 2.54545L 5.77422 0L 3.22876 0Z"/>
<path id="path1_stroke" d="M 3.22876 0L 3.22876 -0.4C 3.00785 -0.4 2.82876 -0.220914 2.82876 8.88178e-17L 3.22876 0ZM 5.77422 0L 6.17422 0C 6.17422 -0.220914 5.99513 -0.4 5.77422 -0.4L 5.77422 0ZM 5.77422 2.54545L 5.37422 2.54545C 5.37422 2.76637 5.5533 2.94545 5.77422 2.94545L 5.77422 2.54545ZM 7.04694 2.54545L 7.44694 2.54545C 7.44694 2.32454 7.26786 2.14545 7.04694 2.14545L 7.04694 2.54545ZM 7.04694 21L 7.37976 21.2219C 7.42357 21.1562 7.44694 21.079 7.44694 21L 7.04694 21ZM 4.50149 24.8182L 4.16867 25.0401C 4.24286 25.1513 4.36775 25.2182 4.50149 25.2182C 4.63523 25.2182 4.76012 25.1513 4.83431 25.0401L 4.50149 24.8182ZM 1.95604 21L 1.55604 21C 1.55604 21.079 1.57941 21.1562 1.62322 21.2219L 1.95604 21ZM 1.95604 2.54545L 1.95604 2.14545C 1.73512 2.14545 1.55604 2.32454 1.55604 2.54545L 1.95604 2.54545ZM 0.0469451 6.36364L 0.445776 6.3942L 0.0469451 6.36364ZM 5.13785 2.14545L 3.22876 2.14545L 3.22876 2.94545L 5.13785 2.94545L 5.13785 2.14545ZM 3.62876 2.54545L 3.62876 0L 2.82876 0L 2.82876 2.54545L 3.62876 2.54545ZM 3.22876 0.4L 5.77422 0.4L 5.77422 -0.4L 3.22876 -0.4L 3.22876 0.4ZM 5.37422 0L 5.37422 2.54545L 6.17422 2.54545L 6.17422 0L 5.37422 0ZM 5.77422 2.94545L 7.04694 2.94545L 7.04694 2.14545L 5.77422 2.14545L 5.77422 2.94545ZM 6.64694 2.54545L 6.64694 21L 7.44694 21L 7.44694 2.54545L 6.64694 2.54545ZM 6.71412 20.7781L 4.16867 24.5963L 4.83431 25.0401L 7.37976 21.2219L 6.71412 20.7781ZM 4.83431 24.5963L 2.28886 20.7781L 1.62322 21.2219L 4.16867 25.0401L 4.83431 24.5963ZM 1.95604 2.94545L 3.22876 2.94545L 3.22876 2.14545L 1.95604 2.14545L 1.95604 2.94545ZM 2.35604 21L 2.35604 4.65341L 1.55604 4.65341L 1.55604 21L 2.35604 21ZM 2.35604 4.65341L 2.35604 2.54545L 1.55604 2.54545L 1.55604 4.65341L 2.35604 4.65341ZM 1.95604 4.65341C 1.88364 4.26002 1.8835 4.26004 1.88334 4.26007C 1.88328 4.26008 1.88312 4.26011 1.883 4.26013C 1.88285 4.26016 1.88249 4.26023 1.88219 4.26029C 1.88178 4.26036 1.88088 4.26053 1.88007 4.26069C 1.87881 4.26092 1.87635 4.2614 1.87386 4.26188C 1.86965 4.26271 1.86215 4.26422 1.85389 4.26594C 1.83896 4.26907 1.81422 4.27448 1.78586 4.2812C 1.73244 4.29391 1.64886 4.31564 1.55472 4.34456C 1.37353 4.4006 1.10694 4.50017 0.848319 4.64116C 0.332303 4.925 -0.284074 5.44818 -0.351886 6.33307L 0.445776 6.3942C 0.483591 5.90074 0.821759 5.56881 1.23388 5.34212C 1.43933 5.22785 1.63021 5.15831 1.79047 5.10904C 1.86706 5.08531 1.92519 5.07034 1.97081 5.05953C 1.99197 5.05448 2.00609 5.05141 2.01762 5.04901C 2.0226 5.04796 2.02524 5.04744 2.02786 5.04692C 2.02878 5.04674 2.02891 5.04672 2.02939 5.04663C 2.02944 5.04662 2.02926 5.04665 2.02923 5.04666C 2.02931 5.04664 2.02887 5.04672 2.02891 5.04672C 2.02884 5.04673 2.02872 5.04675 2.02869 5.04676C 2.02856 5.04678 2.02843 5.0468 1.95604 4.65341ZM -0.351886 6.33307C -0.405576 7.03752 -0.405863 8.48673 -0.392643 9.74835C -0.386026 10.3794 -0.376096 10.9678 -0.367835 11.3975C -0.363701 11.6126 -0.359976 11.7884 -0.35729 11.9102C -0.355945 11.9711 -0.354857 12.0188 -0.354107 12.051C -0.353732 12.0672 -0.353439 12.0796 -0.353242 12.0879C -0.353143 12.0921 -0.353066 12.0953 -0.353016 12.0974C -0.35299 12.0984 -0.35297 12.0992 -0.352957 12.0998C -0.352951 12.1001 -0.352946 12.1003 -0.352942 12.1004C -0.352941 12.1005 -0.352939 12.1005 -0.352939 12.1006C -0.352938 12.1006 -0.352937 12.1006 0.0469451 12.0909C 0.446827 12.0812 0.446827 12.0812 0.446826 12.0812C 0.446826 12.0811 0.446824 12.0811 0.446823 12.081C 0.44682 12.0809 0.446815 12.0807 0.446809 12.0805C 0.446797 12.0799 0.446778 12.0792 0.446753 12.0781C 0.446703 12.0761 0.44663 12.073 0.446532 12.0689C 0.446337 12.0606 0.446049 12.0485 0.445677 12.0324C 0.444931 12.0003 0.443853 11.9532 0.442515 11.8925C 0.439837 11.7711 0.436136 11.5964 0.432017 11.3822C 0.423774 10.9534 0.413899 10.3684 0.407313 9.73996C 0.394126 8.48254 0.393839 7.06811 0.445776 6.3942L -0.351886 6.33307Z"/>
<path id="path2_stroke" d="M 0 0.4L 5.09091 0.4L 5.09091 -0.4L 0 -0.4L 0 0.4Z"/>
</defs>
</svg>
