<svg width="47" height="48" viewBox="0 0 47 48" xmlns="http://www.w3.org/2000/svg" xmlns:xlink="http://www.w3.org/1999/xlink" xmlns:figma="http://www.figma.com/figma/ns"><title>Scissor diy</title><desc>Created using Figma</desc><g figma:type="canvas"><g figma:type="frame"><g figma:type="frame"><g figma:type="frame"><use xlink:href="#a" transform="scale(-1 1) rotate(-87 -8.412 37.45)" fill="#BDBDBD" figma:type="vector"/><use xlink:href="#b" transform="scale(-1 1) rotate(-87 -8.486 37.8)" fill="#4F4F4F" figma:type="vector"/></g><g figma:type="frame"><use xlink:href="#c" transform="rotate(-37 50.68 -10.477)" fill="#828282" figma:type="vector"/><use xlink:href="#d" transform="rotate(-37 50.385 -10.11)" fill="#4F4F4F" figma:type="vector"/></g><g figma:type="frame"><use xlink:href="#e" transform="scale(-1 1) rotate(-87 3.967 25.705)" fill="#FF54C8" figma:type="vector"/><use xlink:href="#f" transform="scale(-1 1) rotate(-87 3.962 25.99)" fill="#4F4F4F" figma:type="vector"/></g></g><g figma:type="frame"><g figma:type="frame"><use xlink:href="#a" transform="rotate(18 10.027 80.51)" fill="#FFF" figma:type="vector"/><use xlink:href="#b" transform="rotate(18 11.45 79.832)" fill="#4F4F4F" figma:type="vector"/></g><g figma:type="frame"><use xlink:href="#g" transform="scale(1 -1) rotate(38 49.427 10.139)" fill="#F1ECEC" figma:type="vector"/><use xlink:href="#h" transform="scale(1 -1) rotate(38 49.873 10.018)" fill="#4F4F4F" figma:type="vector"/></g><g figma:type="frame"><use xlink:href="#e" transform="rotate(18 -64.118 68.76)" fill="#8A3BD5" figma:type="vector"/><g figma:type="vector" transform="translate(-1566 240)"><mask id="j"><use xlink:href="#i" fill="#fff" transform="rotate(18 1477.56 4891.68)"/></mask><g mask="url(#j)"><use xlink:href="#k" transform="rotate(18 1477.56 4891.68)" fill="#4F4F4F"/></g></g></g><g figma:type="frame" transform="translate(-1566 240)"><use xlink:href="#l" transform="rotate(-37 471.969 -2474.933)" fill="#828282" figma:type="vector"/><mask id="m"><g figma:type="frame"><use xlink:href="#l" transform="rotate(-37 471.969 -2474.933)" fill="#FFF" figma:type="vector"/></g></mask><g mask="url(#m)" figma:type="frame"><use xlink:href="#n" transform="rotate(-37 471.414 -2473.823)" fill="#4F4F4F" figma:type="vector"/></g></g></g></g></g><defs><path id="a" d="M0 4.614v20.552h4.754V0S0 1.818 0 4.614z"/><path id="b" d="M.28 25.573H0v.28h.28v-.28zM5.033.405h.28V0l-.38.145.1.261zm0 25.167v.28h.28v-.28h-.28zm-4.753 0h.28V5.02H0v20.552h.28zM.56 5.02c0-.616.26-1.195.682-1.727.426-.541.988-1.002 1.571-1.397A12.64 12.64 0 0 1 5.122.672L5.13.668h.002l-.1-.262-.1-.26h-.004a3.435 3.435 0 0 0-.053.022 13.234 13.234 0 0 0-.706.314c-.451.216-1.063.54-1.67.951-.605.41-1.232.927-1.697 1.513C.333 3.541 0 4.238 0 5.02h.56zM4.753.406v25.167h.559V.405h-.56zm.28 24.887H.28v.56h4.753v-.56z"/><path id="c" d="M0 0l26.285 12.443s-2.797 2.237-5.034 1.818C19.015 13.84 0 0 0 0z"/><path id="d" d="M26.45 12.696l.174.218.35-.28-.405-.19-.12.252zM.164.253L.285 0 0 .479.165.253zm26.404 12.19L.284 0l-.24.505L26.33 12.95l.239-.506zM.165.253L0 .479a.238.238 0 0 0 .014.01 127.945 127.945 0 0 0 .808.586 702.618 702.618 0 0 0 8.97 6.38c2.517 1.757 5.108 3.53 7.208 4.888 1.05.68 1.984 1.26 2.722 1.68.37.212.699.387.967.514.264.125.498.218.675.252l.104-.55a2.661 2.661 0 0 1-.54-.207 14.373 14.373 0 0 1-.929-.495 59.88 59.88 0 0 1-2.695-1.663c-2.094-1.355-4.677-3.122-7.192-4.877A651.136 651.136 0 0 1 .332.029L.33.027.164.253zm21.2 14.536c1.215.227 2.545-.266 3.535-.779a12.115 12.115 0 0 0 1.689-1.068l.025-.02.007-.005.002-.002-.174-.219-.174-.218h-.002a.269.269 0 0 1-.005.005l-.022.017-.088.067a11.288 11.288 0 0 1-1.514.947c-.969.5-2.155.916-3.176.725l-.104.55z"/><path id="e" fill-rule="evenodd" d="M13.985 12.723c0 1.258 0 7.55-6.152 7.69-6.152.14-7.83-3.636-7.83-6.991L.002 9.35C0 6.143-.002 2.71.003 2.237.01 1.537.423 0 2.24 0c1.818 0 2.517 1.119 2.517 2.237 0 .173-.007.349-.014.528-.04.98-.082 2.058.993 3.247.8.885 1.878 1.143 2.98 1.406.955.229 1.928.461 2.752 1.11 1.774 1.399 2.516 2.937 2.517 4.195zM7.134 9.228c4.334 0 4.334 4.474 4.334 4.474s0 4.334-4.334 4.334c-4.335 0-4.474-4.334-4.474-4.334s.14-4.474 4.474-4.474z"/><path id="f" d="M.281 9.63h.28-.28zm.002-7.113l.28.003-.28-.003zm4.753 0h.28-.28zm-.014.528l.28.011-.28-.011zm.993 3.247l-.207.187.207-.187zm2.98 1.406l-.065.272.065-.272zm2.753 1.11l.173-.22-.173.22zm-8.809 5.173l-.28-.008v.017l.28-.01zm5.18 6.99c3.2-.072 4.827-1.76 5.632-3.592.787-1.802.793-3.747.793-4.376h-.56c0 .629.006 2.459-.745 4.151-.732 1.665-2.183 3.192-5.133 3.259l.013.559zm-8.116-7.27c0 1.72.43 3.578 1.678 4.992 1.256 1.422 3.301 2.35 6.438 2.279l-.013-.56c-3.015.07-4.885-.82-6.006-2.09C.972 17.046.562 15.34.562 13.703H.003zM.002 9.63l.001 4.073h.56L.56 9.629H0zm.001-7.115C-.002 2.989 0 6.423.002 9.629H.56C.559 6.423.558 2.992.562 2.52l-.559-.005zM2.52 0C1.518 0 .876.43.494.975a2.845 2.845 0 0 0-.49 1.539l.558.006c.004-.309.099-.809.39-1.223.28-.4.753-.738 1.568-.738V0zm2.796 2.517c0-.616-.192-1.25-.654-1.732C4.196.3 3.488 0 2.52 0v.56c.85 0 1.4.259 1.738.612.342.357.499.842.499 1.345h.56zm-.014.539c.007-.18.014-.36.014-.54h-.56c0 .168-.006.339-.013.518l.559.022zm.92 3.048c-.995-1.102-.959-2.08-.92-3.048l-.559-.022c-.04.992-.088 2.17 1.065 3.445l.415-.375zM9.06 7.426c-1.115-.267-2.105-.511-2.837-1.322l-.415.375c.867.96 2.034 1.23 3.122 1.49l.13-.543zm2.86 1.163c-.875-.682-1.904-.935-2.86-1.163l-.13.544c.956.228 1.872.44 2.644 1.058l.347-.44zm2.624 4.414c0-1.37-.804-2.981-2.623-4.414l-.347.439c1.73 1.363 2.41 2.827 2.41 3.975h.56zm-2.796.978h.28v-.005l-.001-.012-.001-.042a6.057 6.057 0 0 0-.07-.684 6.04 6.04 0 0 0-.499-1.616c-.58-1.197-1.751-2.394-4.044-2.394v.559c2.042 0 3.037 1.04 3.541 2.08.26.53.384 1.051.45 1.46a5.218 5.218 0 0 1 .063.613v.042h.28zm-4.335 4.614c2.288 0 3.46-1.157 4.043-2.322a5.74 5.74 0 0 0 .57-2.275l.001-.011v-.005h-.28l-.28-.001v.04l-.007.127a5.08 5.08 0 0 1-.056.465 4.92 4.92 0 0 1-.448 1.41c-.502 1.003-1.496 2.013-3.543 2.013v.56zM2.94 13.981a22.788 22.788 0 0 0-.28.011.557.557 0 0 1 .002.015 2.633 2.633 0 0 0 .015.19 5.89 5.89 0 0 0 .629 2.083c.617 1.16 1.822 2.315 4.108 2.315v-.56c-2.048 0-3.08-1.01-3.615-2.018a5.075 5.075 0 0 1-.495-1.413 4.982 4.982 0 0 1-.084-.624v-.008l-.28.01zm4.474-4.753c-2.29 0-3.495 1.195-4.11 2.388a6.192 6.192 0 0 0-.643 2.351v.005l.28.01.279.008v-.001a.432.432 0 0 1 .002-.04 5.313 5.313 0 0 1 .082-.614c.079-.409.22-.93.496-1.463.539-1.043 1.57-2.085 3.614-2.085v-.56z"/><path id="g" d="M0 0l26.285 12.443s-2.797 2.237-5.034 1.818C19.015 13.84 0 0 0 0z"/><path id="h" d="M26.45 12.696l.174.218.35-.28-.405-.19-.12.252zM.164.253L.285 0 0 .479.165.253zm26.404 12.19L.284 0l-.24.505L26.33 12.95l.239-.506zM.165.253L0 .479a.238.238 0 0 0 .014.01 127.945 127.945 0 0 0 .808.586 702.618 702.618 0 0 0 8.97 6.38c2.517 1.757 5.108 3.53 7.208 4.888 1.05.68 1.984 1.26 2.722 1.68.37.212.699.387.967.514.264.125.498.218.675.252l.104-.55a2.661 2.661 0 0 1-.54-.207 14.373 14.373 0 0 1-.929-.495 59.88 59.88 0 0 1-2.695-1.663c-2.094-1.355-4.677-3.122-7.192-4.877A651.288 651.288 0 0 1 .332.029L.33.027.164.253zm21.2 14.536c1.215.227 2.545-.266 3.535-.779a12.115 12.115 0 0 0 1.689-1.068l.025-.02.007-.005.002-.002-.174-.219-.174-.218h-.002a11.288 11.288 0 0 1-1.63 1.035c-.968.502-2.154.917-3.175.726l-.104.55z"/><path id="i" d="M.281 9.63h.28-.28zm.002-7.113l.28.003-.28-.003zm4.753 0h.28-.28zm-.014.528l.28.011-.28-.011zm.993 3.247l-.207.187.207-.187zm2.98 1.406l-.065.272.065-.272zm2.753 1.11l.173-.22-.173.22zm-8.809 5.173l-.28-.008v.017l.28-.01zm5.18 6.99c3.2-.072 4.827-1.76 5.632-3.592.787-1.802.793-3.747.793-4.376h-.56c0 .629.006 2.459-.745 4.151-.732 1.665-2.183 3.192-5.133 3.259l.013.559zm-8.116-7.27c0 1.72.43 3.578 1.678 4.992 1.256 1.422 3.301 2.35 6.438 2.279l-.013-.56c-3.015.07-4.885-.82-6.006-2.09C.972 17.046.562 15.34.562 13.703H.003zM.002 9.63l.001 4.073h.56L.56 9.629H0zm.001-7.115C-.002 2.989 0 6.423.002 9.629H.56C.559 6.423.558 2.992.562 2.52l-.559-.005zM2.52 0C1.518 0 .876.43.494.975a2.845 2.845 0 0 0-.49 1.539l.558.006c.004-.309.099-.809.39-1.223.28-.4.753-.738 1.568-.738V0zm2.796 2.517c0-.616-.192-1.25-.654-1.732C4.196.3 3.488 0 2.52 0v.56c.85 0 1.4.259 1.738.612.342.357.499.842.499 1.345h.56zm-.014.539c.007-.18.014-.36.014-.54h-.56c0 .168-.006.339-.013.518l.559.022zm.92 3.048c-.995-1.102-.959-2.08-.92-3.048l-.559-.022c-.04.992-.088 2.17 1.065 3.445l.415-.375zM9.06 7.426c-1.115-.267-2.105-.511-2.837-1.322l-.415.375c.867.96 2.034 1.23 3.122 1.49l.13-.543zm2.86 1.163c-.875-.682-1.904-.935-2.86-1.163l-.13.544c.956.228 1.872.44 2.644 1.058l.347-.44zm2.624 4.414c0-1.37-.804-2.981-2.623-4.414l-.347.439c1.73 1.363 2.41 2.827 2.41 3.975h.56zm-2.796.978h.28v-.005l-.001-.012-.001-.042a6.057 6.057 0 0 0-.07-.684 6.04 6.04 0 0 0-.499-1.616c-.58-1.197-1.751-2.394-4.044-2.394v.559c2.042 0 3.037 1.04 3.541 2.08.26.53.384 1.051.45 1.46a5.218 5.218 0 0 1 .063.613v.042h.28zm-4.335 4.614c2.288 0 3.46-1.157 4.043-2.322a5.74 5.74 0 0 0 .57-2.275l.001-.011v-.005h-.28l-.28-.001v.04l-.007.127a5.08 5.08 0 0 1-.056.465 4.92 4.92 0 0 1-.448 1.41c-.502 1.003-1.496 2.013-3.543 2.013v.56zM2.94 13.981a22.788 22.788 0 0 0-.28.011.557.557 0 0 1 .002.015 2.633 2.633 0 0 0 .015.19 5.89 5.89 0 0 0 .629 2.083c.617 1.16 1.822 2.315 4.108 2.315v-.56c-2.048 0-3.08-1.01-3.615-2.018a5.075 5.075 0 0 1-.495-1.413 4.982 4.982 0 0 1-.084-.624v-.008l-.28.01zm4.474-4.753c-2.29 0-3.495 1.195-4.11 2.388a6.192 6.192 0 0 0-.643 2.351v.005l.28.01.279.008v-.001a.432.432 0 0 1 .002-.04 5.313 5.313 0 0 1 .082-.614c.079-.409.22-.93.496-1.463.539-1.043 1.57-2.085 3.614-2.085v-.56z"/><path id="k" d="M2.94 13.981l.031 1v-2l-.032 1zm-.28-.008l.031-1-1-.031-.03 1 .999.03zm0 .008l-1-.03-.001.03.001.033 1-.033zm0 .01l-1 .031.032 1 1-.032-.032-1zm5.459 6.98l-1 .023.023 1 1-.023-.023-1zm5.632-3.592l.915.403.002-.003-.917-.4zm.793-4.376h1v-1h-1v1zm-.56 0v-1h-1v1h1zm-.745 4.151l-.914-.405-.001.003.915.402zm-5.133 3.259l-.023-1-1 .023.023 1 1-.023zM.003 13.702v-1h-1v1h1zm1.678 4.99l.75-.661-.75.662zm6.438 2.28l.022 1 1-.023-.023-1-1 .023zm-.013-.56l1-.022-.023-1-1 .023.023 1zM2.1 18.323l-.75.663.75-.662zm-1.538-4.62h1v-1h-1v1zM.002 9.63v-1h-1v1h1zm.001 4.073h-1v1h1v-1zm.56 0v1h1v-1h-1zM.56 9.629h1v-1h-1v1zM.003 2.514l.01-1-1-.01-.01 1 1 .01zM.002 9.629h-1v1h1v-1zm.559 0v1h1v-1h-1zm.001-7.11l1 .01.01-.999-1-.01-.01 1zM2.52 0h1v-1h-1v1zM.494.975l.818.575L.494.975zm-.49 1.539l-1-.01-.011 1 1 .01.01-1zm.558.006l-.01 1 1 .01.01-1-1-.01zm.39-1.223L.131.722l.82.575zM2.52.559v1h1v-1h-1zm2.796 1.958v1h1v-1h-1zM4.662.785l-.722.692.722-.692zM2.52 0v-1h-1v1h1zm0 .56h-1v1h1v-1zm1.738.612l-.722.692.722-.692zm.499 1.345h-1v1h1v-1zm.545.539l-.04 1 1 .039.039-1-1-.039zm.014-.54h1v-1h-1v1zm-.56 0v-1h-1v1.001h1zm-.013.518l-1-.04-.039 1 1 .039.039-1zm1.48 3.07l.67.742.742-.67-.67-.742-.742.67zm-.921-3.048l.999.04.04-1-1-.04-.04 1zm-.559-.022l.04-1-1-.039-.04 1 1 .039zm1.065 3.445l-.742.67.67.742.742-.67-.67-.742zm3.252.947l.973.232.232-.972-.972-.233-.233.973zM6.223 6.104l.741-.67-.67-.742-.742.67.67.742zm-.415.375l-.67-.742-.743.67.67.743.743-.671zM8.93 7.97l-.232.973.972.233.233-.973-.973-.232zm2.99.62l.786.618.623-.79-.794-.618-.614.79zM9.06 7.426l.233-.973-.973-.232-.232.972.972.233zm-.13.544l-.972-.233-.233.973.973.232.232-.972zm2.644 1.058l-.624.781.787.628.623-.79-.786-.62zm2.97 3.975v1h1v-1h-1zM11.92 8.589l.618-.786-.785-.619-.619.786.786.619zm-.347.439l-.785-.619-.619.785.786.62.618-.786zm2.41 3.975h-1v1h1v-1zm-1.957.973l-1 .011v.008l1-.02zm0-.012l-1 .015v.002l1-.017zm-.001-.042l-1 .032 1-.032zm-.008-.152l.998-.07-.998.07zm-.062-.532l.987-.16-.987.16zm-.499-1.616l.901-.433v-.003l-.9.436zM7.413 9.228v-1h-1v1h1zm0 .559h-1v1h1v-1zm3.541 2.08l-.9.435.001.003.899-.439zm.45 1.46l-.988.159.988-.16zm.056.481l-.998.069.998-.069zm.007.132l-1 .032v.002l1-.034zm0 .033l1-.016v-.002l-1 .018zm0 .007h1v-.016l-1 .016zm-4.054 4.615h-1v1h1v-1zm4.043-2.322l.894.448.001-.003-.895-.445zm.5-1.569l.986.165-.986-.165zm.062-.517l.997.072-.997-.072zm.008-.148l1 .034v-.002l-1-.032zm0-.04l-.999-.018v.002l1 .015zm.001-.012l-1-.02v.008l1 .012zm-.56-.005l1 .017v-.017h-1zm0 .007l1 .019v-.002l-1-.017zm0 .032l1 .033-1-.033zm-.007.127l-.997-.072.997.072zm-.056.465l-.986-.166v.002l.986.164zm-.448 1.41l-.893-.45-.002.003.895.447zm-3.543 2.013v-1h-1v1h1zM2.94 13.98l-.032-1 .032 1zm-.28.01l-.999.033 1-.033zm0 0l-.999.033v.005l1-.038zm0 .001l1-.036v-.001l-1 .037zm.001.004l-1 .039v.002l1-.041zm0 .011l-.998.048.999-.048zm.003.041l-.998.066.998-.066zm.013.148l-.995.103.995-.103zm.079.517l-.981.195.98-.195zm.55 1.567l-.885.467.001.003.883-.47zm4.108 2.315v1h1v-1h-1zm0-.56h1v-1h-1v1zm-3.615-2.018l.883-.47-.002-.002-.881.472zm-.495-1.413l.981-.195-.98.195zm-.071-.465l.995-.103-.995.103zm-.011-.127l.998-.065v-.002l-.998.067zm-.002-.032l-.999.042v.007l1-.049zm0-.007l-1 .042.001.007.999-.049zm0-.001h-1v.042l.003.041.997-.083zm4.194-4.744h1v-1h-1v1zm-4.11 2.388l-.89-.458v.002l.89.456zm-.549 1.613l-.982-.19v.002l.982.188zm-.078.532l-.995-.1.995.1zm-.013.152l-.998-.063.998.063zm-.003.042l-.998-.047.998.047zm0 .012l1 .04v-.001l-1-.039zm0 .004l-1-.036 1 .036zm0 0l1 .034v-.008l-1-.025zm0 .001l-.999-.05v.017l.999.033zm.28.01l.03-1-.03 1zm.279.007l1 .038v-.007l-1-.031zm0-.008l.999.048-.999-.047zm.002-.032l.998.064v-.002l-.998-.062zm.011-.132l.995.1-.995-.1zm.071-.482l.982.19v-.001l-.982-.189zm.496-1.463l.888.461.001-.002-.889-.459zm3.614-2.085v1h1v-1h-1zm-7.131.842h.28l-.002-2H.28l.002 2zm.278-2H.28l.002 2h.28l-.002-2zM.272 3.517l.28.002.02-2-.279-.002-.02 2zm.3-1.997l-.279-.003-.02 2 .28.002.02-2zm4.464 1.997h.28v-2h-.28v2zm.28-2h-.28v2h.28v-2zm-.333 2.527l.28.011.078-1.998-.279-.011-.08 1.998zm.358-1.987l-.279-.011-.08 1.998.28.011.08-1.998zm.004 3.493l-.208.187 1.341 1.484.208-.188L5.345 5.55zm1.133 1.67l.208-.188L5.345 5.55l-.208.187 1.341 1.484zm1.545.244l-.065.272 1.945.465.065-.272-1.945-.465zm1.88.737l.065-.272-1.945-.465-.065.272 1.945.465zm2.63 1.225l.173-.22-1.571-1.237-.173.22 1.57 1.237zM11.135 7.97l-.173.22 1.57 1.237.174-.22-1.571-1.237zM2.97 12.982l-.279-.009-.062 1.999.28.009.061-2zm-1.31.96v.008l1.999.063v-.01l-1.999-.062zm0 .072v.008l2-.064-.001-.009-1.999.065zm1.032.976l.28-.01-.065-1.998-.28.009.065 1.999zm5.45 6.981c3.65-.082 5.588-2.062 6.524-4.189l-1.83-.805c-.675 1.534-1.988 2.933-4.74 2.995l.045 2zm6.526-4.192c.848-1.996.876-4.146.876-4.776h-2c0 .627.015 2.368-.71 3.977l1.834.8zm-.124-5.776h-.56v2h.56v-2zm-1.56 1c0 .63.028 2.253-.659 3.745l1.828.812c.816-1.893.832-3.93.832-4.557h-2zm-.66 3.748c-.325.75-.714 1.336-1.408 1.823-.638.464-1.535.81-2.833.839l.046 2c1.652-.038 2.956-.49 3.963-1.221.952-.71 1.655-1.72 2.063-2.635l-1.831-.805zm-5.218 3.684l.013.56 2-.046-.013-.559-2 .046zm-8.103-6.733c0 1.864.464 3.994 1.929 5.653L2.43 18.03c-1.033-1.17-1.428-2.757-1.428-4.33h-2zm1.929 5.653c1.497 1.696 3.857 2.693 7.21 2.616l-.046-1.999c-2.92.066-4.651-.793-5.665-1.941l-1.5 1.324zm8.186 1.594l-.012-.559-2 .046.013.558 2-.045zm-1.035-1.536c-2.799.064-4.354-.757-5.233-1.752l-1.5 1.323c1.363 1.543 3.547 2.502 6.779 2.428l-.046-1.999zM2.85 17.661c-.912-1.033-1.288-2.469-1.288-3.96h-2c0 1.784.445 3.762 1.789 5.284L2.85 17.66zM.562 12.7H.003v2h.56v-2zm-1.56-3.07l.001 4.072h2l-.001-4.073h-2zm1.001 5.072h.56v-2h-.56v2zm1.56-1L1.56 9.629h-2l.001 4.073h2zM.56 8.629H.001l.001 2h.56l-.002-2zM-.997 2.503c-.005.481-.003 3.92-.001 7.127l2-.001C1 6.422.998 2.994 1.003 2.524l-2-.02zm1 8.126H.56v-2H0l.001 2zm1.558-1c-.002-3.207-.003-6.632.001-7.1l-2-.02c-.004.478-.003 3.914-.001 7.12h2zm-.988-8.11l-.56-.005-.02 2 .56.005.02-2zM2.52-1C1.183-1 .24-.403-.325.4l1.637 1.15c.2-.285.54-.55 1.208-.55v-2zM-.325.4a3.844 3.844 0 0 0-.672 2.103l2 .021c.003-.244.082-.65.31-.974L-.326.4zm.318 3.114l.56.005.02-2-.56-.005-.02 2zm1.57-.984c.001-.162.06-.45.207-.659L.133.722a3.285 3.285 0 0 0-.57 1.787l2 .02zm.207-.659A.644.644 0 0 1 2 1.663c.095-.05.253-.104.519-.104v-2C1.37-.44.595.063.133.722l1.637 1.15zM3.52.559V0h-2v.56h2zm2.796 1.958c0-.816-.256-1.718-.932-2.424L3.94 1.477c.247.258.376.625.376 1.04h2zM5.384.093C4.692-.628 3.7-1 2.52-1v2c.756 0 1.18.228 1.42.477L5.384.093zM1.52 0v.56h2V0h-2zm1 1.56c.636 0 .903.186 1.016.304L4.98.48c-.565-.589-1.398-.92-2.46-.92v2zm1.016.304c.128.134.22.35.22.653h2c0-.705-.22-1.456-.776-2.037L3.536 1.864zm1.22 1.653h.56v-2h-.56v2zm1.545-.421c.007-.18.015-.381.015-.58h-2c0 .16-.006.321-.013.5l1.998.08zm-.985-1.58h-.56v2h.56v-2zm-1.56 1.001c.001.147-.005.298-.012.477l1.998.08c.007-.18.015-.37.015-.558l-2 .001zm.947 1.516l.56.022.078-1.998-.558-.022-.08 1.998zm2.261 1.4c-.714-.79-.7-1.411-.663-2.337l-1.998-.08c-.04 1.011-.1 2.346 1.178 3.759l1.483-1.341zM5.341 2.058l-.558-.022-.08 1.998.56.022.078-1.998zm-1.597.937C3.703 4.03 3.63 5.562 5.066 7.15L6.55 5.809c-.872-.965-.845-1.786-.808-2.736l-1.998-.079zm2.734 4.227l.415-.375-1.34-1.484-.416.375 1.341 1.484zm2.815-.768c-1.165-.278-1.835-.474-2.329-1.02L5.481 6.776c.972 1.076 2.28 1.369 3.347 1.623l.465-1.945zm-3.74-1.09l-.416.374 1.341 1.484.415-.375-1.34-1.484zM5.065 7.15c1.106 1.223 2.59 1.543 3.632 1.792l.465-1.945C8.028 6.726 7.177 6.503 6.55 5.81L5.066 7.15zm4.837 1.052l.13-.544-1.945-.465-.13.544 1.945.465zm2.632-.403c-1.054-.792-2.284-1.117-3.242-1.346l-.465 1.945c.952.228 1.781.41 2.478.98l1.229-1.579zm-4.447-.606l-.13.544 1.945.465.13-.544-1.945-.465zm.61 1.75c.958.229 1.668.368 2.252.866l1.248-1.563c-.96-.736-2.083-1.021-3.035-1.249l-.465 1.945zm3.662.704l.346-.44-1.571-1.237-.346.439 1.57 1.238zm3.184 3.355c0-1.765-1.026-3.64-3.005-5.199l-1.237 1.571c1.66 1.308 2.242 2.656 2.242 3.629h2zM11.135 7.97l-.346.439 1.57 1.238.347-.44-1.571-1.237zm-.18 1.843c1.57 1.237 2.03 2.438 2.03 3.19h2c0-1.544-.902-3.272-2.792-4.76l-1.237 1.57zm3.03 4.19h.559v-2h-.56v2zm-2.237.978h.283a1.011 1.011 0 0 0 .255-.034c.059-.018.19-.072.26-.111a1 1 0 0 0 .407-.476c.055-.186.074-.38.074-.38h-2c0 .026-.011-.169.075-.378a1 1 0 0 1 .86-.619l.028-.001h.001-.243v2zm1.28-1h-2 2zm0 0v-.002h-2v.002h2zm0-.002l-.001-.022-2 .038v-.016h2zm-.001-.014v-.018l-2 .034v.006l2-.022zm0-.016c0-.012 0-.036-.002-.06l-1.999.066.001.024 2-.03zm-.002-.06a6.194 6.194 0 0 0-.01-.188l-1.995.138c.004.051.006.092.006.115l2-.065zm-.01-.188a7.57 7.57 0 0 0-.072-.622l-1.974.317c.03.188.044.33.051.443l1.995-.139zm-.072-.623a7.538 7.538 0 0 0-.585-1.89l-1.802.868c.243.49.35.95.413 1.342l1.974-.32zm-.586-1.892c-.716-1.479-2.202-2.958-4.944-2.958v2c1.844 0 2.7.915 3.144 1.83l1.8-.872zM6.413 9.228v.559h2v-.56h-2zm1 1.559c1.594 0 2.274.758 2.641 1.515l1.8-.872c-.64-1.322-1.951-2.643-4.44-2.643v2zm2.642 1.518c.217.43.302.809.361 1.18l1.975-.317a6.705 6.705 0 0 0-.538-1.74l-1.798.877zm.362 1.182c.027.169.038.285.045.39l1.996-.137a7.17 7.17 0 0 0-.067-.573l-1.974.32zm.046.39c.003.045.004.075.004.095l2-.063a4.809 4.809 0 0 0-.01-.17l-1.995.139zm.005.097v.017l2-.036c0-.008 0-.027-.002-.049l-1.998.068zm0 .015v-.003.002a.24.24 0 0 0 0 .008l2-.032v.005a.85.85 0 0 0 0-.012l-2 .032zm0-.009v.002h2v-.002h-2zm0 .002h2-2 2-2zm2 0h-2 2zm0 0c0-.023.018.25-.147.52a1 1 0 0 1-.808.478l-.02.001h-.015.27v-2h-.305a1.92 1.92 0 0 0-.077.006 1.765 1.765 0 0 0-.077.01 1 1 0 0 0-.675.463c-.109.25-.146.522-.146.522h2zm-5.055 5.613c2.72 0 4.21-1.421 4.937-2.874l-1.789-.895c-.438.876-1.292 1.77-3.148 1.77v2zm4.938-2.877a7.244 7.244 0 0 0 .59-1.849l-1.972-.33a4.307 4.307 0 0 1-.409 1.29l1.791.89zm.591-1.85c.04-.244.063-.472.073-.61l-1.995-.142a4.338 4.338 0 0 1-.05.425l1.972.327zm.073-.61c.006-.075.009-.146.01-.185l-1.999-.067c0 .021-.002.06-.006.11l1.995.142zm.01-.187l.002-.057-2-.031v.024l1.998.064zm.002-.056v-.017l-2-.023v.006c0 .001 0 0 0 0l2 .034zm0-.009v-.023h-2v-.016l2 .04zm0-.023v-.001h-2v.001h2zm0-.001h-2 2zm0 0s-.014-.169-.057-.332a1 1 0 0 0-.367-.486 1.778 1.778 0 0 0-.28-.138 1.85 1.85 0 0 0-.126-.03 1.821 1.821 0 0 0-.165-.014h-.284v2h.265a1.162 1.162 0 0 0-.061-.003c-.01-.001-.048-.004-.095-.012a1.009 1.009 0 0 1-.405-.168 1 1 0 0 1-.368-.486c-.066-.185-.057-.355-.057-.331h2zm-1.28-1h-.269.036l.055.004a1.02 1.02 0 0 1 .278.07 1 1 0 0 1 .474.404c.165.27.147.544.147.521h-2s.037.27.146.521a1 1 0 0 0 .852.48h.281v-2zm-.28.999h1-2 1zm1 0h-2 2-2 2zm-2 0v.001h2v-.001h-2zm.001-.015v.006l2 .034v-.013V14l-2-.033zm0 .004v.018l1.998.066.002-.046-2-.038zm0 .017l-.005.089 1.995.143.008-.165-1.998-.067zm-.005.09c-.007.1-.018.21-.045.37l1.972.33a6.54 6.54 0 0 0 .068-.558l-1.995-.143zm-.046.372a3.52 3.52 0 0 1-.354 1.124l1.786.9a6.403 6.403 0 0 0 .541-1.697l-1.973-.327zm-.356 1.127c-.356.713-1.032 1.46-2.648 1.46v2c2.478 0 3.79-1.273 4.437-2.566l-1.789-.894zm-3.648 2.46v.56h2v-.56h-2zm-3.506-5.054a193.693 193.693 0 0 0-.317.011c-.019.002-.076.008-.113.014-.025.005-.08.019-.111.028a1.92 1.92 0 0 0-.257.12 1 1 0 0 0-.387.49c-.05.186-.062.379-.062.379l2-.067v.026a1.007 1.007 0 0 1-.062.353 1 1 0 0 1-.755.638c-.041.007-.074.01-.083.012a.917.917 0 0 0-.055.003h.024l.242-.008-.064-2zM1.66 14.024l2-.066-2 .066zm0 .005v-.001.002l2-.075v-.002l-2 .075zm0 0v.006l2-.079-2 .072zm0 .008l.002.018 1.997-.096v-.004l-1.998.082zm.002.019l.003.058 1.996-.131-.002-.024-1.997.097zm.003.058c.003.04.008.11.016.185l1.99-.205a3.101 3.101 0 0 1-.01-.111l-1.996.13zm.016.186c.014.136.045.364.093.607l1.962-.388a4.363 4.363 0 0 1-.066-.426l-1.989.207zm.093.609c.092.456.301 1.175.646 1.838l1.768-.935a4.46 4.46 0 0 1-.453-1.295l-1.961.392zm.647 1.84c.763 1.434 2.28 2.846 4.992 2.846v-2c-1.86 0-2.754-.898-3.226-1.785l-1.766.94zm5.992 1.846v-.56h-2v.56h2zm-1-1.56c-1.622 0-2.342-.755-2.732-1.488l-1.766.94c.682 1.28 2.025 2.549 4.498 2.549v-2zm-2.734-1.49a3.674 3.674 0 0 1-.395-1.136l-1.962.39a6.56 6.56 0 0 0 .594 1.69l1.763-.944zm-.395-1.137a3.58 3.58 0 0 1-.057-.372l-1.99.206c.014.128.04.33.085.558l1.962-.392zm-.057-.373a2.249 2.249 0 0 1-.008-.088l-1.996.13c.002.036.007.096.014.165l1.99-.207zm-.008-.09l-.001-.014-1.998.098.003.05 1.996-.134zm0-.007l-.001-.014-1.998.098 1.998-.084zm-.001-.007a.561.561 0 0 1-.003-.042l-1.993.166a.966.966 0 0 1-.002-.044v-.002.006l1.998-.084zm0 .04h-2 2zm-2 0a1.002 1.002 0 0 0 .03.242v.002l-.001-.007a1.077 1.077 0 0 1-.028-.236h2a1.002 1.002 0 0 0-.03-.241v-.002l.002.007a1.015 1.015 0 0 1 .028.236h-2zm0 .001c0 .001-.018-.32.211-.614.181-.233.408-.312.458-.33a.99.99 0 0 1 .277-.055h.012-.026l-.243.009.064 1.999.246-.008a1.986 1.986 0 0 0 .115-.007c.014-.002.044-.006.06-.01.034-.006.113-.026.159-.04.05-.018.276-.097.457-.33.23-.295.21-.615.21-.614h-2zm5.195-5.744c-2.734 0-4.247 1.47-5 2.93l1.778.916c.478-.926 1.375-1.846 3.222-1.846v-2zm-5 2.932a7.691 7.691 0 0 0-.64 1.88l1.963.379c.075-.392.198-.854.456-1.347l-1.78-.912zm-.64 1.88c-.048.25-.078.481-.092.62l1.99.201c.01-.112.029-.255.065-.443l-1.964-.377zm-.092.621a5.878 5.878 0 0 0-.016.189l1.996.127a3.33 3.33 0 0 1 .01-.116l-1.99-.2zm-.016.189a4.33 4.33 0 0 0-.003.058l1.997.094.002-.026-1.996-.126zm-.003.059l-.001.02 1.998.077v-.004l-1.997-.093zm-.001.019v.007l1.998.072-1.998-.08zm0 .007v.001a.294.294 0 0 0 0 .01l1.998.05v.011l-1.999-.07zm0 .003v-.015l1.998.1a.762.762 0 0 0 0-.016v-.003.001l-1.999-.067zm0 0s.012.194.06.38a1 1 0 0 0 .389.49c.07.041.199.1.257.12.03.01.086.023.11.027a1.806 1.806 0 0 0 .147.017l.038.001.246.008.062-2a194.157 194.157 0 0 1-.266-.008l.025.002.03.002a1.022 1.022 0 0 1 .45.16 1 1 0 0 1 .45.843v.025L1.66 13.94zm1.247 1.043l.243.007.026.001h-.015l-.02-.002-.055-.006a.96.96 0 0 1-.272-.076 1 1 0 0 1-.454-.401c-.16-.266-.142-.533-.142-.514h2s-.036-.266-.142-.514a1 1 0 0 0-.802-.484l-.023-.001-.036-.002-.246-.007-.062 1.999zm.31-.99h-1 1zm-1 0h2-2 2-2zm2 0v.036L2.22 13.95v-.013l-.001.053h2zm0 .03v.008l-1.998-.095v.024l1.998.062zm0 .008v-.016l-1.995-.128a3.29 3.29 0 0 0-.003.05l1.998.094zm.001-.018c.001-.018.003-.049.008-.094l-1.99-.2c-.007.07-.012.132-.014.169l1.996.126zm.008-.095a3.91 3.91 0 0 1 .058-.391l-1.963-.38c-.045.233-.072.44-.085.572l1.99.2zm.058-.392c.071-.373.17-.756.402-1.191l-1.775-.921a6.864 6.864 0 0 0-.59 1.734l1.963.378zm.403-1.193c.4-.776 1.124-1.544 2.725-1.544v-2c-2.485 0-3.826 1.315-4.502 2.627l1.777.917zm3.725-2.544v-.56h-2v.56h2z"/><path id="l" d="M1.678.839A.839.839 0 1 1 0 .839a.839.839 0 0 1 1.678 0z"/><path id="n" d="M1.678 1.398a.28.28 0 0 1-.28.28v1.118c.772 0 1.398-.626 1.398-1.398H1.678zm-.28.28a.28.28 0 0 1-.28-.28H0c0 .772.626 1.398 1.398 1.398V1.678zm-.28-.28a.28.28 0 0 1 .28-.28V0C.626 0 0 .626 0 1.398h1.119zm.28-.28a.28.28 0 0 1 .28.28h1.118C2.796.626 2.17 0 1.398 0v1.119z"/></defs></svg>