<svg width="48" height="44" viewBox="0 0 48 44" version="1.1" xmlns="http://www.w3.org/2000/svg" xmlns:xlink="http://www.w3.org/1999/xlink" xmlns:figma="http://www.figma.com/figma/ns">
<title>Cancel icon</title>
<desc>Created using Figma</desc>
<g id="Canvas" transform="translate(39 -1448)" figma:type="canvas">
<g id="Cancel icon" style="mix-blend-mode:normal;" figma:type="frame">
<g id="Yellow cross" style="mix-blend-mode:normal;" figma:type="frame">
<g id="Line 12" style="mix-blend-mode:normal;" figma:type="line">
<use xlink:href="#path0_stroke" transform="matrix(0.707107 -0.707107 0.707107 0.707107 -20.3537 1465.36)" style="mix-blend-mode:normal;"/>
</g>
<g id="Line 12" style="mix-blend-mode:normal;" figma:type="vector">
<use xlink:href="#path1_stroke" transform="matrix(0.707107 0.707107 -0.707107 0.707107 -20.8233 1455.83)" style="mix-blend-mode:normal;"/>
</g>
</g>
<g id="CANCEL" style="mix-blend-mode:normal;" figma:type="text">
<use xlink:href="#path2_fill" transform="translate(-40 1478)" style="mix-blend-mode:normal;"/>
</g>
<g id="Ellipse 2" style="mix-blend-mode:normal;" figma:type="ellipse">
<mask id="mask0_outline_ins">
<use xlink:href="#path3_fill" fill="white" transform="translate(-29.0233 1448.09)"/>
</mask>
<g mask="url(#mask0_outline_ins)">
<use xlink:href="#path4_stroke_2x" transform="translate(-29.0233 1448.09)" style="mix-blend-mode:normal;"/>
</g>
</g>
</g>
</g>
<defs>
<path id="path0_stroke" d="M 0 0L 12.7279 0L 12.7279 -1.5L 0 -1.5L 0 0Z"/>
<path id="path1_stroke" d="M 0 0.75L 12.7279 0.75L 12.7279 -0.75L 0 -0.75L 0 0.75Z"/>
<path id="path2_fill" d="M 5.77734 4.61523C 6.53516 4.61523 7.28906 4.76367 8.03906 5.06055L 7.73438 5.88672C 6.97656 5.625 6.31445 5.49414 5.74805 5.49414C 5.2793 5.49414 4.84375 5.58789 4.44141 5.77539C 4.04297 5.95898 3.71094 6.20703 3.44531 6.51953C 3.18359 6.82812 2.97852 7.18359 2.83008 7.58594C 2.68164 7.98438 2.60742 8.40234 2.60742 8.83984C 2.60742 9.29297 2.68555 9.72461 2.8418 10.1348C 3.00195 10.541 3.22461 10.8984 3.50977 11.207C 3.79492 11.5117 4.14844 11.7539 4.57031 11.9336C 4.99609 12.1133 5.46094 12.2031 5.96484 12.2031C 6.56641 12.2031 7.19336 12.0859 7.8457 11.8516L 8.15039 12.5898C 7.33398 12.9414 6.52148 13.1172 5.71289 13.1172C 5.21289 13.1172 4.74414 13.0449 4.30664 12.9004C 3.86914 12.7559 3.48633 12.5547 3.1582 12.2969C 2.83398 12.0352 2.55469 11.7266 2.32031 11.3711C 2.08594 11.0156 1.9082 10.625 1.78711 10.1992C 1.66992 9.76953 1.61133 9.31836 1.61133 8.8457C 1.61133 8.04492 1.77734 7.32617 2.10938 6.68945C 2.44531 6.05273 2.93164 5.54883 3.56836 5.17773C 4.20508 4.80273 4.94141 4.61523 5.77734 4.61523ZM 12.2285 4.67383L 13.3594 4.67383L 16.3184 13L 15.3105 13L 14.4668 10.5801L 11.0332 10.5801L 10.1895 13L 9.26953 13L 12.2285 4.67383ZM 12.75 5.64648L 11.332 9.70703L 14.1621 9.70703L 12.75 5.64648ZM 18.3164 4.67383L 19.5762 4.67383L 24.1113 11.6406L 24.1113 4.67383L 25.1074 4.67383L 25.1074 13L 23.8477 13L 19.3125 6.02148L 19.3125 13L 18.3164 13L 18.3164 4.67383ZM 32.1211 4.61523C 32.8789 4.61523 33.6328 4.76367 34.3828 5.06055L 34.0781 5.88672C 33.3203 5.625 32.6582 5.49414 32.0918 5.49414C 31.623 5.49414 31.1875 5.58789 30.7852 5.77539C 30.3867 5.95898 30.0547 6.20703 29.7891 6.51953C 29.5273 6.82812 29.3223 7.18359 29.1738 7.58594C 29.0254 7.98438 28.9512 8.40234 28.9512 8.83984C 28.9512 9.29297 29.0293 9.72461 29.1855 10.1348C 29.3457 10.541 29.5684 10.8984 29.8535 11.207C 30.1387 11.5117 30.4922 11.7539 30.9141 11.9336C 31.3398 12.1133 31.8047 12.2031 32.3086 12.2031C 32.9102 12.2031 33.5371 12.0859 34.1895 11.8516L 34.4941 12.5898C 33.6777 12.9414 32.8652 13.1172 32.0566 13.1172C 31.5566 13.1172 31.0879 13.0449 30.6504 12.9004C 30.2129 12.7559 29.8301 12.5547 29.502 12.2969C 29.1777 12.0352 28.8984 11.7266 28.6641 11.3711C 28.4297 11.0156 28.252 10.625 28.1309 10.1992C 28.0137 9.76953 27.9551 9.31836 27.9551 8.8457C 27.9551 8.04492 28.1211 7.32617 28.4531 6.68945C 28.7891 6.05273 29.2754 5.54883 29.9121 5.17773C 30.5488 4.80273 31.2852 4.61523 32.1211 4.61523ZM 36.5508 13L 36.5508 4.67383L 41.4316 4.67383L 41.4316 5.55273L 37.5469 5.55273L 37.5469 8.27148L 41.1094 8.27148L 41.1094 9.15039L 37.5469 9.15039L 37.5469 12.1211L 41.4316 12.1211L 41.4316 13L 36.5508 13ZM 44.0742 4.67383L 45.0703 4.67383L 45.0703 12.127L 48.8086 12.127L 48.8086 13L 44.0742 13L 44.0742 4.67383Z"/>
<path id="path3_fill" d="M 25 12.5C 25 19.4036 19.4036 25 12.5 25C 5.59644 25 0 19.4036 0 12.5C 0 5.59644 5.59644 0 12.5 0C 19.4036 0 25 5.59644 25 12.5Z"/>
<path id="path4_stroke_2x" d="M 23.5 12.5C 23.5 18.5751 18.5751 23.5 12.5 23.5L 12.5 26.5C 20.232 26.5 26.5 20.232 26.5 12.5L 23.5 12.5ZM 12.5 23.5C 6.42487 23.5 1.5 18.5751 1.5 12.5L -1.5 12.5C -1.5 20.232 4.76801 26.5 12.5 26.5L 12.5 23.5ZM 1.5 12.5C 1.5 6.42487 6.42487 1.5 12.5 1.5L 12.5 -1.5C 4.76801 -1.5 -1.5 4.76801 -1.5 12.5L 1.5 12.5ZM 12.5 1.5C 18.5751 1.5 23.5 6.42487 23.5 12.5L 26.5 12.5C 26.5 4.76801 20.232 -1.5 12.5 -1.5L 12.5 1.5Z"/>
</defs>
</svg>
