<?xml version="1.0" standalone="no"?>
<!DOCTYPE svg PUBLIC "-//W3C//DTD SVG 20010904//EN"
 "http://www.w3.org/TR/2001/REC-SVG-20010904/DTD/svg10.dtd">
<svg version="1.0" xmlns="http://www.w3.org/2000/svg"
 width="260.000000pt" height="260.000000pt" viewBox="0 0 260.000000 260.000000"
 preserveAspectRatio="xMidYMid meet">
<metadata>
Created by potrace 1.11, written by Peter Selinger 2001-2013
</metadata>
<g transform="translate(0.000000,260.000000) scale(0.100000,-0.100000)"
fill="#000000" stroke="none">
<path d="M705 2583 c-317 -67 -558 -277 -658 -573 -35 -102 -42 -154 -41 -295
1 -134 21 -229 75 -346 l31 -66 -20 -39 c-30 -61 -64 -163 -78 -239 -18 -98
-11 -280 16 -375 95 -338 377 -586 725 -636 79 -12 1826 -11 1833 1 3 5 6 589
7 1297 l0 1288 -910 -1 c-765 -1 -921 -3 -980 -16z m155 -463 c0 -209 -3 -380
-7 -381 -5 0 -28 -2 -53 -3 -215 -16 -412 -111 -565 -273 l-60 -63 -21 57
c-41 109 -49 156 -48 278 0 138 22 231 79 344 119 237 373 405 633 418 l42 3
0 -380z m1631 355 c0 -14 1 -178 1 -365 0 -187 -1 -347 -1 -355 -1 -13 -50
-15 -381 -15 l-380 0 -1 48 c-4 248 -158 514 -383 666 l-70 46 607 0 607 0 1
-25z m-1369 -21 c149 -54 258 -133 350 -254 90 -119 151 -277 157 -407 l2 -53
-336 0 -335 0 0 376 0 376 45 -6 c25 -4 78 -18 117 -32z m-262 -1152 l0 -335
-74 6 c-196 17 -405 134 -529 297 l-26 34 37 46 c51 62 59 70 125 124 93 74
234 138 336 152 25 3 48 8 50 10 2 2 21 3 43 2 l38 -1 0 -335z m759 291 c-11
-56 -15 -70 -41 -139 l-19 -52 -77 77 c-42 42 -106 96 -142 119 l-65 42 176 0
176 0 -8 -47z m871 -288 c0 -261 -3 -335 -12 -336 -7 0 -178 -1 -381 -2 l-367
-2 -6 35 c-13 78 -36 155 -69 228 l-34 77 30 63 c32 66 83 248 73 263 -3 5
156 9 380 9 l386 0 0 -335z m-1392 299 c150 -50 292 -150 370 -258 l32 -44
-22 -28 c-43 -58 -114 -127 -172 -166 -99 -68 -189 -105 -328 -133 -17 -3 -18
18 -18 327 l0 330 46 -7 c25 -3 67 -13 92 -21z m511 -547 c10 -39 16 -76 14
-82 -4 -11 -333 -14 -333 -3 0 4 11 13 24 20 44 24 160 121 201 168 l40 47 18
-39 c10 -21 26 -71 36 -111z m-1358 70 c110 -109 206 -169 346 -216 75 -25
101 -30 191 -38 l72 -6 0 -380 0 -379 -67 5 c-316 26 -579 251 -670 572 -21
74 -25 257 -8 336 13 60 52 179 59 179 2 0 37 -33 77 -73z m1379 -299 c0 -142
-85 -345 -196 -466 -76 -83 -178 -156 -274 -195 -59 -24 -84 -31 -172 -51
l-28 -6 0 373 c0 206 2 376 5 379 3 3 154 5 335 5 l330 -1 0 -38z m861 18 c6
-151 2 -729 -5 -734 -8 -5 -1206 -10 -1206 -5 0 1 31 23 69 48 207 139 358
387 377 619 3 39 7 76 9 82 2 7 117 11 379 11 375 0 376 0 377 -21z"/>
</g>
</svg>
