<svg width="32" height="32" viewBox="0 0 32 32" xmlns="http://www.w3.org/2000/svg" xmlns:xlink="http://www.w3.org/1999/xlink" xmlns:figma="http://www.figma.com/figma/ns"><title>gear</title><desc>Created using Figma</desc><g figma:type="canvas"><g figma:type="frame"><g figma:type="vector-operation" transform="translate(.64 1.188)"><use xlink:href="#a" fill="#C4C4C4"/><use xlink:href="#b" fill="#4F4F4F"/></g><use xlink:href="#c" transform="translate(15.64 1.188)" fill="#4F4F4F" figma:type="vector-operation"/></g></g><defs><path id="a" fill-rule="evenodd" d="M12 0h6v4l2.5 1 3-2.5 4 4-2.5 3 1 2.5h4v6h-4l-1 2.5 2.5 3-4 3.5-2.5-2.5-3 1.5v4h-6v-4l-2.5-1.5-3 2.5-4-4L5 20.5 4 18H0v-6h4l1.5-2-3-3.5 4-4L9 5l3-1V0zm3 19a4.5 4.5 0 1 0 0-9 4.5 4.5 0 0 0 0 9z"/><path id="b" d="M18 0h.5a.5.5 0 0 0-.5-.5V0zm-6 0v-.5a.5.5 0 0 0-.5.5h.5zm6 4h-.5a.5.5 0 0 0 .314.464L18 4zm2.5 1l-.186.464a.5.5 0 0 0 .506-.08L20.5 5zm3-2.5l.354-.354a.5.5 0 0 0-.674-.03l.32.384zm4 4l.384.32a.5.5 0 0 0-.03-.674L27.5 6.5zm-2.5 3l-.384-.32a.5.5 0 0 0-.08.506L25 9.5zm1 2.5l-.464.186A.5.5 0 0 0 26 12.5V12zm4 0h.5a.5.5 0 0 0-.5-.5v.5zm0 6v.5a.5.5 0 0 0 .5-.5H30zm-4 0v-.5a.5.5 0 0 0-.464.314L26 18zm-1 2.5l-.464-.186a.5.5 0 0 0 .08.506L25 20.5zm2.5 3l.33.376a.5.5 0 0 0 .054-.696l-.384.32zm-4 3.5l-.354.354a.5.5 0 0 0 .683.022L23.5 27zM21 24.5l.354-.354a.5.5 0 0 0-.578-.093L21 24.5zM18 26l-.224-.447A.5.5 0 0 0 17.5 26h.5zm0 4v.5a.5.5 0 0 0 .5-.5H18zm-6 0h-.5a.5.5 0 0 0 .5.5V30zm0-4h.5a.5.5 0 0 0-.243-.429L12 26zm-2.5-1.5l.257-.429a.5.5 0 0 0-.577.045l.32.384zm-3 2.5l-.354.354a.5.5 0 0 0 .674.03L6.5 27zm-4-4l-.354-.354a.5.5 0 0 0 0 .708L2.5 23zM5 20.5l.354.354a.5.5 0 0 0 .11-.54L5 20.5zM4 18l.464-.186A.5.5 0 0 0 4 17.5v.5zm-4 0h-.5a.5.5 0 0 0 .5.5V18zm0-6v-.5a.5.5 0 0 0-.5.5H0zm4 0v.5a.5.5 0 0 0 .4-.2L4 12zm1.5-2l.4.3a.5.5 0 0 0-.02-.625L5.5 10zm-3-3.5l-.354-.354a.5.5 0 0 0-.026.68L2.5 6.5zm4-4l.354-.354a.5.5 0 0 0-.708 0L6.5 2.5zM9 5l-.354.354a.5.5 0 0 0 .512.12L9 5zm3-1l.158.474A.5.5 0 0 0 12.5 4H12zm6-4.5h-6v1h6v-1zm.5 4.5V0h-1v4h1zm2.186.536l-2.5-1-.372.928 2.5 1 .372-.928zm2.494-2.42l-3 2.5.64.768 3-2.5-.64-.768zm4.674 4.03l-4-4-.708.708 4 4 .708-.708zm-2.47 3.674l2.5-3-.768-.64-2.5 3 .768.64zm1.08 1.994l-1-2.5-.928.372 1 2.5.928-.372zM30 11.5h-4v1h4v-1zm.5 6.5v-6h-1v6h1zm-4.5.5h4v-1h-4v1zm-.536 2.186l1-2.5-.928-.372-1 2.5.928.372zm2.42 2.494l-2.5-3-.768.64 2.5 3 .768-.64zm-4.055 4.196l4-3.5-.658-.752-4 3.5.658.752zm-3.183-2.522l2.5 2.5.708-.708-2.5-2.5-.708.708zm-2.422 1.593l3-1.5-.448-.894-3 1.5.448.894zM18.5 30v-4h-1v4h1zm-6.5.5h6v-1h-6v1zm-.5-4.5v4h1v-4h-1zm-2.257-1.071l2.5 1.5.514-.858-2.5-1.5-.514.858zM6.82 27.384l3-2.5-.64-.768-3 2.5.64.768zm-4.674-4.03l4 4 .708-.708-4-4-.708.708zm2.5-3.208l-2.5 2.5.708.708 2.5-2.5-.708-.708zm-1.11-1.96l1 2.5.928-.372-1-2.5-.928.372zM0 18.5h4v-1H0v1zM-.5 12v6h1v-6h-1zm4.5-.5H0v1h4v-1zm1.1-1.8l-1.5 2 .8.6 1.5-2-.8-.6zM2.12 6.825l3 3.5.76-.65-3-3.5-.76.65zm4.026-4.679l-4 4 .708.708 4-4-.708-.708zm3.208 2.5l-2.5-2.5-.708.708 2.5 2.5.708-.708zm2.488-1.12l-3 1 .316.948 3-1-.316-.948zM11.5 0v4h1V0h-1zM19 14.5a4 4 0 0 1-4 4v1a5 5 0 0 0 5-5h-1zm-4-4a4 4 0 0 1 4 4h1a5 5 0 0 0-5-5v1zm-4 4a4 4 0 0 1 4-4v-1a5 5 0 0 0-5 5h1zm4 4a4 4 0 0 1-4-4h-1a5 5 0 0 0 5 5v-1z"/><path id="c" fill-rule="evenodd" d="M.5 0h3v4L6 5l3-2.5 4 4-2.5 3 1 2.5h4v6h-4l-1 2.5 2.5 3L9 27l-2.5-2.5-3 1.5v4H0l.184-11.052a4.501 4.501 0 0 0 .148-8.871L.5 0z"/></defs></svg>