<svg width="275" height="65" viewBox="0 0 275 65" xmlns="http://www.w3.org/2000/svg" xmlns:xlink="http://www.w3.org/1999/xlink" xmlns:figma="http://www.figma.com/figma/ns"><title>Vector 7</title><desc>Created using Figma</desc><g figma:type="canvas"><g figma:type="vector" transform="translate(2 1)"><use xlink:href="#a" fill="#27AE60"/><use xlink:href="#b"/></g></g><defs><path id="a" d="M2.87 11.165h34.45V0h205.726v11.165H272l-16.507 24.721L272 63h-38.755V52.54H49.52V63H0l20.813-23.127L2.87 11.165z"/><path id="b" d="M2.87 11.165v-.5h-.9l.478.765.424-.265zm17.943 28.708l.371.335.252-.28-.2-.32-.423.265zM0 63l-.372-.334-.75.834H0V63zm49.52 0v.5h.5V63h-.5zm-12.2-10.367h-.5v.231l.175.15.324-.381zM37.32 0v-.5h-.5V0h.5zm205.726 0h.5v-.5h-.5V0zm0 52.54l.365.34.135-.143v-.198h-.5zM233.245 63h-.5v.5h.5V63zM272 63v.5h.89l-.463-.76L272 63zm-16.507-27.114l-.415-.278-.178.266.166.272.427-.26zM272 11.165l.416.277.519-.777H272v.5zM49.52 52.539v-.5h-.004l.004.5zm-12.2-41.874H2.87v1h34.45v-1zm-34.873.765l17.942 28.708.848-.53L3.295 10.9l-.848.53zM20.44 39.538L-.372 62.666l.744.669 20.812-23.127-.743-.67zM0 63.5h49.52v-1H0v1zm49.844-.881L37.643 52.252l-.648.762L49.197 63.38l.648-.762zm-12.025-9.986V11.165h-1v41.468h1zm0-41.468V0h-1v11.165h1zM37.32.5h205.727v-1H37.319v1zm205.362 51.697l-9.801 10.461.73.684 9.801-10.461-.73-.684zM233.245 63.5H272v-1h-38.755v1zm39.182-.76L255.92 35.626l-.854.52 16.507 27.114.854-.52zm-16.518-26.576l16.507-24.722-.832-.555-16.506 24.721.831.556zM242.546 0v11.165h1V0h-1zm0 11.165v41.374h1V11.165h-1zm29.454-.5h-28.954v1H272v-1zm-38.755 42.374h9.801v-1h-9.801v1zm.5 9.961V52.54h-1V63h1zM37.323 53.133l12.2-.094-.007-1-12.2.094.007 1zm12.197-.094h183.725v-1H49.52v1zm.5 9.961V52.54h-1V63h1z"/></defs></svg>