<svg width="46" height="40" viewBox="0 0 46 40" xmlns="http://www.w3.org/2000/svg" xmlns:xlink="http://www.w3.org/1999/xlink" xmlns:figma="http://www.figma.com/figma/ns"><title>home</title><desc>Created using Figma</desc><g figma:type="canvas"><g figma:type="frame"><g figma:type="vector" transform="translate(4 3)"><use xlink:href="#a" fill="#F2C94C"/><use xlink:href="#b" fill="#4F4F4F"/></g><use xlink:href="#c" transform="translate(24 6.5)" fill="#F2994A" figma:type="vector"/><g figma:type="vector" transform="translate(30 2.5)"><use xlink:href="#d" fill="#C4C4C4"/><use xlink:href="#e" fill="#4F4F4F"/></g><use xlink:href="#f" transform="translate(32 3)" fill="#767272" figma:type="vector"/><g figma:type="vector" transform="translate(1 1)"><use xlink:href="#g" fill="#F66767"/><use xlink:href="#h" fill="#4F4F4F"/></g><g figma:type="ellipse" transform="translate(-1647 324)"><use xlink:href="#i" transform="translate(1665 -306.5)" fill="#56CCF2"/><mask id="j"><use xlink:href="#i" fill="#fff" transform="translate(1665 -306.5)"/></mask><g mask="url(#j)"><use xlink:href="#k" transform="translate(1665 -306.5)" fill="#4F4F4F"/></g></g><use xlink:href="#l" transform="translate(19 18.5)" fill="#2D9CDB" figma:type="vector"/><use xlink:href="#m" transform="translate(24 1.727)" fill="#D83535" figma:type="vector"/></g></g><defs><path id="a" d="M5.5 36V20.5H0L20.5 0 39 20.5h-4.5V36h-29z"/><path id="b" d="M5.5 20.5H6a.5.5 0 0 0-.5-.5v.5zm0 15.5H5a.5.5 0 0 0 .5.5V36zm29 0v.5a.5.5 0 0 0 .5-.5h-.5zm0-15.5V20a.5.5 0 0 0-.5.5h.5zm4.5 0v.5a.5.5 0 0 0 .371-.835L39 20.5zM20.5 0l.371-.335a.5.5 0 0 0-.725-.019L20.5 0zM0 20.5l-.354-.354A.5.5 0 0 0 0 21v-.5zm5 0V36h1V20.5H5zm.5 16h29v-1h-29v1zM35 36V20.5h-1V36h1zm-.5-15H39v-1h-4.5v1zm4.871-.835l-18.5-20.5-.742.67 18.5 20.5.742-.67zM20.146-.354l-20.5 20.5.708.708 20.5-20.5-.708-.708zM0 21h5.5v-1H0v1z"/><path id="c" d="M0 32V0l14 13v19H0z"/><path id="d" d="M6 0H0v5.318L6 13V0z"/><path id="e" d="M0 0v-.5h-.5V0H0zm6 0h.5v-.5H6V0zm0 13l-.394.308.894 1.144V13H6zM0 5.318h-.5v.172l.106.136L0 5.318zM0 .5h6v-1H0v1zM5.5 0v13h1V0h-1zm.894 12.692l-6-7.682-.788.616 6 7.682.788-.616zM.5 5.318V0h-1v5.318h1z"/><path id="f" d="M3.5 11.5V0L0 7.5l3.5 4z"/><path id="g" d="M0 22.5L23 0l21.5 22.5h-7L23 7.5l-14.5 15H0z"/><path id="h" d="M23 0l.361-.345a.5.5 0 0 0-.71-.012L23 0zM0 22.5l-.35-.357A.5.5 0 0 0 0 23v-.5zm8.5 0v.5a.5.5 0 0 0 .36-.152L8.5 22.5zM23 7.5l.36-.348a.5.5 0 0 0-.72 0L23 7.5zm14.5 15l-.36.348a.5.5 0 0 0 .36.152v-.5zm7 0v.5a.5.5 0 0 0 .361-.845l-.361.345zM22.65-.357l-23 22.5.7.714 23-22.5-.7-.714zM0 23h8.5v-1H0v1zm8.86-.152l14.5-15-.72-.696-14.5 15 .72.695zm13.78-15l14.5 15 .72-.695-14.5-15-.72.695zM37.5 23h7v-1h-7v1zm7.361-.845l-21.5-22.5-.723.69 21.5 22.5.724-.69z"/><path id="i" d="M12 6A6 6 0 1 1 0 6a6 6 0 0 1 12 0z"/><path id="k" d="M11 6a5 5 0 0 1-5 5v2a7 7 0 0 0 7-7h-2zm-5 5a5 5 0 0 1-5-5h-2a7 7 0 0 0 7 7v-2zM1 6a5 5 0 0 1 5-5v-2a7 7 0 0 0-7 7h2zm5-5a5 5 0 0 1 5 5h2a7 7 0 0 0-7-7v2z"/><path id="l" d="M5 5v5A5 5 0 0 1 5 0v5z"/><path id="m" d="M20.5 21.273L.016 0 0 6.273l14.719 15H20.5z"/></defs></svg>