<svg width="143" height="133" viewBox="0 0 143 133" xmlns="http://www.w3.org/2000/svg" xmlns:xlink="http://www.w3.org/1999/xlink" xmlns:figma="http://www.figma.com/figma/ns"><title>left</title><desc>Created using Figma</desc><g figma:type="canvas"><g figma:type="frame"><g figma:type="vector" transform="scale(1 -1) rotate(56 188.933 58.412)"><use xlink:href="#a" fill="#BDBDBD"/><use xlink:href="#b" fill="#4F4F4F"/></g><g figma:type="vector" transform="translate(46.5 72.5)"><use xlink:href="#c" fill="#828282"/><use xlink:href="#d" fill="#4F4F4F"/></g><g figma:type="vector-operation" transform="scale(1 -1) rotate(56 109.949 16.402)"><use xlink:href="#e" fill="#FF54C8"/><use xlink:href="#f" fill="#4F4F4F"/></g></g></g><defs><path id="a" d="M0 16.5V90h17V0S0 6.5 0 16.5z"/><path id="b" d="M0 90h-1v1h1v-1zM17 0h1v-1.453l-1.357.519L17 0zm0 90v1h1v-1h-1zM0 90h1V16.5h-2v73.499L0 90zm1-73.5c0-2.204.935-4.273 2.44-6.177 1.524-1.935 3.534-3.585 5.62-4.995 2.08-1.408 4.14-2.498 5.717-3.255a44.367 44.367 0 0 1 2.405-1.07l.134-.053.033-.013a.66.66 0 0 0 .008-.003L17 0l-.358-.934-.004.002a14.07 14.07 0 0 0-.202.08c-.127.05-.319.13-.557.23-.471.2-1.157.503-1.968.892-1.611.775-3.8 1.935-5.971 3.402-2.164 1.465-4.404 3.315-6.068 5.41C.19 11.21-1 13.705-1 16.5h2zM16 0v90h2V0h-2zm1 89H0v2h17v-2z"/><path id="c" d="M0 0l94 44.5s-10 8-18 6.5S0 0 0 0z"/><path id="d" d="M94 44.5l.625.78 1.25-.999-1.447-.685L94 44.5zM0 0l.428-.904L-.59.808 0 0zm94.428 43.596l-94-44.5L-.428.904l94 44.5.856-1.808zM0 0c-.589.808-.588.809-.588.81h.003l.009.008a254.032 254.032 0 0 0 .754.548 2509.608 2509.608 0 0 0 9.989 7.205 2332.457 2332.457 0 0 0 24.26 17.187c9.005 6.283 18.27 12.621 25.78 17.48 3.758 2.43 7.094 4.502 9.735 6.009 1.325.755 2.499 1.381 3.457 1.837.947.449 1.78.78 2.417.899l.368-1.966c-.364-.068-.998-.3-1.927-.74-.916-.435-2.024-1.026-3.324-1.768-2.609-1.487-5.898-3.53-9.64-5.95-7.49-4.845-16.724-11.163-25.72-17.441a2330.08 2330.08 0 0 1-24.24-17.173A2504.182 2504.182 0 0 1 .601-.8L.59-.806v-.002L0 0zm75.816 51.983c4.346.815 9.104-.95 12.644-2.782a43.323 43.323 0 0 0 4.417-2.649 38.606 38.606 0 0 0 1.621-1.172l.092-.071.024-.02a.417.417 0 0 0 .007-.006l.003-.001L94 44.5c-.625-.78-.624-.781-.624-.781h-.001l-.004.003a40.388 40.388 0 0 1-5.83 3.702c-3.461 1.792-7.703 3.278-11.357 2.593l-.368 1.966z"/><path id="e" fill-rule="evenodd" d="M50.011 45.5c0 4.5 0 27-22 27.5s-28-13-28-25c0-3.862-.002-9.122-.005-14.564C0 21.97-.006 9.696.012 8c.025-2.5 1.5-8 8-8s9 4 9 8c0 .618-.026 1.248-.05 1.89-.14 3.506-.293 7.359 3.55 11.61 2.86 3.165 6.717 4.087 10.657 5.03 3.416.816 6.896 1.648 9.842 3.97 6.346 5 9 10.5 9 15zM25.511 33c15.5 0 15.5 16 15.5 16s0 15.5-15.5 15.5-16-15.5-16-15.5.5-16 16-16z"/><path id="f" d="M.006 33.436h1-1zM.012 8l1 .01-1-.01zm17 0h1-1zm-.05 1.89l.998.039-.999-.04zm3.55 11.61l-.742.67.742-.67zm10.657 5.03l-.233.972.233-.973zm9.842 3.97l.62-.785-.62.785zM9.511 49l-.999-.031-.001.032.001.031 1-.032zm18.523 25c11.449-.26 17.262-6.3 20.143-12.847C50.99 54.706 51.01 47.75 51.01 45.5h-2c0 2.25.022 8.794-2.665 14.847C43.726 66.3 38.541 71.76 27.99 72l.045 2zM-.988 48c0 6.146 1.534 12.792 6 17.85 4.492 5.086 11.806 8.405 23.022 8.15l-.045-2c-10.784.245-17.47-2.936-21.478-7.474-4.034-4.568-5.5-10.672-5.5-16.526h-2zm-.006-14.563C-.99 38.879-.988 44.138-.988 48h2c0-3.862-.003-9.123-.006-14.564h-2zM-.988 7.99C-1.006 9.69-1 21.97-.994 33.437l2-.001C1 21.968.994 9.7 1.011 8.01l-2-.02zm9-8.99C4.427-1 2.132.54.765 2.488-.563 4.381-.974 6.593-.988 7.99l2 .02c.01-1.103.35-2.891 1.39-4.373C3.404 2.209 5.096 1 8.012 1v-2zm10 9c0-2.2-.69-4.468-2.341-6.192C14.007.072 11.474-1 8.011-1v2c3.038 0 5.005.928 6.216 2.192C15.45 4.468 16.012 6.2 16.012 8h2zm-.052 1.929c.026-.641.051-1.29.052-1.929h-2c0 .599-.025 1.208-.05 1.85l1.998.079zm3.293 10.9c-3.56-3.94-3.43-7.436-3.293-10.9l-1.998-.08c-.14 3.55-.316 7.759 3.808 12.322l1.483-1.341zm10.148 4.728c-3.988-.954-7.527-1.828-10.148-4.727l-1.483 1.34c3.1 3.43 7.274 4.401 11.166 5.332l.465-1.945zm10.23 4.158c-3.13-2.437-6.813-3.341-10.23-4.158l-.465 1.945c3.417.817 6.693 1.576 9.457 3.784l1.237-1.572zM51.01 45.5c0-4.897-2.875-10.66-9.38-15.785l-1.238 1.57C46.578 36.16 49.01 41.398 49.01 45.5h2zm-10 3.5l1-.001v-.061l-.004-.15a15.263 15.263 0 0 0-.028-.544 21.688 21.688 0 0 0-.222-1.903c-.25-1.538-.773-3.679-1.783-5.777C37.9 36.282 33.71 32 25.512 32v2c7.301 0 10.861 3.718 12.662 7.436.928 1.902 1.373 3.761 1.608 5.223.117.719.172 1.299.202 1.723a12.22 12.22 0 0 1 .027.588V49l1-.001zm-15.5 16.5c8.182 0 12.375-4.139 14.457-8.303 1.013-2.038 1.538-4.118 1.788-5.61.126-.76.191-1.412.223-1.85a14.505 14.505 0 0 0 .032-.676V49l-1-.001h-1v-.001.029a11.712 11.712 0 0 1-.027.566c-.03.41-.085.97-.201 1.663-.235 1.414-.678 3.209-1.603 5.046-1.793 3.586-5.35 7.197-12.668 7.197v2zM9.51 49l-.999.033v.006a4.374 4.374 0 0 0 .011.2c.008.12.022.305.046.53.045.438.132 1.09.282 1.848.298 1.492.889 3.568 1.965 5.603 2.208 4.148 6.52 8.28 14.696 8.28v-2c-7.325 0-11.013-3.618-12.93-7.22-.986-1.84-1.489-3.639-1.77-5.053a17.829 17.829 0 0 1-.254-1.664 11.684 11.684 0 0 1-.047-.592v-.004l-1 .033zm16-17c-8.192 0-12.5 4.275-14.7 8.542-1.075 2.095-1.664 4.231-1.961 5.769-.15.78-.236 1.45-.282 1.902a15.477 15.477 0 0 0-.055.736v.017l-.001.002 1 .032.999.032v-.005l.001-.026.007-.117a19.019 19.019 0 0 1 .295-2.194c.28-1.463.786-3.327 1.774-5.232C14.513 37.725 18.204 34 25.512 34v-2z"/></defs></svg>