<svg width="38" height="38" viewBox="0 0 38 38" xmlns="http://www.w3.org/2000/svg" xmlns:xlink="http://www.w3.org/1999/xlink" xmlns:figma="http://www.figma.com/figma/ns"><title>Link</title><desc>Created using Figma</desc><g figma:type="canvas"><g figma:type="frame"><g figma:type="vector" transform="rotate(-135 12.74 16.759)"><use xlink:href="#a" fill="#56CCF2"/><use xlink:href="#b" fill="#4F4F4F"/></g><g figma:type="vector" transform="rotate(45 13.86 33.461)"><use xlink:href="#c" fill="#115ABC"/><use xlink:href="#d" fill="#4F4F4F"/></g></g></g><defs><path id="a" d="M7.7 24.5c-2.1 0-2.1-2.1-2.1-2.1s0-2.1 1.4-2.1 2.8-.7 2.8-2.8c0-2.1.087-10.369 0-11.2-.088-.831-.7-2.1-2.8-2.1-2.1 0-2.8 1.4-2.8 2.8v5.6c0 .957-.7 0-2.8 1.4-1.134.716-1.4 2.1-1.4 2.1V6.3S.7 0 7 0s7 5.6 7 6.3v11.9c0 4.9-4.2 6.3-6.3 6.3z"/><path id="b" d="M0 6.3l-.497-.055-.003.027V6.3H0zm0 9.8h-.5l.991.094L0 16.1zM1.4 14l.267.423.01-.007L1.4 14zm4.2 8.4h-.5v.001a.057.057 0 0 0 0 .004 1.192 1.192 0 0 0 .005.12 3.328 3.328 0 0 0 .31 1.148C5.75 24.344 6.435 25 7.7 25v-1c-.834 0-1.2-.393-1.39-.774a1.874 1.874 0 0 1-.184-.58 1.866 1.866 0 0 1-.026-.248v.001h-.5zM7.7 25c1.14 0 2.822-.375 4.233-1.41 1.435-1.051 2.567-2.773 2.567-5.39h-1c0 2.283-.968 3.711-2.158 4.584C10.128 23.674 8.66 24 7.7 24v1zm6.8-6.8V6.3h-1v11.9h1zm0-11.9c0-.425-.192-2.1-1.218-3.684C12.234.996 10.331-.5 7-.5v1c2.97 0 4.566 1.305 5.443 2.66.9 1.39 1.057 2.865 1.057 3.14h1zM7-.5C3.643-.5 1.746 1.196.71 2.89A9.354 9.354 0 0 0-.45 5.94a6.244 6.244 0 0 0-.047.303v.001L0 6.3a60.377 60.377 0 0 1 .497.056.196.196 0 0 1 .001-.011l.006-.044A7.453 7.453 0 0 1 .69 5.45a7.895 7.895 0 0 1 .875-2.04C2.454 1.955 4.057.5 7 .5v-1zM-.5 6.3v9.8h1V6.3h-1zm5.2 6.3V7h-1v5.6h1zm0-5.6c0-.626.157-1.198.497-1.605C5.522 5.005 6.07 4.7 7 4.7v-1c-1.17 0-2.022.396-2.572 1.055C3.893 5.398 3.7 6.225 3.7 7h1zM7 4.7c.943 0 1.487.281 1.803.594.354.33.465.696.5 1.058l.994-.104a2.987 2.987 0 0 0-.791-1.666C8.97 4.053 8.156 3.7 7 3.7v1zm2.303 1.652c.04.38.04 2.611.03 5.07-.011 2.432-.033 5.026-.033 6.078h1c0-1.048.022-3.639.033-6.074.01-2.408.012-4.727-.036-5.178l-.994.104zM9.3 17.5c0 .93-.304 1.477-.695 1.803-.407.34-.98.497-1.605.497v1c.774 0 1.602-.193 2.245-.729.659-.549 1.055-1.4 1.055-2.571h-1zM7 19.8c-1.032 0-1.503.802-1.7 1.392a4.324 4.324 0 0 0-.2 1.197v.01h.5l.5.001a.856.856 0 0 1 .002-.066 3.419 3.419 0 0 1 .147-.825c.154-.46.383-.708.751-.708v-1zm-7-3.7c.491.094.491.095.49.095v.001a.518.518 0 0 1 .01-.04 3.237 3.237 0 0 1 .226-.622c.192-.404.456-.818.941-1.111l-.534-.846c-.65.423-1.085 1.059-1.31 1.526a4.692 4.692 0 0 0-.295.819 2.613 2.613 0 0 0-.017.074l-.001.006v.002a.023.023 0 0 0 0 .001L0 16.1zm1.677-1.684c.97-.646 1.59-.738 1.973-.786.106-.014.216-.026.314-.045.106-.022.263-.077.374-.146.32-.216.362-.571.362-.84h-1c0 .212-.046.096.077.013.034-.023.05-.02-.005-.008-.058.011-.134.02-.247.034-.492.062-1.272.192-2.402.946l.554.832z"/><path id="c" d="M7.7 25.2c-2.1 0-2.1-2.1-2.1-2.1S5.6 21 7 21s2.8-.7 2.8-2.8c0-2.1.087-11.069 0-11.9-.088-.831-.7-2.1-2.8-2.1-2.1 0-2.8 1.4-2.8 2.8v5.6c0 .957 0 0-2.1 1.4-1.134.716-2.1 2.1-2.1 2.1V6.3C0 4.2 2.8 0 7 0s7 2.931 7 6.3v11.9c0 4.9-4.2 7-6.3 7z"/><path id="d" d="M0 16.1h-.5v1.59l.91-1.304L0 16.1zM2.1 14l.267.423.01-.007L2.1 14zm3.5 9.1h-.5v.001a.057.057 0 0 0 0 .004 1.192 1.192 0 0 0 .005.12 3.328 3.328 0 0 0 .31 1.148c.335.67 1.02 1.327 2.285 1.327v-1c-.834 0-1.2-.393-1.39-.774a1.874 1.874 0 0 1-.184-.58 1.87 1.87 0 0 1-.026-.248v.001h-.5zm2.1 2.6c1.185 0 2.873-.578 4.265-1.785 1.41-1.222 2.535-3.105 2.535-5.715h-1c0 2.29-.976 3.907-2.19 4.96-1.233 1.068-2.695 1.54-3.61 1.54v1zm6.8-7.5V6.3h-1v11.9h1zm0-11.9c0-3.673-3.053-6.8-7.5-6.8v1c3.952 0 6.5 2.735 6.5 5.8h1zM7-.5C4.725-.5 2.85.638 1.56 2.021.284 3.387-.5 5.078-.5 6.3h1c0-.878.615-2.337 1.79-3.596C3.45 1.462 5.076.5 7 .5v-1zM-.5 6.3v9.8h1V6.3h-1zm5.2 6.3V7h-1v5.6h1zm0-5.6c0-.626.157-1.198.497-1.605C5.522 5.005 6.07 4.7 7 4.7v-1c-1.17 0-2.022.396-2.572 1.055C3.893 5.398 3.7 6.225 3.7 7h1zM7 4.7c.943 0 1.487.281 1.803.594.354.33.465.696.5 1.058l.994-.104a2.987 2.987 0 0 0-.791-1.666C8.97 4.053 8.156 3.7 7 3.7v1zm2.303 1.652c.018.176.03.858.034 1.865.004.989.001 2.251-.004 3.555C9.322 14.38 9.3 17.148 9.3 18.2h1c0-1.048.022-3.814.033-6.424.005-1.304.008-2.571.004-3.563-.004-.975-.014-1.725-.04-1.965l-.994.104zM9.3 18.2c0 .93-.304 1.477-.695 1.803-.407.34-.98.497-1.605.497v1c.774 0 1.602-.193 2.245-.729.659-.549 1.055-1.4 1.055-2.571h-1zM7 20.5c-1.032 0-1.503.802-1.7 1.392a4.324 4.324 0 0 0-.2 1.197v.01h.5l.5.001a.856.856 0 0 1 .002-.066 3.419 3.419 0 0 1 .147-.825c.154-.46.383-.708.751-.708v-1zm-7-4.4l.41.286.001-.002.007-.01a5.234 5.234 0 0 1 .147-.197A9.73 9.73 0 0 1 1 15.649c.373-.424.845-.9 1.367-1.226l-.534-.846c-.612.39-1.19.964-1.584 1.411a11.621 11.621 0 0 0-.658.825L0 16.1zm2.377-1.684c.994-.663 1.46-.75 1.664-.793.065-.014.16-.036.24-.067a.94.94 0 0 0 .335-.31.88.88 0 0 0 .079-.338c.005-.084.005-.188.005-.308h-1c0 .12 0 .194-.003.247-.004.06-.009.02.021-.042a.37.37 0 0 1 .18-.173c.016-.006.02-.005-.064.013-.32.067-.905.202-2.011.939l.554.832z"/></defs></svg>