<svg width="37" height="38" viewBox="0 0 37 38" xmlns="http://www.w3.org/2000/svg" xmlns:xlink="http://www.w3.org/1999/xlink" xmlns:figma="http://www.figma.com/figma/ns"><title>log-out</title><desc>Created using Figma</desc><g figma:type="canvas"><g figma:type="frame"><g figma:type="vector" transform="translate(1.5 1.375)"><use xlink:href="#a" fill="#23CA6A"/><use xlink:href="#b" fill="#4F4F4F"/></g><use xlink:href="#c" transform="translate(10.44 28.875)" fill="#219653" figma:type="vector"/><use xlink:href="#d" transform="translate(6.48 4.484)" fill="#219653" figma:type="vector"/><g figma:type="vector" transform="translate(1.25 1.375)"><use xlink:href="#e" fill="#23CA6A"/><use xlink:href="#f" fill="#4F4F4F"/></g><g figma:type="vector" transform="translate(19.38 10.75)"><use xlink:href="#g" fill="#27AE60"/><use xlink:href="#h" fill="#4F4F4F"/></g><use xlink:href="#i" transform="translate(3.48 8.75)" fill="#219653" figma:type="vector"/><use xlink:href="#j" transform="translate(19.89 15.531)" fill="#219653" figma:type="vector"/></g></g><defs><path id="a" d="M23.5 0v11.188h-4V4.125h-18V24.25h18v-4.563h4V28.5H0V0h23.5z"/><path id="b" d="M23.5 11.188v.5a.5.5 0 0 0 .5-.5h-.5zM23.5 0h.5a.5.5 0 0 0-.5-.5V0zM0 0v-.5a.5.5 0 0 0-.5.5H0zm0 28.5h-.5a.5.5 0 0 0 .5.5v-.5zm23.5 0v.5a.5.5 0 0 0 .5-.5h-.5zm0-8.813h.5a.5.5 0 0 0-.5-.5v.5zm-4 0v-.5a.5.5 0 0 0-.5.5h.5zm0 4.563v.5a.5.5 0 0 0 .5-.5h-.5zm-18 0H1a.5.5 0 0 0 .5.5v-.5zm0-20.125v-.5a.5.5 0 0 0-.5.5h.5zm18 0h.5a.5.5 0 0 0-.5-.5v.5zm0 7.063H19a.5.5 0 0 0 .5.5v-.5zm4.5 0V0h-1v11.188h1zM23.5-.5H0v1h23.5v-1zM-.5 0v28.5h1V0h-1zM0 29h23.5v-1H0v1zm24-.5v-8.813h-1V28.5h1zm-.5-9.313h-4v1h4v-1zm-4.5.5v4.563h1v-4.563h-1zm.5 4.063h-18v1h18v-1zm-17.5.5V4.125H1V24.25h1zM1.5 4.625h18v-1h-18v1zm17.5-.5v7.063h1V4.125h-1zm.5 7.563h4v-1h-4v1z"/><path id="c" d="M14.063-.5H0v1h14.063v-1z"/><path id="d" d="M14.836-.5H0v1h14.836v-1z"/><path id="e" d="M12.5 7L0 0v28.375l12.5 7.25V7z"/><path id="f" d="M0 0l.244-.436A.5.5 0 0 0-.5 0H0zm12.5 7h.5a.5.5 0 0 0-.256-.436L12.5 7zm0 28.625l-.25.432a.5.5 0 0 0 .75-.432h-.5zM0 28.375h-.5a.5.5 0 0 0 .25.433l.25-.433zM-.244.436l12.5 7 .488-.872-12.5-7-.488.872zM12 7v28.625h1V7h-1zm.75 28.193l-12.5-7.25-.5.864 12.5 7.25.5-.864zM.5 28.375V0h-1v28.375h1z"/><path id="g" d="M8.125 0v4.25H0v3.625h8.125v4.25L16.625 6l-8.5-6z"/><path id="h" d="M8.125 4.25v.5a.5.5 0 0 0 .5-.5h-.5zm0-4.25l.288-.408A.5.5 0 0 0 7.625 0h.5zm8.5 6l.292.406a.5.5 0 0 0-.004-.814L16.625 6zm-8.5 6.125h-.5a.5.5 0 0 0 .792.406l-.292-.406zm0-4.25h.5a.5.5 0 0 0-.5-.5v.5zM0 7.875h-.5a.5.5 0 0 0 .5.5v-.5zM0 4.25v-.5a.5.5 0 0 0-.5.5H0zm8.625 0V0h-1v4.25h1zM7.837.408l8.5 6 .576-.816-8.5-6-.576.816zm8.496 5.186l-8.5 6.125.584.812 8.5-6.125-.584-.812zm-7.708 6.531v-4.25h-1v4.25h1zm-.5-4.75H0v1h8.125v-1zm-7.625.5V4.25h-1v3.625h1zM0 4.75h8.125v-1H0v1z"/><path id="i" d="M0 21.672L9.734 0v27.375L0 21.672z"/><path id="j" d="M.719 1.844V0H0v2.61s7.652 0 7.77.007c.117.008.321.223.328.403.006.18.011 3.324.011 3.324l1-.703V2.258c0-.164-.273-.414-.492-.418-.219-.004-7.898.004-7.898.004z"/></defs></svg>