<svg width="155" height="197" viewBox="0 0 155 197" xmlns="http://www.w3.org/2000/svg" xmlns:xlink="http://www.w3.org/1999/xlink" xmlns:figma="http://www.figma.com/figma/ns"><title>match</title><desc>Created using Figma</desc><g figma:type="canvas"><g figma:type="frame"><g figma:type="vector" transform="translate(-1919 -2860)"><use xlink:href="#a" transform="translate(1948 2985)" fill="#5EC3AD"/><mask id="b"><use xlink:href="#a" fill="#fff" transform="translate(1948 2985)"/></mask><g mask="url(#b)"><use xlink:href="#c" transform="translate(1948 2985)" fill="#4F4F4F"/></g></g><g figma:type="vector" transform="translate(-1919 -2860)"><use xlink:href="#d" transform="translate(1919.5 2903.5)" fill="#56E1C3"/><mask id="e"><use xlink:href="#d" fill="#fff" transform="translate(1919.5 2903.5)"/></mask><g mask="url(#e)"><use xlink:href="#f" transform="translate(1919.5 2903.5)" fill="#4F4F4F"/></g></g><g figma:type="ellipse" transform="translate(-1919 -2860)"><use xlink:href="#g" transform="translate(1919 2860)" fill="#F0ECCC"/><mask id="h"><use xlink:href="#g" fill="#fff" transform="translate(1919 2860)"/></mask><g mask="url(#h)"><use xlink:href="#i" transform="translate(1919 2860)" fill="#4F4F4F"/></g></g><g figma:type="ellipse" transform="translate(-1919 -2860)"><use xlink:href="#j" transform="translate(1927 2867)" fill="#64BFAC"/><mask id="k"><use xlink:href="#j" fill="#fff" transform="translate(1927 2867)"/></mask><g mask="url(#k)"><use xlink:href="#l" transform="translate(1927 2867)" fill="#4F4F4F"/></g></g><g figma:type="vector" transform="translate(-1919 -2860)"><use xlink:href="#m" transform="translate(1929 2886)" fill="#90AB19"/><mask id="n"><use xlink:href="#m" fill="#fff" transform="translate(1929 2886)"/></mask><g mask="url(#n)"><use xlink:href="#o" transform="translate(1929 2886)" fill="#4F4F4F"/></g></g><use xlink:href="#p" transform="translate(16 36)" fill="#ACD100" figma:type="vector"/><use xlink:href="#q" transform="translate(39 104)" fill="#4F4F4F" figma:type="vector"/><use xlink:href="#q" transform="matrix(-1 0 0 1 115 104)" fill="#4F4F4F" figma:type="vector"/><g figma:type="vector" transform="translate(-1919 -2860)"><use xlink:href="#r" transform="translate(1986 2987)" fill="#ED6363"/><mask id="s"><use xlink:href="#r" fill="#fff" transform="translate(1986 2987)"/></mask><g mask="url(#s)"><use xlink:href="#t" transform="translate(1986 2987)" fill="#4F4F4F"/></g></g><use xlink:href="#u" transform="translate(11.5 26.99)" fill="#5B2C03" figma:type="vector"/></g></g><defs><path id="a" d="M0 0h98v52.364S92.312 72 50.312 72 0 52.364 0 52.364V0z"/><path id="c" d="M0 0v-2h-2v2h2zm98 0h2v-2h-2v2zm0 52.364l1.921.556.079-.273v-.283h-2zm-98 0h-2v.406l.158.373L0 52.363zM0 2h98v-4H0v4zm96-2v52.364h4V0h-4zM2 52.364V0h-4v52.364h4zm96 0c-1.921-.557-1.92-.559-1.92-.56V51.8l.002-.005.002-.004c0-.005-.001.003-.004.011a6.887 6.887 0 0 1-.235.595 13.28 13.28 0 0 1-1.07 1.948c-1.124 1.746-2.907 3.929-6.054 6.225C82.475 65.167 71.001 70 50.312 70v4c21.312 0 33.682-4.985 40.78-10.207 3.525-2.613 5.788-5.34 7.043-7.276a19.23 19.23 0 0 0 1.368-2.5c.137-.313.244-.589.304-.754a9.038 9.038 0 0 0 .1-.299l.009-.026.003-.01a.21.21 0 0 0 0-.004c.002-.002.002-.004-1.919-.56zM50.312 70c-20.68 0-32.852-4.83-39.793-9.48-3.49-2.324-5.616-4.556-6.987-6.318a16.56 16.56 0 0 1-1.36-1.993 8.434 8.434 0 0 1-.335-.637v.002l.002.004.001.003c.001.001.002.003-1.84.783s-1.841.781-1.84.783l.001.004.004.009.01.024a5.452 5.452 0 0 0 .136.287c.08.162.22.43.395.735a22.51 22.51 0 0 0 1.672 2.456c1.5 1.92 4.078 4.597 7.915 7.181C16.01 69.013 28.993 74 50.313 74v-4z"/><path id="d" d="M0 1.5L154 0s-2 103.476-4.5 108.9c-2.5 5.424-20.5 28.6-70 28.6s-69.5-24.162-72-28.6C5 104.462 0 1.5 0 1.5z"/><path id="f" d="M0 1.5l-.02-2-2.078.02.1 2.077L0 1.5zM154 0l2 .039.039-2.059-2.058.02.019 2zM.02 3.5L154.018 2l-.038-4-154 1.5.038 4zM154 0l-2-.038v.018l-.001.056-.004.222-.018.865-.067 3.292c-.06 2.84-.148 6.9-.261 11.792-.227 9.783-.554 22.88-.961 36.148-.406 13.268-.889 26.69-1.428 37.138-.268 5.22-.549 9.671-.841 12.995-.145 1.655-.289 2.99-.436 4.01-.141.989-.374 1.698-.299 1.565l3.632 1.674c.299-.648.482-1.667.626-2.669.157-1.091.313-2.536.461-4.23.296-3.373.582-7.896.852-13.139.54-10.48 1.025-23.943 1.432-37.222a5036.1 5036.1 0 0 0 .961-36.178c.113-4.894.201-8.96.261-11.8l.068-3.295.017-.868.004-.222.001-.056.001-.015V.04L154 0zM9.243 107.918c.06.109.032.096-.046-.21a14.212 14.212 0 0 1-.223-1.089c-.168-.961-.342-2.238-.527-3.839-.374-3.215-.77-7.566-1.18-12.693-.82-10.261-1.677-23.528-2.458-36.67a5149.491 5149.491 0 0 1-1.991-35.864A5676.548 5676.548 0 0 1 2 1.477v-.055l-.001-.014v-.004L0 1.5a287.01 287.01 0 0 0-1.998.098v.004l.001.014.003.056.01.221a2205.022 2205.022 0 0 0 .206 4.14c.142 2.825.347 6.866.601 11.729.508 9.723 1.211 22.74 1.993 35.892.782 13.153 1.642 26.46 2.464 36.752.41 5.15.815 9.571 1.193 12.836.19 1.639.38 3.03.56 4.064.093.528.193 1.018.287 1.389.088.344.22.801.437 1.187l3.486-1.964zm138.441.145c-2.125 4.61-19.342 27.437-68.184 27.437v4c50.158 0 68.941-23.525 71.816-29.763l-3.632-1.674zM79.5 135.5c-48.803 0-68.124-23.795-70.257-27.582l-3.486 1.964C8.624 114.971 29.303 139.5 79.5 139.5v-4z"/><path id="g" d="M155 44.5C155 69.077 120.302 89 77.5 89S0 69.077 0 44.5 34.698 0 77.5 0 155 19.923 155 44.5z"/><path id="i" d="M153 44.5c0 11.266-7.97 21.85-21.695 29.732C117.634 82.082 98.615 87 77.5 87v4c21.686 0 41.418-5.043 55.797-13.3C147.621 69.477 157 57.81 157 44.5h-4zM77.5 87c-21.116 0-40.135-4.919-53.805-12.768C9.97 66.35 2 55.766 2 44.5h-4c0 13.31 9.379 24.976 23.703 33.2C36.083 85.958 55.813 91 77.5 91v-4zM2 44.5c0-11.266 7.97-21.85 21.695-29.732C37.365 6.918 56.385 2 77.5 2v-4C55.814-2 36.082 3.043 21.703 11.3 7.38 19.523-2 31.19-2 44.5h4zM77.5 2c21.116 0 40.134 4.919 53.805 12.768C145.03 22.65 153 33.234 153 44.5h4c0-13.31-9.379-24.976-23.703-33.2C118.918 3.042 99.187-2 77.5-2v4z"/><path id="j" d="M140 37.5C140 58.21 108.66 75 70 75S0 58.21 0 37.5 31.34 0 70 0s70 16.79 70 37.5z"/><path id="l" d="M138 37.5c0 9.262-7.039 18.107-19.447 24.754C106.229 68.856 89.067 73 70 73v4c19.593 0 37.431-4.25 50.442-11.22C133.369 58.853 142 48.948 142 37.5h-4zM70 73c-19.067 0-36.23-4.144-48.553-10.746C9.039 55.607 2 46.761 2 37.5h-4c0 11.449 8.63 21.354 21.558 28.28C32.57 72.75 50.407 77 70 77v-4zM2 37.5c0-9.262 7.04-18.107 19.447-24.754C33.771 6.144 50.933 2 70 2v-4C50.407-2 32.57 2.25 19.558 9.22 6.631 16.147-2 26.052-2 37.5h4zM70 2c19.067 0 36.229 4.144 48.553 10.746C130.961 19.393 138 28.239 138 37.5h4c0-11.449-8.631-21.354-21.558-28.28C107.431 2.25 89.593-2 70-2v4z"/><path id="m" d="M65.985.008C14.607.53 0 25.994 0 25.994S8.052 56.014 69 55.5c60.948-.513 67-29.506 67-29.506S117.363-.515 65.985.008z"/><path id="o" d="M0 25.994l-1.735-.995-.41.716.213.797L0 25.994zM65.985.008l-.02-2 .02 2zM136 25.994l1.958.409.177-.85-.499-.71-1.636 1.15zM69 55.5l-.017-2 .017 2zM0 25.994a149.027 149.027 0 0 1 1.733.999l-.001.002.002-.004a16.022 16.022 0 0 1 .62-.927 29.905 29.905 0 0 1 2.213-2.714c2.114-2.334 5.347-5.357 10.235-8.468 9.735-6.214 25.86-12.617 51.204-12.874l-.041-4C39.93-1.728 23.063 4.863 12.65 11.51c-5.186 3.32-8.817 6.696-11.046 9.152a35.741 35.741 0 0 0-2.502 3.07 21.865 21.865 0 0 0-.769 1.151l-.045.076-.014.024-.005.008-.002.004c-.001.001-.002.003 1.733.998zM66.005 2.008c25.323-.258 42.467 6.142 53.235 12.518 5.404 3.192 9.155 6.342 11.652 8.769a38.632 38.632 0 0 1 2.677 2.85 19.904 19.904 0 0 1 .764.957l.029.04.004.006c.001 0 0 0 0 0l-.001-.002c0-.001-.001-.002 1.635-1.152s1.635-1.152 1.634-1.153l-.002-.003-.005-.008-.017-.022-.053-.074a26.296 26.296 0 0 0-.929-1.167 44.285 44.285 0 0 0-2.949-3.142c-2.604-2.527-6.723-5.972-12.401-9.341C109.883 4.336 92.02-2.257 65.965-1.992l.04 4zM136 25.994c-1.958-.409-1.957-.41-1.957-.412l.001-.003v-.004c.001 0 .001-.002 0 0l-.007.03a10.457 10.457 0 0 1-.299.96c-.266.746-.675 1.73-1.383 2.993-1.456 2.621-3.879 5.957-8.25 9.435-8.687 6.957-24.96 14.253-55.122 14.507l.034 4c30.786-.26 48.013-7.717 57.589-15.385 4.76-3.834 7.66-7.778 9.243-10.61a25.2 25.2 0 0 0 1.655-3.59c.158-.443.274-.824.34-1.059a12.326 12.326 0 0 0 .109-.433l.003-.011.001-.005c0-.003.001-.005-1.957-.413zM68.983 53.5c-30.14.254-46.92-7.04-56.116-14.143-4.627-3.555-7.304-7.01-8.948-9.72a22.062 22.062 0 0 1-1.606-3.119 12.225 12.225 0 0 1-.383-1.05v-.001.005c.001.002.002.004-1.93.522s-1.931.52-1.93.522v.005l.004.01a4.18 4.18 0 0 0 .036.126 17.335 17.335 0 0 0 .507 1.391c.358.864.979 2.173 1.885 3.668 1.77 2.903 4.915 6.92 9.92 10.806C20.489 50.3 38.21 57.76 69.017 57.5l-.034-4z"/><path id="p" d="M59.985.008C8.607.496 0 21.5 0 21.5S10.5 43 59.985 43 124 22.5 124 22.5 111.363-.48 59.985.009z"/><path id="q" d="M.948-1.76A2 2 0 1 0-.948 1.76L.948-1.76zM10 5.384l.838 1.816a2 2 0 0 0 .11-3.577L10 5.384zm-10.838 2.8a2 2 0 1 0 1.676 3.63l-1.676-3.63zm-.11-6.424l10 5.385 1.896-3.522-10-5.385L-.948 1.76zm10.11 1.808l-10 4.615 1.676 3.632 10-4.615-1.676-3.632z"/><path id="r" d="M.518 9.375C1.036 6.25 3.627 0 12.435 0c8.809 0 10.881 5.208 11.917 9.375 1.037 4.167.518 7.292.518 7.292H0S0 12.5.518 9.375z"/><path id="t" d="M24.87 16.667v2h1.696l.277-1.673-1.973-.327zm-24.87 0h-2v2h2v-2zm22.411-6.81c.484 1.915.59 3.495.589 4.726a14.257 14.257 0 0 1-.093 1.684 2.699 2.699 0 0 1-.01.07v.004c0-.001 0-.002 1.974.326a337.928 337.928 0 0 0 1.973.325v-.003l.001-.006.003-.015a4.919 4.919 0 0 0 .026-.186c.014-.106.034-.283.053-.489.035-.386.072-.996.073-1.71a24.696 24.696 0 0 0-.707-5.69l-3.882.965zm2.46 4.81H0v4h24.87v-4zM0 16.667h2v-.04a29.091 29.091 0 0 1 .008-.623c.008-.432.023-1.024.055-1.721.063-1.406.182-3.11.428-4.58l-3.946-.655c-.272 1.655-.412 3.596-.478 5.054A70.054 70.054 0 0 0-2 16.611v.055h2zm2.491-6.965c.228-1.41.785-3.215 2.342-4.826C6.252 3.35 8.563 2 12.435 2v-4C7.5-2 4.111-.224 1.902 2.155-.167 4.45-1.164 7.333-1.455 9.048l3.946.654zM12.435 2c3.975 0 6.132 1.156 7.43 2.51 1.479 1.47 2.048 3.338 2.546 5.348l3.882-.966c-.538-2.157-1.523-4.976-3.541-7.152C20.552-.552 17.268-2 12.435-2v4z"/><path id="u" d="M0 24.507a88.337 88.337 0 0 1 .855.518l.005-.008.026-.04a16.655 16.655 0 0 1 .634-.9 30.225 30.225 0 0 1 2.253-2.64c2.111-2.228 5.387-5.159 10.25-8.14 9.709-5.96 25.653-12.041 50.487-12.29l-.02-2c-25.166.252-41.471 6.42-51.513 12.586-5.012 3.081-8.486 6.181-10.656 8.469a33.144 33.144 0 0 0-2.4 2.812A19.65 19.65 0 0 0-.8 23.901l-.039.062-.011.018a.397.397 0 0 0-.005.008l.855.518zm64.51-23.5c24.823-.248 41.647 5.832 52.241 11.93 5.307 3.05 9.026 6.087 11.468 8.398a37.863 37.863 0 0 1 2.653 2.753c.285.33.488.58.628.757l.148.192.033.045a.04.04 0 0 1 .007.01h.001l.811-.585c.812-.584.811-.585.811-.585l-.002-.002-.004-.006-.013-.018-.046-.062-.175-.226a24.287 24.287 0 0 0-.685-.828 41.178 41.178 0 0 0-2.792-2.897c-2.496-2.361-6.402-5.543-11.845-8.68C106.843 4.926 89.667-1.244 64.49-.993l.02 2z"/></defs></svg>