<svg width="171" height="248" viewBox="0 0 171 248" xmlns="http://www.w3.org/2000/svg" xmlns:xlink="http://www.w3.org/1999/xlink"><title>pickle</title><desc>Created using Figma</desc><use xlink:href="#a" transform="translate(1.1 14.45)" fill="#91E4FF" fill-opacity=".43"/><g transform="translate(63.6 89.95)"><use xlink:href="#b" fill="#219653"/><use xlink:href="#c" fill="#4F4F4F"/></g><g transform="translate(45.42 89.95)"><use xlink:href="#d" fill="#27AE60"/><use xlink:href="#e" fill="#4F4F4F"/></g><use xlink:href="#f" transform="translate(46.39 106.82)" fill="#1AA454"/><use xlink:href="#g" transform="translate(63.6 103.07)" fill="#219653"/><use xlink:href="#h" transform="translate(53.64 110.2)" fill="#219653"/><use xlink:href="#i" transform="translate(74.35 98.57)" fill="#219653"/><g transform="translate(75.14 43.2)"><use xlink:href="#j" fill="#F2994A"/><use xlink:href="#k" fill="#4F4F4F"/></g><use xlink:href="#l" transform="translate(41.1 113.26)" fill="#56CCF2" fill-opacity=".55"/><g transform="translate(38.33 111.05)"><use xlink:href="#m" fill="#828282"/><use xlink:href="#n" fill="#4F4F4F"/></g><use xlink:href="#o" transform="translate(72.2 114.57)" fill="#686464"/><use xlink:href="#p" transform="translate(53.64 120.2)" fill="#4F4F4F"/><use xlink:href="#p" transform="translate(62.39 120.2)" fill="#4F4F4F"/><use xlink:href="#q" transform="translate(1.1 104.7)" fill="#A2ED3B" fill-opacity=".25"/><use xlink:href="#r" transform="translate(1.1 14.45)" fill="#4F4F4F"/><use xlink:href="#s" transform="translate(1.6 104.82)" fill="#4F4F4F"/><g transform="translate(-1978 -3795)"><use xlink:href="#t" transform="translate(1995.04 3795.2)" fill="#828282"/><mask id="u"><use xlink:href="#t" fill="#fff" transform="translate(1995.04 3795.2)"/></mask><g mask="url(#u)"><use xlink:href="#v" transform="translate(1995.04 3795.2)" fill="#4F4F4F"/></g></g><use xlink:href="#w" transform="translate(19.1 17.7)" fill="#BDBDBD"/><use xlink:href="#x" transform="rotate(90 59.075 70.025)" fill="#4F4F4F"/><use xlink:href="#x" transform="rotate(90 15.235 16.185)" fill="#4F4F4F"/><use xlink:href="#x" transform="rotate(90 17.36 18.31)" fill="#4F4F4F"/><use xlink:href="#x" transform="rotate(90 61.7 72.65)" fill="#4F4F4F"/><use xlink:href="#x" transform="rotate(90 64.075 75.025)" fill="#4F4F4F"/><use xlink:href="#y" transform="translate(11.85 47.82)" fill="#FFF" fill-opacity=".66"/><use xlink:href="#z" transform="translate(11.98 126.7)" fill="#FFF" fill-opacity=".66"/><defs><path id="a" d="M9 232.5c-5.25 0-9-6.25-9-10.25s.5-165 .5-181 21.25-17 22.75-18.75 1.5-2.75 1.5-2.75V0h118.5v21.31c0 .69 1.561 2.447 3.785 2.604C152.688 24.312 168 31.75 168 38.5s.25 178.25 0 183.75-6.75 10.25-11.5 10.25H9z"/><path id="b" d="M0 3.179v6.317h6.75V1.102C6.75-.975 0-.023 0 3.179z"/><path id="c" d="M0 9.496h-1v1h1v-1zm6.75 0v1h1v-1h-1zm-5.75 0V3.179h-2v6.317h2zm0-6.317c0-.408.205-.807.68-1.187.519-.428 1.155-.69 1.914-.856C4.338.97 5.02.966 5.46 1.072c.493.119.289.228.289.03h2c0-1.237-1.047-1.788-1.82-1.974-.825-.2-1.831-.155-2.774.057-.929.212-1.98.66-2.727 1.246C-.36 1.064-1 1.986-1 3.179h2zm4.75-2.077v8.394h2V1.102h-2zm1 7.394H0v2h6.75v-2z"/><path id="d" d="M36.172 6.854C31.968 2.35 30.467-.952 19.059.249 7.65 1.449 2.847 11.657 1.346 17.06-.156 22.465-4.66 37.777 19.059 80.408c23.717 42.632 54.04 59.145 61.245 59.745 7.206.6 14.711 2.402 20.115-6.005 5.404-8.406 9.908-21.015-5.103-31.823-15.012-10.809-24.319-9.308-41.431-40.23-17.113-30.923-13.51-50.738-17.713-55.241z"/><path id="e" d="M19.059.249l-.105-.995.105.995zm17.113 6.605l.73-.683-.73.683zm17.713 55.24l.875-.484-.875.485zm41.43 40.231l-.584.811.585-.811zm5.104 31.823l.841.541-.841-.541zm-81.36-53.74l-.874.486.874-.486zM1.346 17.061l-.964-.267.964.267zM19.163 1.243c5.625-.592 8.616-.05 10.684 1.052 2.133 1.135 3.387 2.877 5.593 5.24l1.463-1.364c-1.997-2.139-3.596-4.3-6.116-5.642-2.585-1.375-6.049-1.884-11.833-1.275l.21 1.99zM35.44 7.536c.815.872 1.35 2.64 1.88 5.673.517 2.95.997 6.82 1.884 11.543 1.771 9.418 5.197 22.255 13.806 37.827l1.75-.969c-8.504-15.35-11.834-27.882-13.59-37.228-.877-4.66-1.354-8.52-1.88-11.518-.51-2.915-1.1-5.313-2.387-6.693L35.44 7.536zm17.57 55.043c8.598 15.536 15.284 23.016 21.771 27.968 6.462 4.92 12.554 7.254 19.95 12.589l1.169-1.623c-7.615-5.473-13.683-7.793-19.905-12.555-6.197-4.73-12.72-11.961-21.235-27.348l-1.75.969zm41.721 40.557c7.293 5.251 9.722 10.828 9.792 16.015.071 5.262-2.282 10.314-4.945 14.457l1.682 1.081c2.741-4.264 5.342-9.72 5.263-15.565-.08-5.922-2.904-12.053-10.623-17.611l-1.169 1.623zm4.847 30.472c-2.54 3.951-5.51 5.447-8.691 5.931-3.297.514-6.858-.079-10.5-.383l-.166 1.993c3.564.296 7.358.904 10.967.368 3.724-.567 7.209-2.373 10.072-6.828l-1.682-1.081zm-19.19 5.548c-1.584-.132-4.676-1.189-8.88-3.475-4.189-2.277-9.314-5.675-14.994-10.407-11.396-9.487-24.785-24.134-36.581-45.352l-1.748.972c11.921 21.414 25.552 36.339 37.049 45.917 5.765 4.799 11.054 8.307 15.318 10.627 4.25 2.311 7.65 3.543 9.67 3.711l.165-1.993zM19.932 79.922C8.108 58.667 3.357 44.292 1.73 34.61c-1.619-9.64-.149-14.663.578-17.28l-1.927-.535c-.774 2.786-2.307 8.121-.623 18.146 1.676 9.981 6.533 24.578 18.426 45.954l1.748-.972zM2.309 17.33C3.784 12.018 8.405 2.376 19.163 1.243l-.209-1.989C6.895.524 1.909 11.297.382 16.794l1.927.535z"/><path id="f" d="M78.711 121.875c7.206.6 14.187 2.313 18.375-3.25 4.187-5.563 2.687-3.875 3.25-5.125.562-1.25.75-10.111-30.625-17.125C38.336 89.361 1.336 0 1.336 0c-1.501 5.404-5.968 20.494 17.75 63.125s52.42 58.15 59.625 58.75z"/><path id="g" d="M1.494-.133a1.5 1.5 0 1 0-2.988.266l2.988-.266zM33.75 80.13l1.07-1.051-1.07 1.051zm41.485 35.474a1.5 1.5 0 1 0 2.03-2.208l-2.03 2.208zM0 0c-1.494.133-1.494.134-1.494.135v.002a3.241 3.241 0 0 0 .004.04 27.514 27.514 0 0 0 .056.555c.04.38.105.95.196 1.678.182 1.445.476 3.561.92 6.177a184.347 184.347 0 0 0 4.785 20.744c4.807 16.394 13.41 36.756 28.213 51.85l2.14-2.102C20.372 64.422 12.1 44.719 7.345 28.487a179.956 179.956 0 0 1-4.707-20.4 142.883 142.883 0 0 1-.9-6.05 87.577 87.577 0 0 1-.245-2.17L0 0zm32.68 81.182c6.027 6.13 9.098 11.636 19.135 16.783l1.37-2.67C43.72 90.443 41.27 85.64 34.818 79.08l-2.139 2.103zm19.135 16.783c4.764 2.436 10.573 6.814 15.269 10.638a211.145 211.145 0 0 1 7.542 6.449l.455.412.116.106.029.026.007.007.002.001 1.015-1.104 1.015-1.105-.003-.002a1.064 1.064 0 0 1-.04-.037l-.122-.111-.467-.423a215.782 215.782 0 0 0-7.654-6.545c-4.742-3.861-10.808-8.418-15.795-10.982l-1.369 2.67z"/><path id="h" d="M1.495-.121a1.5 1.5 0 0 0-2.99.242l2.99-.242zm74.176 116.005a1.5 1.5 0 0 0 1.158-2.768l-1.158 2.768zM0 0c-1.495.121-1.495.122-1.495.123a.286.286 0 0 0 0 .01 12.14 12.14 0 0 0 .013.144l.041.431c.037.373.096.93.18 1.643.168 1.415.443 3.488.863 6.052a176.1 176.1 0 0 0 4.614 20.36c4.683 16.113 13.16 36.194 27.964 51.289l2.14-2.104C19.873 63.293 11.726 43.874 7.097 27.925A171.717 171.717 0 0 1 2.562 7.918a135.452 135.452 0 0 1-.843-5.92 82.723 82.723 0 0 1-.224-2.119L0 0zm32.18 80.052c14.681 14.929 25.526 23.884 32.657 29.068 3.59 2.607 6.29 4.299 8.06 5.317.899.517 1.59.879 2.037 1.101.231.115.415.201.53.254l.144.065.042.018.013.005a.015.015 0 0 0 .005.002l.002.001c0 .001.001.001.58-1.383s.58-1.384.58-1.383h.001l.001.001-.002-.001-.019-.008a16.322 16.322 0 0 1-.542-.257 35.727 35.727 0 0 1-1.877-1.016c-1.722-.989-4.287-2.595-7.791-5.143-7.057-5.129-17.712-13.924-32.281-28.745l-2.14 2.104z"/><path id="i" d="M1.486-.207a1.5 1.5 0 0 0-2.972.414l2.972-.414zm18.301 61.58l-1.223.867 1.223-.867zm49.13 47.5a1.5 1.5 0 1 0 1.665-2.496l-1.664 2.496zM0 0l-1.486.207V.21l.002.007.003.024a45.304 45.304 0 0 0 .066.452c.046.312.116.776.21 1.369A229.5 229.5 0 0 0-.353 7.08a267.028 267.028 0 0 0 3.54 16.563c3.203 12.89 8.202 28.475 15.378 38.597l2.447-1.735C14.187 50.878 9.292 35.776 6.1 22.919A262.622 262.622 0 0 1 2.6 6.545c-.379-2.094-.657-3.78-.841-4.952A142.034 142.034 0 0 1 1.49-.179l-.003-.022-.001-.004v-.001L0 0zm18.564 62.24c2.87 4.048 6.368 9.622 10.292 14.96 3.909 5.315 8.33 10.519 13.062 13.673l1.664-2.496c-4.269-2.846-8.434-7.685-12.31-12.955-3.86-5.247-7.343-10.8-10.26-14.916l-2.448 1.734zm51.186 45.385l.832-1.248v-.001l-.003-.001-.01-.007-.039-.026a19.407 19.407 0 0 0-.152-.101l-.587-.391-2.162-1.442-7.172-4.781-16.875-11.25-1.664 2.496 16.875 11.25 7.172 4.781 2.162 1.442.587.391a9.79 9.79 0 0 0 .19.127l.01.007.003.002.833-1.248z"/><path id="j" d="M15.425 0H8.01L5.933 72.084H0V79.5h11.272L15.425 0z"/><path id="k" d="M8.01 0v-1h-.972l-.028.971 1 .029zm7.415 0l.999.052L16.479-1h-1.054v1zm-4.153 79.5v1h.95l.049-.948-.999-.052zM0 79.5h-1v1h1v-1zm0-7.416v-1h-1v1h1zm5.933 0v1h.971l.028-.971-1-.029zM8.009 1h7.416v-2H8.01v2zm6.418-1.052l-4.153 79.5 1.997.104 4.153-79.5-1.997-.104zM11.272 78.5H0v2h11.272v-2zM1 79.5v-7.416h-2V79.5h2zm-1-6.416h5.933v-2H0v2zm6.932-.971L9.01.029l-2-.058-2.076 72.084 2 .058z"/><path id="l" d="M0 0h31.875v22.313H0V0z"/><path id="m" fill-rule="evenodd" d="M40.922 3.823c2.313 1.671 4.563 3.297 6.193 3.297 3.18 0 5.949 0 6.508.03.56.029.998.511 1.235.888.205.326 1.287 2.972 1.692 3.963l.136.331c.176.427-.059 1.062-.763 1.12-2.184.183-6.893.627-8.808 1.206-1.48.447-2.819 2.504-4.111 4.489-.92 1.411-1.815 2.786-2.72 3.52-2.18 1.767-6.95 5.065-10.248 5.183-2.87.102-21.072.027-26.223.005l-1.34-.005C1.768 27.85 0 26.676 0 24.846V4.056C0 .995 1.413.289 2.356.289c.129 0 .76-.012 1.761-.032C10.414.135 31.377-.27 34.63.288c1.837.315 4.093 1.946 6.292 3.535zm-36.8 17.844V5.824s-.176-1.53 1.12-1.53h26.09s1.178.235 1.178 1.53v15.843s-.295 1.001-1.59 1.001H5.712s-1.59.177-1.59-1.001z"/><path id="n" d="M40.922 3.823l.585-.811-.585.81zm12.701 3.326l-.053.999.053-.999zm1.235.89l-.846.531.846-.532zm1.692 3.963l-.925.378.925-.379zm.136.33l-.926.379.002.003.923-.382zm-.763 1.12l-.083-.996.083.997zm-8.808 1.206l.29.957-.29-.957zm-4.111 4.489l-.838-.546.838.546zm-2.72 3.52l-.63-.776.63.777zM30.036 27.85l.036 1-.036-1zm-26.223.005l.005-1-.005 1zm-1.34-.005l.004-1h-.003v1zM4.118.256l.02 1-.02-1zM34.63.288l-.17.985.17-.985zM4.123 5.824h1v-.057l-.007-.057-.993.114zm27.209-1.53l.196-.981-.097-.02h-.1v1zm1.178 17.373l.959.282.04-.138v-.144h-1zM5.713 22.668v-1h-.056l-.055.006.11.994zM47.115 6.12c-.53 0-1.302-.283-2.337-.886-1.014-.59-2.114-1.386-3.27-2.222l-1.172 1.621c1.157.836 2.338 1.688 3.435 2.329 1.076.627 2.244 1.158 3.344 1.158v-2zm6.56.03c-.585-.03-3.38-.03-6.56-.03v2c3.18 0 5.922 0 6.455.028l.106-1.997zm2.03 1.356c-.268-.427-.948-1.298-2.03-1.355l-.105 1.997c.002 0 .054.004.158.09.104.084.206.208.284.332l1.693-1.064zm1.77 4.117a226.57 226.57 0 0 0-.924-2.24 72.115 72.115 0 0 0-.484-1.131 7.157 7.157 0 0 0-.362-.746l-1.693 1.065c-.02-.029.093.19.225.488.134.304.298.688.47 1.098.345.822.715 1.727.918 2.223l1.85-.757zm.136.33l-.135-.33-1.851.758.135.33 1.851-.758zm-1.605 2.497a1.825 1.825 0 0 0 1.604-2.5l-1.849.764a.23.23 0 0 1-.019-.103.173.173 0 0 1 .023-.075.202.202 0 0 1 .066-.07c.028-.017.038-.012.009-.01l.165 1.994zm-8.601 1.165c.89-.271 2.46-.512 4.134-.716 1.675-.204 3.379-.359 4.467-.45l-.166-1.993c-1.096.092-2.838.25-4.543.458-1.705.208-3.446.48-4.471.787l.579 1.914zm-3.563 4.077c.646-.992 1.27-1.954 1.916-2.726.655-.787 1.201-1.216 1.647-1.35l-.58-1.915c-1.034.313-1.897 1.135-2.604 1.985-.718.864-1.409 1.922-2.055 2.915l1.676 1.091zm-2.929 3.752c1.057-.857 2.046-2.397 2.929-3.752l-1.676-1.091c-.956 1.468-1.758 2.678-2.512 3.29l1.26 1.553zM30.072 28.85c1.903-.068 4.098-1.028 6-2.101a37.494 37.494 0 0 0 4.841-3.304l-1.26-1.553a34.491 34.491 0 0 1-4.565 3.115c-1.854 1.047-3.693 1.795-5.088 1.845l.072 1.998zm-26.263.006c5.15.022 23.373.097 26.263-.006L30 26.851c-2.849.102-21.032.026-26.182.005l-.009 2zm-1.34-.005l1.34.005.008-2-1.34-.005-.007 2zM-1 24.846c0 1.253.606 2.247 1.27 2.901a4.98 4.98 0 0 0 1.055.777c.33.173.74.326 1.149.326v-2c.133-.024-.399-.112-.8-.528-.396-.39-.674-.899-.674-1.476h-2zm0-20.79v20.79h2V4.056h-2zM2.356-.711A2.976 2.976 0 0 0 .06.38C-.615 1.18-1 2.385-1 4.057h2c0-1.391.322-2.071.59-2.389.254-.302.546-.38.766-.38v-2zm1.742-.031c-1.002.019-1.623.03-1.742.03v2c.139 0 .779-.012 1.78-.03l-.038-2zm30.701.045c-.906-.155-2.915-.234-5.408-.272a409.507 409.507 0 0 0-8.883-.013c-6.44.047-13.262.179-16.41.24l.038 2c3.149-.062 9.958-.193 16.387-.24 3.213-.024 6.324-.026 8.837.013 2.549.039 4.38.12 5.1.243l.34-1.97zm6.708 3.71c-1.1-.794-2.247-1.623-3.35-2.29-1.098-.663-2.25-1.23-3.358-1.42l-.338 1.971c.73.126 1.622.533 2.662 1.16 1.034.624 2.114 1.406 3.213 2.2l1.171-1.621zM3.123 5.824v15.843h2V5.824h-2zm2.119-2.53c-.537 0-1.01.164-1.377.483a2.66 2.66 0 0 0-.625.988 3.54 3.54 0 0 0-.124.795 3.718 3.718 0 0 0 .011.361l.001.01a.706.706 0 0 1 .001.006v.001l.994-.114.993-.113v.004l.001.004v.001l-.001-.016a.841.841 0 0 1-.001-.093c.002-.109.003-.165.037-.258.028-.107.058-.072.023-.065-.036.048-.063-.014.067.005v-2zm26.09 0H5.242v2h26.09v-2zm2.178 2.53c0-1.008-.482-1.67-.99-2.051-.23-.166-.5-.3-.646-.356a3.053 3.053 0 0 0-.326-.1l-.011-.002-.005-.001h-.002l-.001-.001-.197.98-.198.98h-.006a1.003 1.003 0 0 1-.013-.004h-.001c.018.005.02.005.044.015.074.028.098.034.163.089.081.061.188.164.188.451h2zm0 15.843V5.824h-2v15.843h2zm-2.59 2.001c.941 0 1.597-.378 2.009-.815.183-.202.338-.446.405-.576a2.763 2.763 0 0 0 .128-.307l.004-.011.002-.005v-.003c0-.001 0-.002-.959-.284l-.959-.283v-.001l.001-.002.002-.004.002-.007.003-.011.004-.01c.004-.012-.001.005-.01.02-.028.058-.027.065-.08.113-.06.064-.199.186-.553.186v2zm-25.207 0h25.206v-2H5.713v2zm-2.59-2.001c0 .546.195 1.014.54 1.36.291.267.726.475 1.004.55.286.07.605.098.785.1a4.106 4.106 0 0 0 .355-.013l.01-.001a.037.037 0 0 1 .005 0l-.11-.995-.109-.994h.006c.001 0 .001 0 0 0a.991.991 0 0 1-.44-.032c-.12-.028-.099-.06-.09-.029.038.018.02.13.044.054h-2z"/><path id="o" d="M12.938 4.594c-2.22 0-4.532-2.407-8.094-4.594L0 22.063c2.906-1.594 4.531-2.47 6.125-4.094 1.406-.938 4.25-7.344 7.156-7.875 1.915-.58 5.567-.974 7.75-1.156.705-.06.677-.136.5-.563-.176-.427-1.294-3.029-1.531-3.406-.237-.377-.253-.346-.813-.375-.559-.03-3.07 0-6.25 0z"/><path id="p" d="M1 0a1 1 0 1 0-2 0h2zm-2 4a1 1 0 0 0 2 0h-2zm0-4v4h2V0h-2z"/><path id="q" d="M168 0H0v133c0 2.125 2.875 8.75 8.5 9s145.875.5 150.5 0 9-9 9-9V0z"/><path id="r" d="M143.25 0h1v-1h-1v1zM24.75 0v-1h-1v1h1zm122.285 23.914l.071-.997-.071.997zM-1 222.25c0 2.264 1.04 5.036 2.74 7.236C3.444 231.692 5.956 233.5 9 233.5v-2c-2.206 0-4.194-1.317-5.677-3.236C1.835 226.339 1 223.986 1 222.25h-2zM9 233.5h147.5v-2H9v2zm147.5 0c2.67 0 5.701-1.314 8.078-3.294 2.378-1.982 4.279-4.784 4.421-7.911l-1.998-.09c-.108 2.373-1.582 4.696-3.704 6.464-2.123 1.77-4.717 2.831-6.797 2.831v2zm12.499-11.205c.251-5.523.001-177.046.001-183.795h-2c0 6.75.25 178.228.001 183.705l1.998.09zM144.25 21.31V.001l-1-.001h-1v21.31h2zm-1-22.31H24.75v2h118.5v-2zM23.75 0v19.75h2V0h-2zm1 19.75c-1 0-1 0-1-.002v-.033l.002-.013c0-.015-.001.013-.007.042a1.62 1.62 0 0 1-.111.353c-.164.415-.457.96-1.143 1.752l1.518 1.302c.814-.958 1.27-1.788 1.482-2.31.115-.294.187-.565.217-.717a2.982 2.982 0 0 0 .04-.315l.002-.033v-.025l-1-.001zm-2.26 2.1c.058-.068.06-.035-.154.062a6.9 6.9 0 0 1-.792.285c-.7.22-1.634.459-2.74.755-2.21.592-5.083 1.405-7.901 2.667C5.251 28.156-.5 32.67-.5 41.25h2c0-7.42 4.874-11.406 10.222-13.806 2.682-1.207 5.403-1.972 7.6-2.56 1.096-.294 2.069-.544 2.818-.777.38-.12.742-.249 1.018-.372.263-.119.607-.299.851-.584l-1.518-1.302zM-.5 41.25c0 15.998-.5 176.998-.5 181h2c0-3.998.5-164.998.5-181h-2zM169 38.5c0-2.059-1.156-4.024-2.746-5.748-1.588-1.717-3.788-3.378-6.098-4.782-4.592-2.788-9.994-4.838-13.05-5.053l-.141 1.995c2.596.183 7.676 2.05 12.153 4.768 2.226 1.35 4.206 2.838 5.666 4.427C166.241 35.688 167 37.184 167 38.5h2zm-21.894-15.583c-.917-.045-1.584-.398-2.165-.88a2.657 2.657 0 0 1-.587-.616c-.148-.216-.104-.247-.104-.11h-2c0 .48.24.928.454 1.24.223.32.584.715.972 1.036.756.609 1.981 1.213 3.289 1.325l.141-1.995z"/><path id="s" d="M0 1h167.5v-2H0v2z"/><path id="t" d="M0 3a3 3 0 0 1 3-3h130.567a3 3 0 0 1 3 3v19.5a3 3 0 0 1-3 3H3a3 3 0 0 1-3-3V3z"/><path id="v" d="M3 2h130.567v-4H3v4zm131.567 1v19.5h4V3h-4zm-1 20.5H3v4h130.567v-4zM2 22.5V3h-4v19.5h4zM3-2a5 5 0 0 0-5 5h4a1 1 0 0 1 1-1v-4zm130.567 4a1 1 0 0 1 1 1h4a5 5 0 0 0-5-5v4zm1 20.5a1 1 0 0 1-1 1v4a5 5 0 0 0 5-5h-4zM3 23.5a1 1 0 0 1-1-1h-4a5 5 0 0 0 5 5v-4z"/><path id="w" d="M0 2a2 2 0 0 1 2-2h128.625a2 2 0 0 1 2 2v1.875a2 2 0 0 1-2 2H2a2 2 0 0 1-2-2V2z"/><path id="x" d="M1-2a1 1 0 0 0 0 2v-2zm11.5 2a1 1 0 1 0 0-2v2zM1 0h11.5v-2H1v2z"/><path id="y" d="M16.125 3a3 3 0 1 0 0-6v6zM-3 61.875a3 3 0 1 0 6 0h-6zM16.125-3c-1.081.001-5.726.3-10.016 2.127C1.679 1.067-3 5.017-3 12.375h6c0-4.14 2.384-6.38 5.516-7.752C11.788 3.137 15.206 3 16.125 3v-6zM-3 12.375v49.5h6v-49.5h-6z"/><path id="z" d="M3 0a3 3 0 0 0-6 0h6zm-6 79.5a3 3 0 1 0 6 0h-6zM-3 0v79.499l3 .001h3V0h-6z"/></defs></svg>