<svg width="24" height="24" viewBox="0 0 24 24" xmlns="http://www.w3.org/2000/svg" xmlns:xlink="http://www.w3.org/1999/xlink" xmlns:figma="http://www.figma.com/figma/ns"><title>pop-up</title><desc>Created using Figma</desc><g figma:type="canvas"><g figma:type="frame"><g figma:type="rounded-rectangle" transform="translate(-1410 -518)"><use xlink:href="#a" transform="translate(1410 526)" fill="#EB5757"/><mask id="b"><use xlink:href="#a" fill="#fff" transform="translate(1410 526)"/></mask><g mask="url(#b)"><use xlink:href="#c" transform="translate(1410 526)" fill="#4F4F4F"/></g></g><g figma:type="rounded-rectangle" transform="translate(-1410 -518)"><use xlink:href="#d" transform="translate(1419 518)" fill="#F2994A"/><mask id="e"><use xlink:href="#d" fill="#fff" transform="translate(1419 518)"/></mask><g mask="url(#e)"><use xlink:href="#f" transform="translate(1419 518)" fill="#4F4F4F"/></g></g><use xlink:href="#g" transform="translate(17 3.5)" fill="#4F4F4F" figma:type="vector"/><use xlink:href="#h" transform="translate(17 3.5)" fill="#4F4F4F" figma:type="vector"/></g></g><defs><path id="a" d="M0 0h16v16H0V0z"/><path id="c" d="M0 0v-1h-1v1h1zm16 0h1v-1h-1v1zm0 16v1h1v-1h-1zM0 16h-1v1h1v-1zM0 1h16v-2H0v2zm15-1v16h2V0h-2zm1 15H0v2h16v-2zM1 16V0h-2v16h2z"/><path id="d" d="M0 0h15v15H0V0z"/><path id="f" d="M0 0v-1h-1v1h1zm15 0h1v-1h-1v1zm0 15v1h1v-1h-1zM0 15h-1v1h1v-1zM0 1h15v-2H0v2zm14-1v15h2V0h-2zm1 14H0v2h15v-2zM1 15V0h-2v15h2z"/><path id="g" d="M3.5 0H4v-.5h-.5V0zM0 .5h3.5v-1H0v1zM3 0v3.5h1V0H3z"/><path id="h" d="M3.146-.354l-3.5 3.5.708.708 3.5-3.5-.708-.708z"/></defs></svg>