<svg width="88" height="36" viewBox="0 0 88 36" xmlns="http://www.w3.org/2000/svg" xmlns:xlink="http://www.w3.org/1999/xlink" xmlns:figma="http://www.figma.com/figma/ns"><title>Vector 8</title><desc>Created using Figma</desc><g figma:type="canvas"><g figma:type="vector" transform="rotate(90 43 44)"><use xlink:href="#a" fill="#EB5757"/><use xlink:href="#b"/></g></g><defs><path id="a" d="M34 86H0V14.692L9.609 0H24.39L34 14.692V86z"/><path id="b" d="M0 86h-.5v.5H0V86zm34 0v.5h.5V86H34zm0-71.308h.5v-.15l-.082-.124-.418.274zM24.391 0l.419-.274-.148-.226h-.27V0zM9.61 0v-.5h-.27l-.149.226L9.61 0zM0 14.692l-.418-.274-.082.125v.149H0zM0 86.5h34v-1H0v1zm34.5-.5V14.692h-1V86h1zm-.082-71.582L24.81-.274l-.837.548 9.609 14.691.836-.547zM24.391-.5H9.61v1h14.78v-1zm-15.2.226L-.42 14.418l.837.547L10.028.274 9.19-.274zM-.5 14.692V86h1V14.692h-1z"/></defs></svg>