<svg width="270" height="65" viewBox="0 0 270 65" xmlns="http://www.w3.org/2000/svg" xmlns:xlink="http://www.w3.org/1999/xlink" xmlns:figma="http://www.figma.com/figma/ns"><title>Vector 7</title><desc>Created using Figma</desc><g figma:type="canvas"><g figma:type="vector" transform="translate(2 1)"><use xlink:href="#a" fill="#EB5757"/><use xlink:href="#b"/></g></g><defs><path id="a" d="M2.818 11.165h33.815V0h201.945v11.165H267l-16.203 24.721L267 63h-38.042V52.54H48.609V63H0l20.43-23.127L2.818 11.165z"/><path id="b" d="M2.818 11.165v-.5h-.893l.467.761.426-.261zM20.43 39.873l.375.331.245-.277-.194-.315-.426.261zM0 63l-.375-.331-.734.831H0V63zm48.61 0v.5h.5V63h-.5zM36.632 52.633h-.5v.228l.173.15.327-.378zm0-52.633v-.5h-.5V0h.5zm201.945 0h.5v-.5h-.5V0zm0 52.54l.368.338.132-.144v-.195h-.5zM228.958 63h-.5v.5h.5V63zM267 63v.5h.881l-.452-.757L267 63zm-16.203-27.114l-.418-.274-.172.262.161.269.429-.257zM267 11.165l.418.274.508-.774H267v.5zM48.61 52.539v-.5h-.004l.003.5zM36.632 10.665H2.818v1h33.815v-1zm-34.241.761l17.612 28.709.852-.523L3.244 10.903l-.852.523zm17.663 28.116L-.375 62.67l.75.662 20.43-23.127-.75-.662zM0 63.5h48.61v-1H0v1zm48.937-.878L36.96 52.255l-.655.756 11.976 10.367.655-.756zm-11.804-9.99V11.166h-1v41.468h1zm0-41.467V0h-1v11.165h1zM36.633.5h201.945v-1H36.633v1zM238.21 52.2l-9.62 10.461.736.678 9.62-10.461-.736-.677zm-9.252 11.3H267v-1h-38.042v1zm38.471-.757L251.226 35.63l-.858.513 16.203 27.114.858-.514zM251.215 36.16l16.203-24.721-.836-.549-16.203 24.722.836.548zM238.078 0v11.165h1V0h-1zm0 11.165v41.374h1V11.165h-1zm28.922-.5h-28.422v1H267v-1zm-38.042 42.374h9.62v-1h-9.62v1zm.5 9.961V52.54h-1V63h1zm-192.82-9.867l11.975-.094-.007-1-11.977.094.008 1zm11.971-.094h180.349v-1H48.609v1zm.5 9.961V52.54h-1V63h1z"/></defs></svg>