<svg width="116" height="34" viewBox="0 0 116 34" xmlns="http://www.w3.org/2000/svg" xmlns:xlink="http://www.w3.org/1999/xlink" xmlns:figma="http://www.figma.com/figma/ns"><title>yellowSearch</title><desc>Created using Figma</desc><g figma:type="canvas"><g figma:type="vector" transform="translate(1 1)"><use xlink:href="#a" fill="#FFF046"/><use xlink:href="#b"/></g></g><defs><path id="a" d="M98 0H0v32h98l15.5-16.5L98 0z"/><path id="b" d="M0 0v-.5h-.5V0H0zm98 0l.354-.354-.147-.146H98V0zm15.5 15.5l.364.342.332-.353-.342-.343-.354.354zM98 32v.5h.216l.148-.158L98 32zM0 32h-.5v.5H0V32zM0 .5h98v-1H0v1zM97.646.354l15.5 15.5.708-.708-15.5-15.5-.708.708zm15.49 14.804l-15.5 16.5.728.684 15.5-16.5-.728-.684zM98 31.5H0v1h98v-1zM.5 32V0h-1v32h1z"/></defs></svg>