<svg width="149" height="242" viewBox="0 0 149 242" xmlns="http://www.w3.org/2000/svg" xmlns:xlink="http://www.w3.org/1999/xlink" xmlns:figma="http://www.figma.com/figma/ns"><title>banana</title><desc>Created using Figma</desc><g figma:type="canvas"><g figma:type="frame"><g figma:type="vector" transform="translate(8.34 80.33)"><use xlink:href="#a" fill="#FDD35C"/><use xlink:href="#b" fill="#4F4F4F"/></g><g figma:type="vector" transform="translate(4.84 66.44)"><use xlink:href="#c" fill="#D5B200"/><use xlink:href="#d" fill="#4F4F4F"/></g><g figma:type="vector" transform="translate(105.84 73.33)"><use xlink:href="#e" fill="#CDAD18"/><use xlink:href="#f" fill="#4F4F4F"/></g><g figma:type="vector" transform="translate(72.84 56.83)"><use xlink:href="#g" fill="#E2C00B"/><use xlink:href="#h" fill="#4F4F4F"/></g><g figma:type="vector" transform="translate(42.75 1)"><use xlink:href="#i" fill="#FFF0D3"/><use xlink:href="#j" fill="#4F4F4F"/></g><g figma:type="vector" transform="translate(47.84 106.83)"><use xlink:href="#k" fill="#FFF000"/><use xlink:href="#l" fill="#4F4F4F"/></g><g figma:type="vector" transform="translate(1 91.46)"><use xlink:href="#m" fill="#F3CC00"/><use xlink:href="#n" fill="#4F4F4F"/></g><g figma:type="vector" transform="translate(74.56 108.83)"><use xlink:href="#o" fill="#FFE600"/><use xlink:href="#p" fill="#4F4F4F"/></g><g figma:type="vector" transform="translate(75.34 98.27)"><use xlink:href="#q" fill="#FFD600"/><use xlink:href="#r" fill="#4F4F4F"/></g><use xlink:href="#s" transform="translate(52.84 87.33)" fill="#4F4F4F" figma:type="ellipse"/><use xlink:href="#s" transform="translate(77.84 81.33)" fill="#4F4F4F" figma:type="ellipse"/><use xlink:href="#t" transform="translate(59.84 90.33)" fill="#4F4F4F" figma:type="vector"/></g></g><defs><path id="a" d="M21 8.5c2.5-1.5 4.5 0 4.5 0l4-8.5H17L5 7l-5 9.5v24L5 44l12-15.5s1.5-18.5 4-20z"/><path id="b" d="M25.5 8.5l-.6.8.982.737.523-1.111L25.5 8.5zm-8.5 20l.79.612.183-.235.024-.296L17 28.5zM5 44l-.573.82.78.546.584-.754L5 44zm-5-3.5h-1v.52l.427.3L0 40.5zm0-24l-.885-.466-.115.219v.247h1zM5 7l-.504-.864-.247.145-.134.253L5 7zm12-7v-1h-.27l-.234.136L17 0zm12.5 0l.905.426.67-1.426H29.5v1zm-4 8.5l.6-.8-.002-.001-.002-.002-.004-.003-.012-.009a3.207 3.207 0 0 0-.132-.089 4.84 4.84 0 0 0-.34-.195 5.63 5.63 0 0 0-1.196-.438c-1.025-.237-2.422-.223-3.927.68l1.03 1.714c.995-.597 1.848-.583 2.448-.445.32.07.532.164.726.265a1.92 1.92 0 0 1 .22.129l-.004-.002a.09.09 0 0 0-.004-.003S24.9 9.3 25.5 8.5zm-5.015-.857c-.61.365-1.01 1.094-1.293 1.75-.3.699-.588 1.62-.841 2.62-.501 1.983-.933 4.488-1.278 6.908a181.625 181.625 0 0 0-1.052 9.286l-.013.157a6.184 6.184 0 0 0-.003.04l-.001.011v.003L17 28.5l.997.08v-.012a132.317 132.317 0 0 1 .27-2.88c.18-1.753.444-4.093.785-6.484.342-2.392.754-4.793 1.238-6.7.239-.947.478-1.717.739-2.318a3.59 3.59 0 0 1 .34-.652c.1-.152.191-.193.146-.177l-1.03-1.714zM16.21 27.888l-12 15.5 1.582 1.224 12-15.5-1.582-1.224zM5.573 43.18l-5-3.5-1.146 1.638 5 3.5 1.146-1.638zM1 40.5v-24h-2v24h2zM.885 16.966l5-9.5-1.77-.932-5 9.5 1.77.932zm4.619-9.102l12-7-1.008-1.728-12 7 1.008 1.728zM17 1h12.5v-2H17v2zM28.595-.426l-4 8.5 1.81.852 4-8.5-1.81-.852z"/><path id="c" d="M27.5.889c4.5-2 10.5 0 10.5 0h16.5l4 28.5-24.5 4s-3.5-11.5-6.5-14-7-2.5-11 0-10 5.5-11.5 10-1.5 29.5-1.5 29.5H0v-21.5s0-8 3.5-13.5 6.5-7.5 11-13.5 8.5-7.5 13-9.5z"/><path id="d" d="M38 .889l-.316.949.154.05H38v-1zm-10.5 0l.406.914L27.5.889zm-27.5 58h-1v1h1v-1zm3.5 0v1h1v-1h-1zm30.5-25.5l-.957.291.255.837.863-.141-.161-.987zm24.5-4l.161.987.965-.158-.136-.968-.99.139zm-4-28.5l.99-.14-.12-.86h-.87v1zm-16.5 0a171.998 171.998 0 0 0 .315-.95h-.002a.603.603 0 0 1-.022-.007 8.847 8.847 0 0 0-.276-.085 19.2 19.2 0 0 0-.783-.21c-.65-.16-1.6-.36-2.674-.49-2.133-.26-4.971-.28-7.464.828l.812 1.828c2.007-.892 4.419-.913 6.411-.671a20.203 20.203 0 0 1 3.135.634 9.572 9.572 0 0 1 .231.071h.002L38 .89zM27.094-.025C22.585 1.98 18.368 3.565 13.7 9.79l1.6 1.2c4.332-5.776 8.115-7.19 12.606-9.186l-.812-1.828zM13.7 9.79c-4.387 5.873-7.415 7.9-11.044 13.563l1.688 1.074c3.37-5.338 6.343-7.31 10.956-13.437l-1.6-1.2zM2.656 23.352C.833 26.24-.104 29.808-.55 32.541a37 37 0 0 0-.393 3.447 29.341 29.341 0 0 0-.057 1.4h1l1 .001v-.003a4.291 4.291 0 0 1 0-.074l.006-.248a34.07 34.07 0 0 1 .418-4.202c.43-2.642 1.243-5.824 2.92-8.436l-1.688-1.074zM-1 37.389v21.5h2v-21.5h-2zm1 22.5h3.5v-2H0v2zm3.5-1h1v-.018a43.284 43.284 0 0 1 0-.262l.003-.799a520.444 520.444 0 0 1 .184-11.956c.094-3.4.233-6.926.443-9.887.214-3.008.491-5.28.819-6.262l-1.898-.632c-.422 1.267-.707 3.809-.916 6.753-.212 2.992-.353 6.56-.447 9.973A523.453 523.453 0 0 0 2.5 58.87v.018h1zm2.449-29.184c.65-1.95 2.317-3.672 4.46-5.263 2.131-1.587 4.597-2.94 6.621-4.205l-1.06-1.696c-1.976 1.235-4.51 2.631-6.754 4.295-2.232 1.658-4.315 3.687-5.165 6.237l1.898.632zm11.081-9.468c3.733-2.333 7.244-2.235 9.83-.08l1.28-1.536c-3.414-2.845-7.903-2.747-12.17-.08l1.06 1.696zm9.83-.08c.586.488 1.29 1.519 2.036 2.939.732 1.395 1.429 3.017 2.048 4.596a90.317 90.317 0 0 1 2.09 5.958l.007.023.002.006v.001l.957-.29.957-.292-.001-.002-.002-.007-.008-.026-.031-.1a91.042 91.042 0 0 0-.56-1.728 93.55 93.55 0 0 0-1.549-4.273c-.631-1.608-1.372-3.33-2.14-4.794-.754-1.44-1.612-2.785-2.526-3.546l-1.28 1.536zm7.301 14.219l24.5-4-.322-1.974-24.5 4 .322 1.974zm25.33-5.126l-4-28.5-1.981.278 4 28.5 1.98-.278zM54.5-.111H38v2h16.5v-2z"/><path id="e" d="M41.5 52.5c2-3-20-44.5-20-44.5l-9-8L0 3s3.5 13 6 17 29 32.5 29 32.5 4.5 3 6.5 0z"/><path id="f" d="M21.5 8l.884-.468-.085-.16-.135-.12L21.5 8zM35 52.5l-.732.68.08.087.097.065L35 52.5zM0 3l-.233-.972-1 .24.267.992L0 3zm12.5-3l.664-.747-.39-.347-.507.122L12.5 0zm9 8c-.884.468-.884.469-.883.469v.001l.003.006.012.022.047.089.183.346.694 1.32c.597 1.14 1.447 2.77 2.461 4.737a762.567 762.567 0 0 1 7.334 14.574c2.622 5.368 5.171 10.808 6.944 15.099.883 2.14 1.56 3.955 1.959 5.34.197.682.313 1.198.357 1.612.05.465-.036.47.057.33l1.664 1.11c.343-.514.319-1.186.267-1.658-.059-.523-.21-1.207-.423-1.948-.422-1.458-1.136-3.377-2.033-5.55-1.79-4.333-4.366-9.83-6.994-15.213a766.504 766.504 0 0 0-7.354-14.613A851.72 851.72 0 0 0 22.631 8l-.184-.348-.047-.09-.012-.023-.003-.005-.001-.002L21.5 8zm19.168 43.945c-.632.948-1.663 1.054-2.905.715a7.773 7.773 0 0 1-1.57-.626 8.446 8.446 0 0 1-.634-.364l-.005-.003L35 52.5l-.554.832.002.002.005.003.014.01a10.132 10.132 0 0 0 .216.133 10.693 10.693 0 0 0 2.554 1.11c1.508.411 3.727.517 5.095-1.535l-1.664-1.11zM35 52.5l.732-.681v-.001l-.004-.004-.015-.016-.056-.06-.222-.24-.845-.91a2083.704 2083.704 0 0 1-12.413-13.511c-3.467-3.81-7.008-7.741-9.84-10.97-2.862-3.266-4.918-5.723-5.489-6.637l-1.696 1.06c.679 1.086 2.873 3.691 5.682 6.895 2.84 3.24 6.393 7.184 9.864 10.998a2022.216 2022.216 0 0 0 13.27 14.436l.223.24.057.061.015.016a.202.202 0 0 1 .003.004h.001L35 52.5zM6.848 19.47c-1.17-1.872-2.635-5.991-3.832-9.772a187.791 187.791 0 0 1-2.048-6.95l-.002-.006V2.74L0 3l-.966.26.001.003.002.007a31.965 31.965 0 0 0 .038.14l.117.423a190.738 190.738 0 0 0 1.918 6.469c1.177 3.72 2.712 8.1 4.042 10.228l1.696-1.06zM.233 3.972l12.5-3-.466-1.944-12.5 3 .466 1.944zM11.836.747l9 8 1.328-1.494-9-8L11.836.747z"/><path id="g" d="M38 24.5C33.5 28 26.5 42 26.5 42L6 48 0 2s15.5-2 20-2 10 9.5 13.5 12 7.5 0 12 1.5 9 11 9 11-12-3.5-16.5 0z"/><path id="h" d="M26.5 42l.28.96.42-.123.194-.39L26.5 42zm28-17.5l-.28.96 2.136.623-.952-2.011-.904.428zM0 2l-.128-.992-.993.128.13.993L0 2zm6 46l-.992.13.152 1.158 1.12-.328L6 48zm20.5-6l.894.447.001-.002.004-.007.014-.029a50.02 50.02 0 0 1 .286-.56 140.992 140.992 0 0 1 3.726-6.78c1.15-1.957 2.422-3.998 3.693-5.777 1.28-1.791 2.492-3.222 3.496-4.003l-1.228-1.578c-1.246.969-2.597 2.6-3.895 4.419-1.307 1.83-2.628 3.946-3.79 5.926a143.95 143.95 0 0 0-4.013 7.334l-.061.12-.016.032-.004.008-.001.002.894.448zm12.114-16.71c.906-.705 2.276-1.114 3.956-1.27 1.682-.16 3.497-.055 5.246.16a45.1 45.1 0 0 1 4.516.803 43.194 43.194 0 0 1 1.86.469l.022.006.005.002h.001l.28-.96.28-.96h-.001l-.003-.001-.008-.002a7.23 7.23 0 0 1-.136-.039 46.218 46.218 0 0 0-1.855-.465 47.995 47.995 0 0 0-4.718-.838c-1.813-.222-3.843-.335-5.675-.167-1.837.171-3.654.637-4.998 1.683l1.228 1.578zM54.5 24.5a204.314 204.314 0 0 0 .903-.43v-.001a.105.105 0 0 1-.004-.006l-.01-.023a44.642 44.642 0 0 0-.781-1.522 47.449 47.449 0 0 0-2.085-3.505c-.86-1.305-1.9-2.705-2.996-3.853-1.097-1.146-2.358-2.158-3.71-2.609l-.633 1.898c.897.299 1.886 1.037 2.898 2.094 1.013 1.055 1.942 2.311 2.77 3.57a44.476 44.476 0 0 1 2.697 4.718l.037.075.008.018.002.003v.001l.904-.428zm-8.684-11.949c-2.464-.796-4.78-.547-6.753-.424-1.988.124-3.54.089-4.982-.94l-1.162 1.627c2.059 1.47 4.256 1.435 6.268 1.31 2.028-.128 3.96-.38 5.997.325l.632-1.898zm-11.735-1.365c-.798-.564-1.714-1.544-2.779-2.771-1.068-1.23-2.227-2.655-3.428-4.015-1.201-1.36-2.488-2.691-3.747-3.668C22.868-.24 21.46-1 20-1v2c.79 0 1.757.428 2.904 1.315 1.147.883 2.299 2.082 3.472 3.41 1.174 1.328 2.327 2.746 3.416 4 1.091 1.258 2.175 2.403 3.127 3.089l1.162-1.628zM20-1c-2.3.001-7.356.506-11.8 1.006a584.123 584.123 0 0 0-8.283.996l-.033.005h-.009l-.002.001L0 2l.128.992h.003l.008-.002.033-.004a164.105 164.105 0 0 1 .628-.08 560.105 560.105 0 0 1 7.624-.912C12.856 1.494 17.8.999 20 1v-2zM-.992 2.13l6 46 1.984-.26-6-46-1.984.26zm7.273 46.83l20.5-6-.562-1.92-20.5 6 .562 1.92z"/><path id="i" d="M45.594 15.333c0-6-4.5-11-9.5-14s-13.5 0-13.5 0-4 3-9.5 10.5-5 8.876-8.5 18.5c-3.5 9.625-5 42-4.5 49s3 21 3 21l3.5 26h41v-25s-5-45.5-5-52.5c0-3.373.155-15 1.5-19.5s1.5-10.891 1.5-14z"/><path id="j" d="M36.094 1.333l.514-.857-.514.857zm11.5 100h1v-.054l-.006-.055-.994.109zm0 25v1h1v-1h-1zm-41 0l-.991.134.116.866h.875v-1zm-3.5-26l.99-.133-.002-.021-.004-.021-.984.175zm-3-21l.997-.07-.997.07zm4.5-49l-.94-.341.94.341zm8.5-18.5l.806.592-.806-.592zm9.5-10.5L22.26.39l-.145.051-.122.092.6.8zm12.985.858c4.873 2.923 9.015 7.657 9.015 13.142h2c0-6.515-4.858-11.78-9.986-14.857L35.58 2.19zm6.015 46.642c0 3.566 1.258 16.763 2.505 28.977a3350.783 3350.783 0 0 0 2.286 21.663l.159 1.456.041.383.011.097.003.025v.008l.995-.109.994-.109v-.002l-.001-.006-.003-.025-.01-.097-.042-.382a3454.374 3454.374 0 0 1-2.443-23.105c-1.254-12.286-2.495-25.34-2.495-28.774h-2zm5 52.5v25h2v-25h-2zm1 24h-41v2h41v-2zm-40.01.867l-3.5-26-1.981.267 3.5 26 1.982-.267zm-4.49-25.867l.984-.176v-.002l-.002-.007a3.07 3.07 0 0 0-.005-.03l-.02-.118c-.02-.104-.046-.257-.08-.454a445.16 445.16 0 0 1-1.201-7.243c-.687-4.368-1.432-9.576-1.679-13.04l-1.995.142C-.65 82.94.105 88.232.793 92.614a448.294 448.294 0 0 0 1.309 7.854l.005.031.002.007v.003l.985-.176zM1.09 79.263c-.244-3.422 0-13.202.75-23.372.753-10.204 1.999-20.558 3.693-25.216l-1.88-.684C1.848 34.959.594 45.605-.153 55.745c-.75 10.174-1.006 20.082-.75 23.66l1.994-.142zm4.443-48.588C7.297 25.824 8.042 23.09 9.02 20.66c.974-2.425 2.163-4.535 4.88-8.235l-1.614-1.183c-2.784 3.8-4.095 6.127-5.12 8.671-1.021 2.54-1.776 5.305-3.513 10.078l1.88.684zm8.366-18.25c2.719-3.71 5.043-6.277 6.713-7.947a36.172 36.172 0 0 1 1.924-1.802 18.35 18.35 0 0 1 .657-.543l-.6-.8-.6-.8-.001.001-.002.001-.004.003a7.5 7.5 0 0 0-.012.01l-.041.031-.15.119c-.124.1-.316.258-.555.465-.47.406-1.169 1.04-2.03 1.9-1.705 1.706-4.13 4.388-6.912 8.179l1.613 1.183zm8.694-11.092l.332.943h.003l.015-.006a9.658 9.658 0 0 1 .325-.106 27.018 27.018 0 0 1 4.335-.965c2.7-.368 5.782-.324 7.975.992L36.61.476c-2.807-1.684-6.476-1.64-9.275-1.258-1.42.194-2.7.489-3.593.728a26.62 26.62 0 0 0-1.448.433l-.022.008-.007.002h-.002V.39l.332.943zm22 14c0 3.117-.16 9.371-1.458 13.714l1.916.573c1.392-4.658 1.542-11.187 1.542-14.287h-2zm-1.458 13.714c-.712 2.382-1.09 6.531-1.295 10.406a190.46 190.46 0 0 0-.247 9.38h2c0-1.681.038-5.405.244-9.274.208-3.908.58-7.821 1.214-9.94l-1.916-.572z"/><path id="k" d="M4.5 40c3.5 14 .656 5.667 9.656 35.167s48.657 66.666 52.5 57C70.5 122.5 42 73.5 42 73.5l1.5-35L26 7.5 8 0 0 10.5S1 26 4.5 40z"/><path id="l" d="M8 0l.385-.923-.713-.297-.467.614L8 0zm18 7.5l.87-.492-.168-.299-.317-.132L26 7.5zm17.5 31l1 .043.011-.286-.14-.249-.871.492zm-1.5 35l-1-.043-.012.293.148.253L42 73.5zm-42-63l-.795-.606-.227.297.024.373L0 10.5zm15.113 64.375C6.123 45.407 8.976 53.78 5.47 39.758l-1.94.484c3.494 13.977.66 5.684 9.67 35.217l1.913-.584zM7.615.923l18 7.5.77-1.846-18-7.5-.77 1.846zM25.13 7.992l17.5 31 1.742-.984-17.5-31-1.742.984zm17.372 30.465l-1.5 35 1.998.086 1.5-35-1.998-.086zm-37.03 1.3C3.73 32.803 2.615 25.49 1.93 19.88c-.343-2.801-.576-5.16-.724-6.827a150.714 150.714 0 0 1-.209-2.614v-.002L0 10.5l-.998.065v.012a29.514 29.514 0 0 0 .013.17 153.864 153.864 0 0 0 .2 2.482c.149 1.677.385 4.068.73 6.892.69 5.64 1.825 13.076 3.585 20.122l1.94-.486zM.794 11.107l8-10.5-1.59-1.212-8 10.5 1.59 1.212zM42 73.5l-.864.503v.002l.005.006.015.026.06.105a225.147 225.147 0 0 1 1.132 1.976c.77 1.357 1.865 3.303 3.169 5.672 2.61 4.74 6.041 11.147 9.356 17.861 3.315 6.715 6.494 13.694 8.61 19.608 1.057 2.95 1.833 5.578 2.234 7.79.406 2.235.38 3.817.01 4.748l1.859.739c.59-1.486.515-3.549.098-5.844-.422-2.318-1.242-5.104-2.317-8.107-2.146-5.992-5.372-13.076-8.7-19.82-3.33-6.743-6.783-13.19-9.398-17.94a492.921 492.921 0 0 0-4.083-7.271 218.013 218.013 0 0 0-.3-.52l-.016-.027-.004-.007-.001-.002L42 73.5zm23.727 58.297c-.16.401-.38.622-.642.752-.282.141-.704.221-1.318.159-1.252-.127-3-.812-5.163-2.083-4.33-2.542-9.826-7.12-15.55-12.97-11.469-11.72-23.508-28.25-27.941-42.78l-1.913.584c4.567 14.97 16.856 31.773 28.425 43.595 5.797 5.921 11.498 10.665 15.966 13.295 2.236 1.315 4.286 2.178 5.974 2.349.856.086 1.69.002 2.414-.36.746-.372 1.285-.994 1.607-1.802l-1.859-.739z"/><path id="m" d="M41.343 1.875c4 2.5 32.5 21.5 32.5 21.5l-9-3s-4.5-1.5-9.5 0-11 9.5-14 14.5-5.5 16-8 25.5 0 28.5 0 28.5-1.843 18.667-7.5 22.167c-5.656 3.5-13-22.167-13-22.167s-10.5-18-12-23.5-.999-34 1.5-38.5c2.5-4.5 5-8 8-11.5s10.5-11 15.5-13.5 11.5-2.5 15.5 0z"/><path id="n" d="M73.843 23.375l-.316.949.871-1.781-.555.832zm-32.5-21.5l.53-.848-.53.848zm-15.5 0l-.447-.894.447.894zm-23.5 25l-.873-.486.874.486zm10.5 62l.962-.275-.035-.12-.063-.109-.864.504zm20.5 0l.995.098.012-.114-.015-.114-.992.13zm0-28.5l.967.255-.967-.255zm31.5-40l.317-.949-.317.949zm9 3l.555-.832h-.001l-.004-.003-.016-.01-.06-.042-.24-.16a3211.976 3211.976 0 0 0-4.195-2.793c-2.735-1.82-6.423-4.274-10.235-6.806C52.02 7.666 43.884 2.284 41.873 1.027l-1.06 1.696c1.99 1.243 10.103 6.61 17.727 11.673a10211.568 10211.568 0 0 1 13.517 8.99l.91.607.24.16.061.04.016.01a.072.072 0 0 1 .003.003h.001l.555-.831zM41.873 1.027C37.52-1.694 30.64-1.641 25.396.981l.895 1.788C31.046.391 37.167.444 40.813 2.723l1.06-1.696zM25.396.981c-2.632 1.316-5.843 3.897-8.727 6.53-2.9 2.65-5.567 5.443-7.085 7.213l1.519 1.302c1.482-1.73 4.065-4.436 6.915-7.038 2.866-2.616 5.905-5.035 8.273-6.219L25.396.981zM9.584 14.724C6.556 18.258 3.998 21.841 1.47 26.39l1.748.972c2.47-4.452 4.913-7.87 7.885-11.335l-1.519-1.302zM1.47 26.39c-.392.706-.697 1.773-.95 3.006-.255 1.25-.48 2.798-.67 4.51-.378 3.416-.63 7.612-.756 11.815-.125 4.203-.125 8.454 0 11.987.125 3.5.375 6.427.785 7.931l1.93-.526c-.34-1.246-.59-3.944-.716-7.476-.124-3.498-.124-7.684 0-11.856.125-4.172.372-8.289.745-11.654.185-1.679.397-3.137.642-4.33.247-1.208.505-2.016.738-2.435L1.47 26.39zM-.121 65.64c.787 2.887 3.858 8.879 6.648 14.025a398.282 398.282 0 0 0 5.333 9.51l.089.152a8.345 8.345 0 0 1 .03.053l.864-.504.864-.504-.002-.003-.005-.01a13.434 13.434 0 0 0-.022-.038l-.088-.15a287.573 287.573 0 0 1-1.541-2.688 395.692 395.692 0 0 1-3.764-6.771c-2.835-5.229-5.764-10.987-6.477-13.6l-1.93.527zm33.464 23.236l.992-.13v-.003l-.002-.01-.005-.04-.02-.157c-.017-.14-.043-.346-.074-.612a158.045 158.045 0 0 1-.83-9.788c-.312-5.94-.3-12.923.906-17.505l-1.934-.51c-1.294 4.918-1.281 12.185-.969 18.12a161.05 161.05 0 0 0 .84 9.917 92.405 92.405 0 0 0 .097.79l.006.043.001.011v.004l.992-.13zm.967-28.245c1.253-4.76 2.5-9.873 3.807-14.416 1.314-4.568 2.66-8.45 4.084-10.825l-1.715-1.029c-1.575 2.626-2.98 6.744-4.291 11.301-1.318 4.582-2.571 9.718-3.819 14.46l1.934.508zm7.89-25.24c1.484-2.473 3.68-5.647 6.14-8.413 2.488-2.798 5.079-4.98 7.29-5.644l-.574-1.916c-2.788.837-5.697 3.404-8.21 6.231-2.539 2.86-4.843 6.185-6.36 8.713L42.2 35.39zm13.43-14.057c2.359-.719 4.535-.71 6.232-.526.832.088 1.49.218 1.972.33a10.922 10.922 0 0 1 .695.187s-.001 0 0 0h-.001l.315-.949a128.079 128.079 0 0 0 .315-.95h-.002l-.004-.001a1.03 1.03 0 0 0-.064-.02 13.804 13.804 0 0 0-.798-.213 18.842 18.842 0 0 0-2.215-.373c-1.803-.192-4.377-.182-7.019.6l.575 1.915zm8.897-.01l9 3 .633-1.897-9-3-.633 1.898zM12.843 88.876c-.961.275-.961.275-.96.276v.005l.005.014.016.057a61.458 61.458 0 0 0 .31 1.036c.212.698.525 1.698.916 2.881.78 2.362 1.889 5.5 3.172 8.518 1.284 3.019 2.794 6.012 4.333 8.005.778 1.004 1.64 1.858 2.582 2.324 1.002.494 2.107.548 3.152-.099l-1.052-1.701c-.369.228-.73.246-1.213.007-.543-.268-1.182-.845-1.888-1.756-1.428-1.835-2.815-4.602-4.074-7.563-1.26-2.96-2.34-6.02-3.113-8.362a129.072 129.072 0 0 1-1.204-3.847l-.015-.053-.004-.013-.001-.003V88.6l-.962.275zm13.526 23.017c1.69-1.045 2.966-3.115 3.95-5.394.993-2.302 1.78-5.051 2.37-7.63a88.38 88.38 0 0 0 1.268-6.878 87.427 87.427 0 0 0 .358-2.797l.018-.162.004-.042a.61.61 0 0 1 .001-.014v-.001l-.995-.099-.995-.098v.002l-.001.009-.004.038a51.904 51.904 0 0 1-.083.74 84.912 84.912 0 0 1-.283 2.137 85.46 85.46 0 0 1-1.237 6.72c-.578 2.526-1.312 5.1-2.256 7.282-.953 2.205-2.028 3.781-3.167 4.486l1.052 1.701z"/><path id="o" d="M7.782 48.167c2 5.5 4.843 14.166 7.5 22.833 2.656 8.667 8.156 46.167 20 58.167 11.843 12 4-28.5 4-28.5l-4-29.667 4-9-6-25-12-32.5L7.782 0l-7.5 6.5s-1.52 13.541 2.5 25.5 3 10.667 5 16.167z"/><path id="p" d="M2.782 32l-.948.319.948-.319zM.282 6.5l-.655-.756L-.668 6l-.044.388.994.112zm21-2l.938-.346-.166-.45-.456-.153-.316.949zm12 32.5l.972-.233-.014-.058-.02-.055-.938.346zm6 25l.914.406.137-.31-.079-.33-.972.234zm-4 9l-.914-.406-.115.259.038.28.99-.133zM7.782 0l.316-.949-.54-.18-.431.373.655.756zm31.5 100.667l-.991.133.004.029.005.028.982-.19zm-23.044-29.96c-2.66-8.676-5.511-17.367-7.516-22.882l-1.88.683c1.995 5.485 4.83 14.128 7.484 22.785l1.912-.586zM8.722 47.825c-.982-2.693-1.215-3.703-1.717-5.578-.5-1.866-1.258-4.562-3.275-10.566l-1.896.638c2.002 5.955 2.743 8.592 3.239 10.445.494 1.843.75 2.938 1.769 5.744l1.88-.683zM3.73 31.681c-1.98-5.87-2.585-12.097-2.706-16.94a74.092 74.092 0 0 1 .082-5.884 54.324 54.324 0 0 1 .166-2.212l.003-.027v-.006L.282 6.5l-.994-.111a2.95 2.95 0 0 0-.005.045 19.67 19.67 0 0 0-.055.586c-.034.398-.079.99-.12 1.728a77.021 77.021 0 0 0-.083 6.043c.124 4.916.77 11.44 2.809 17.528l1.896-.638zM20.344 4.846l12 32.5 1.876-.692-12-32.5-1.876.692zm11.965 32.387l6 25 1.945-.466-6-25-1.945.466zm6.059 24.36l-4 9 1.828.813 4-9-1.828-.812zM.937 7.257l7.5-6.5-1.31-1.512-7.5 6.5 1.31 1.512zM7.465.949l13.5 4.5.633-1.898-13.5-4.5L7.465.95zm28.528 127.515c-2.825-2.863-5.33-7.316-7.536-12.614-2.206-5.294-4.066-11.314-5.654-17.274-1.589-5.96-2.89-11.812-3.964-16.732-1.074-4.919-1.925-8.928-2.601-11.137l-1.912.586c.652 2.124 1.484 6.053 2.559 10.978 1.074 4.923 2.386 10.82 3.985 16.82 1.6 5.998 3.5 12.145 5.74 17.528 2.24 5.379 4.864 10.113 7.96 13.25l1.423-1.405zm-1.702-57.33l4 29.666 1.982-.267-4-29.667-1.982.268zm4.99 29.533l-.981.19v.001l.001.005.004.021.016.085.063.332a192.32 192.32 0 0 1 .95 5.657c.548 3.599 1.153 8.239 1.39 12.514.12 2.136.147 4.137.03 5.884-.116 1.754-.372 3.125-.766 4.017-.39.883-.769 1.03-1.09 1.015-.512-.022-1.449-.449-2.905-1.924l-1.423 1.405c1.505 1.525 2.914 2.458 4.24 2.517 1.517.068 2.468-.98 3.008-2.206.537-1.218.81-2.87.932-4.691.12-1.827.093-3.951-.029-6.128-.242-4.349-.858-9.084-1.41-12.704a194.559 194.559 0 0 0-.96-5.721 93.613 93.613 0 0 0-.086-.451l-.001-.006v-.002l-.982.19z"/><path id="q" d="M30.5 2.066s-1.5-2.5-7.5-2-6 .5-12.5 5S0 16.566 0 16.566s3-4.5 10.5 0 16 26 21.5 40.5 2 25 2 25-4.344 23.167 3.656 19.667S55.5 83.066 55.5 83.066s6-14 0-40-25-41-25-41z"/><path id="r" d="M23 .066l-.083-.996.083.996zm7.5 2l-.858.515.095.157.143.113.62-.785zm25 81l.839.544.046-.071.034-.079-.919-.394zm-21.5-1l-.949-.316-.021.065-.013.067.983.184zm-34-65.5l-.868-.496 1.7 1.05L0 16.567zM23.083 1.063c2.854-.238 4.539.244 5.47.71.473.23.726.436.924.63.084.08.12.123.16.173l.02.027-.003-.005a.208.208 0 0 1-.01-.015c-.001-.002-.002-.002.856-.517.858-.514.857-.515.857-.516l-.001-.002a.118.118 0 0 1-.007-.01l-.012-.019a3.063 3.063 0 0 0-.126-.176 4.233 4.233 0 0 0-.344-.379 6.181 6.181 0 0 0-1.42-.98c-1.319-.66-3.383-1.177-6.53-.914l.166 1.993zM30.5 2.066l-.62.785.002.001a.9.9 0 0 0 .008.007l.037.029c.034.028.084.068.15.124.138.113.336.28.596.505.525.455 1.27 1.124 2.195 2.018a78.146 78.146 0 0 1 7.096 7.899c5.465 6.952 11.61 17.01 14.562 29.857l1.948-.45c-3.048-13.152-9.402-23.595-14.938-30.643a81.06 81.06 0 0 0-7.279-8.1 58.392 58.392 0 0 0-2.273-2.092 35.52 35.52 0 0 0-.846-.71l-.013-.01-.003-.003-.002-.001-.62.784zm24.026 41.225c2.98 12.888 2.975 22.72 2.23 29.415-.368 3.322-.915 5.809-1.377 7.503-.228.836-.428 1.45-.576 1.873a13.905 13.905 0 0 1-.211.564l-.01.023c0 .003-.001.003-.002.004l.92.393.92.393v-.002l.002-.003a.489.489 0 0 0 .005-.012l.016-.038a17.099 17.099 0 0 0 .247-.659c.156-.444.378-1.127.619-2.01.475-1.742 1.053-4.381 1.435-7.808.755-6.806.75-16.974-2.27-30.086l-1.948.45zM34 82.066l.949.315.001-.004.003-.009.01-.03.032-.104c.026-.085.065-.22.11-.387.088-.326.21-.825.337-1.452a35.44 35.44 0 0 0 .62-5.35c.188-4.498-.336-10.948-3.127-18.334l-1.87.71c2.71 7.114 3.185 13.164 2.998 17.54a32.542 32.542 0 0 1-.583 5.042 20.477 20.477 0 0 1-.306 1.323 11.311 11.311 0 0 1-.117.407l-.005.016-.001.002.949.315zm-1.065-25.355c-2.752-7.253-6.268-16.294-10.035-24.08-1.885-3.897-3.858-7.521-5.82-10.436-1.96-2.906-3.997-5.245-6.065-6.486l-1.03 1.715c1.682 1.008 3.52 3.044 5.436 5.889 1.912 2.835 3.814 6.335 5.679 10.189 3.733 7.713 7.216 16.673 9.965 23.919l1.87-.71zM11.015 15.71c-3.938-2.363-6.867-2.455-8.894-1.78a6.83 6.83 0 0 0-2.197 1.255c-.236.21-.433.42-.544.552a4.393 4.393 0 0 0-.203.262l-.005.007-.002.004-.001.001s-.001.001.831.556a63.99 63.99 0 0 1 .83.557v.002l-.003.003v.002c.002-.005.003-.006.01-.015a2.956 2.956 0 0 1 .41-.432 3.945 3.945 0 0 1 1.507-.856c1.348-.45 3.67-.54 7.232 1.597l1.028-1.715zM0 16.566l.868.497c0-.001 0-.002.002-.003l.007-.012a9.025 9.025 0 0 1 .161-.27c.12-.197.293-.474.525-.827A41.365 41.365 0 0 1 3.6 13.12c1.788-2.284 4.308-5.052 7.47-7.233L9.93 4.244c-3.338 2.32-6.068 5.301-7.905 7.643A44.289 44.289 0 0 0-.11 14.854a32.453 32.453 0 0 0-.705 1.124l-.038.066-.01.018-.004.005v.002h-.001l.868.497zM11.07 5.888c3.294-2.28 4.808-3.32 6.239-3.893 1.42-.58 2.774-.682 5.774-.932L22.917-.93c-3 .25-4.647.398-6.35 1.068-1.695.677-3.431 1.887-6.636 4.106l1.138 1.644zM55.5 83.066l-.839-.544-.001.002a.617.617 0 0 1-.005.007 23.186 23.186 0 0 1-.102.155l-.32.479a102.69 102.69 0 0 1-5.428 7.289c-3.47 4.239-7.796 8.72-11.55 10.363l.802 1.832c4.247-1.858 8.842-6.71 12.295-10.929a105.612 105.612 0 0 0 5.538-7.436c.144-.213.257-.382.331-.495l.087-.131.023-.035a.544.544 0 0 1 .007-.011v-.001l-.838-.545zm-18.244 17.751c-.832.364-1.328.309-1.635.168-.333-.154-.683-.519-.991-1.241-.628-1.47-.845-3.85-.802-6.516.041-2.633.33-5.361.61-7.465a84.75 84.75 0 0 1 .534-3.451l.008-.047.002-.012v-.002L34 82.065l-.983-.184v.005l-.003.014a87.316 87.316 0 0 0-.558 3.598c-.285 2.131-.583 4.976-.628 7.697-.043 2.689.155 5.444.963 7.333.409.958 1.032 1.828 1.992 2.272.987.455 2.106.359 3.274-.152l-.801-1.832z"/><path id="s" d="M3 1.5a1.5 1.5 0 1 1-3 0 1.5 1.5 0 0 1 3 0z"/><path id="t" d="M.949 3.184a1 1 0 0 0-1.898.632L.95 3.184zM18.3-.6A1 1 0 0 0 16.7.6l1.6-1.2zM0 3.5a61.466 61.466 0 0 0-.948.32l.001.002a2.086 2.086 0 0 0 .064.158c.027.06.085.173.15.284.115.19.345.507.65.818.623.622 1.637 1.323 3.267 1.867l.632-1.898c-1.37-.456-2.106-1.005-2.484-1.383a1.914 1.914 0 0 1-.35-.433C.955 3.192.95 3.18.938 3.154c-.003-.005-.002-.003 0 0l.004.011a2.079 2.079 0 0 0 .006.017v.001c0 .001 0 .002-.948.318zm3.184 3.449c1.587.525 4.166.884 6.593.672C12.19 7.404 14.794 6.607 16.3 4.6l-1.6-1.2c-.994 1.326-2.889 2.03-5.102 2.229-2.198.205-4.37-.103-5.782-.578L3.184 6.95zM16.3 4.6c1.277-1.702 1.852-2.806 2.09-3.544.12-.374.165-.692.147-.968a2.096 2.096 0 0 0-.078-.388 1.934 1.934 0 0 0-.072-.164 1.897 1.897 0 0 0-.084-.132C18.3-.598 18.3-.6 17.5 0s-.801.598-.803.596l-.003-.004-.005-.007-.01-.015-.02-.03-.035-.06a1.843 1.843 0 0 0-.05-.11.557.557 0 0 1-.033-.146c-.005-.039.01.039-.056.22-.137.429-.562 1.325-1.785 2.956l1.6 1.2z"/></defs></svg>