<svg width="133" height="242" viewBox="0 0 133 242" xmlns="http://www.w3.org/2000/svg" xmlns:xlink="http://www.w3.org/1999/xlink" xmlns:figma="http://www.figma.com/figma/ns"><title>can</title><desc>Created using Figma</desc><g figma:type="canvas"><g figma:type="frame"><g figma:type="vector" transform="translate(-1923 -2452)"><use xlink:href="#a" transform="translate(1923 2575)" fill="#BDBDBD"/><mask id="b"><use xlink:href="#a" fill="#fff" transform="translate(1923 2575)"/></mask><g mask="url(#b)"><use xlink:href="#c" transform="translate(1923 2575)" fill="#4F4F4F"/></g></g><g figma:type="vector" transform="translate(-1923 -2452)"><use xlink:href="#d" transform="translate(1923 2570)" fill="#ECE9E7"/><mask id="e"><use xlink:href="#d" fill="#fff" transform="translate(1923 2570)"/></mask><g mask="url(#e)"><use xlink:href="#f" transform="translate(1923 2570)" fill="#4F4F4F"/></g></g><use xlink:href="#g" transform="translate(59 184)" fill="#4F4F4F" figma:type="vector"/><g figma:type="rounded-rectangle" transform="translate(-1923 -2452)"><use xlink:href="#h" transform="translate(1923 2476)" fill="#B70608"/><mask id="i"><use xlink:href="#h" fill="#fff" transform="translate(1923 2476)"/></mask><g mask="url(#i)"><use xlink:href="#j" transform="translate(1923 2476)" fill="#4F4F4F"/></g></g><use xlink:href="#k" transform="translate(2 101)" fill="#B60608" figma:type="ellipse"/><g figma:type="ellipse" transform="translate(-1923 -2452)"><use xlink:href="#l" transform="translate(1923 2452)" fill="#DDDBD7"/><mask id="m"><use xlink:href="#l" fill="#fff" transform="translate(1923 2452)"/></mask><g mask="url(#m)"><use xlink:href="#n" transform="translate(1923 2452)" fill="#4F4F4F"/></g></g><g figma:type="ellipse" transform="translate(-1923 -2452)"><use xlink:href="#o" transform="translate(1933 2460)" fill="#BDBDBD"/><mask id="p"><use xlink:href="#o" fill="#fff" transform="translate(1933 2460)"/></mask><g mask="url(#p)"><use xlink:href="#q" transform="translate(1933 2460)" fill="#4F4F4F"/></g></g><g figma:type="ellipse" transform="translate(-1923 -2452)"><use xlink:href="#r" transform="translate(1948 2466)" fill="#828282"/><mask id="s"><use xlink:href="#r" fill="#fff" transform="translate(1948 2466)"/></mask><g mask="url(#s)"><use xlink:href="#t" transform="translate(1948 2466)" fill="#4F4F4F"/></g></g><use xlink:href="#u" transform="translate(80 171)" fill="#4F4F4F" figma:type="ellipse"/><use xlink:href="#u" transform="translate(49 171)" fill="#4F4F4F" figma:type="ellipse"/><use xlink:href="#v" transform="translate(29 104)" fill="#FFF" figma:type="text"/><use xlink:href="#w" transform="translate(8 68)" fill="#FFF" filter="url(#x)" figma:type="text"/><use xlink:href="#y" transform="translate(1 123)" fill="#4F4F4F" figma:type="vector"/><use xlink:href="#z" transform="translate(3 42)" fill="#F0B932" figma:type="vector"/><use xlink:href="#A" transform="translate(47 126)" fill="#F0B932" figma:type="ellipse"/></g></g><defs><filter id="x" filterUnits="userSpaceOnUse" x="1931" y="2526" width="116" height="29" color-interpolation-filters="sRGB"><feFlood flood-opacity="0" result="BackgroundImageFix"/><desc>type=&quot;dropShadow&quot; x=&quot;1&quot; y=&quot;1&quot; size=&quot;0&quot; spread=&quot;0&quot; color=&quot;0,0,0,0.6&quot; blend=&quot;normal&quot;</desc><feColorMatrix in="SourceAlpha" values="0 0 0 0 0 0 0 0 0 0 0 0 0 0 0 0 0 0 255 0"/><feOffset dx="1" dy="1"/><feColorMatrix values="0 0 0 0 0 0 0 0 0 0 0 0 0 0 0 0 0 0 0.6 0"/><feBlend in2="BackgroundImageFix" result="effect1_dropShadow"/><feBlend in="SourceGraphic" in2="effect1_dropShadow" result="shape"/></filter><path id="a" d="M0 0h133v101.648s-10.5 16.861-65 17.342C13.5 119.472.5 101.648.5 101.648L0 0z"/><path id="c" d="M0 0v-2h-2.01L-2 .01 0 0zm133 0h2v-2h-2v2zm0 101.648l1.698 1.057.302-.485v-.572h-2zm-132.5 0l-2 .01.003.646.381.522L.5 101.648zM0 2h133v-4H0v4zm131-2v101.648h4V0h-4zM2.5 101.638L2-.01l-4 .02.5 101.648 4-.02zm130.5.01c-1.698-1.058-1.697-1.059-1.695-1.061l.002-.003.003-.006.004-.006-.004.006a5.933 5.933 0 0 1-.39.498c-.36.424-.878.975-1.721 1.701-1.759 1.525-4.535 3.487-9.087 5.54-9.117 4.13-25.075 8.434-52.13 8.673l.036 4c27.445-.242 43.987-4.609 53.745-9.03 4.886-2.223 8.14-4.506 10.053-6.158a21.022 21.022 0 0 0 2.149-2.132c.229-.27.414-.51.519-.654.06-.082.114-.159.142-.201l.044-.067a.78.78 0 0 0 .025-.039c.001-.002.003-.004-1.695-1.061zM67.982 116.99c-27.034.239-43.619-4.064-53.369-8.323-4.874-2.121-7.979-4.192-9.977-5.801-.967-.774-1.59-1.376-2.02-1.831a9.23 9.23 0 0 1-.5-.565l-.01-.013.003.003.003.004.002.002c0 .002.002.003-1.614 1.182-1.616 1.178-1.615 1.18-1.613 1.182l.002.003a.106.106 0 0 0 .007.009l.017.022.048.064.16.199a15 15 0 0 0 .594.663 25.397 25.397 0 0 0 2.415 2.194c2.142 1.719 5.694 4.074 10.882 6.348 10.375 4.533 27.54 8.901 55.006 8.658l-.036-4z"/><path id="d" d="M0 0h133v93.96s-10.5 15.586-65 16.031C13.5 110.436.5 93.96.5 93.96L0 0z"/><path id="f" d="M0 0v-2h-2.01L-2 .01 0 0zm133 0h2v-2h-2v2zm0 93.96l1.659 1.118.341-.507v-.611h-2zm-132.5 0l-2 .01.004.689.426.54L.5 93.96zM0 2h133v-4H0v4zm131-2v93.96h4V0h-4zM2.5 93.95L2-.01l-4 .02.5 93.96 4-.02zm130.5.01c-1.659-1.117-1.657-1.12-1.656-1.121l.002-.003.004-.006.005-.007-.002.003a5.941 5.941 0 0 1-.381.45c-.359.39-.872.895-1.713 1.564-1.758 1.41-4.538 3.225-9.094 5.124-9.133 3.824-25.11 7.806-52.181 8.027l.032 4c27.429-.224 43.952-4.258 53.694-8.338 4.882-2.053 8.133-4.162 10.047-5.689a20.364 20.364 0 0 0 2.156-1.978c.231-.251.419-.477.526-.612a9.113 9.113 0 0 0 .214-.288l.003-.004c.001-.002.003-.004-1.656-1.122zm-65.016 14.031c-27.053.221-43.657-3.759-53.423-7.703-4.879-1.963-7.987-3.88-9.986-5.366a19.068 19.068 0 0 1-2.015-1.688 8.313 8.313 0 0 1-.492-.515l-.008-.01.003.003.003.004.002.002c0 .002.002.003-1.568 1.242s-1.569 1.24-1.567 1.242l.002.004a.388.388 0 0 0 .025.03 5.303 5.303 0 0 0 .213.247c.123.137.335.361.597.617.494.48 1.315 1.21 2.42 2.033 2.142 1.589 5.69 3.763 10.874 5.864 10.359 4.183 27.505 8.218 54.952 7.994l-.032-4z"/><path id="g" d="M.968-.249A1 1 0 0 0-.968.249L.968-.249zm14.978.573a1 1 0 1 0-1.892-.648l1.892.648zM0 0l-.968.25a1.371 1.371 0 0 0 .027.1l.074.25a14.962 14.962 0 0 0 1.6 3.442C1.939 5.914 4.004 8 7.2 8V6C4.997 6 3.462 4.586 2.416 2.96A12.036 12.036 0 0 1 1.3.733a11.496 11.496 0 0 1-.33-.984s-.001 0 0 0L0 0zm7.2 8c3.175 0 5.385-2.06 6.733-3.911A16.49 16.49 0 0 0 15.816.67a11.01 11.01 0 0 0 .12-.316l.006-.02.003-.007V.325L15 0l-.946-.325c0-.001 0 0 0 0l-.003.01a4.914 4.914 0 0 1-.094.246c-.072.183-.175.428-.32.736a13.59 13.59 0 0 1-1.32 2.244C11.115 4.561 9.425 6 7.2 6v2z"/><path id="h" d="M0 0h133v100H0V0z"/><path id="j" d="M0 0v-2h-2v2h2zm133 0h2v-2h-2v2zm0 100v2h2v-2h-2zM0 100h-2v2h2v-2zM0 2h133v-4H0v4zm131-2v100h4V0h-4zm2 98H0v4h133v-4zM2 100V0h-4v100h4z"/><path id="k" d="M129 22c0 12.15-28.878 22-64.5 22S0 34.15 0 22 28.878 0 64.5 0 129 9.85 129 22z"/><path id="l" d="M133 24.5C133 38.031 103.227 49 66.5 49 29.773 49 0 38.031 0 24.5S29.773 0 66.5 0C103.227 0 133 10.969 133 24.5z"/><path id="n" d="M131 24.5c0 2.591-1.419 5.31-4.54 8.028-3.191 2.797-7.745 5.257-13.629 7.42C100.978 44.323 84.701 47.006 66.5 47v4c18.527-.007 35.499-2.809 47.714-7.3 6.15-2.27 11.335-5.09 14.874-8.155C132.697 32.4 135 28.675 135 24.5h-4zM66.5 47c-18.2.007-34.478-2.676-46.331-7.053-5.884-2.162-10.438-4.623-13.63-7.419C3.42 29.81 2 27.091 2 24.5h-4c0 4.174 2.303 7.9 5.912 11.045 3.539 3.066 8.724 5.884 14.874 8.156C31.001 48.19 47.973 50.993 66.5 51v-4zM2 24.5c0-2.591 1.419-5.31 4.54-8.028 3.191-2.797 7.745-5.257 13.629-7.42C32.022 4.677 48.299 1.994 66.5 2v-4C47.973-1.993 31 .809 18.786 5.3c-6.15 2.27-11.335 5.09-14.874 8.155C.302 16.6-2 20.325-2 24.5h4zM66.5 2c18.2-.007 34.478 2.676 46.331 7.053 5.884 2.162 10.438 4.622 13.629 7.419 3.121 2.718 4.54 5.437 4.54 8.028h4c0-4.174-2.303-7.9-5.912-11.045-3.539-3.066-8.724-5.884-14.874-8.156C101.999.81 85.027-1.993 66.5-2v4z"/><path id="o" d="M112 16.5C112 25.613 86.928 33 56 33S0 25.613 0 16.5 25.072 0 56 0s56 7.387 56 16.5z"/><path id="q" d="M110 16.5c0 1.292-.9 2.94-3.544 4.782-2.665 1.868-6.473 3.512-11.423 4.967C85.049 29.197 71.333 31.004 56 31v4c15.595-.004 29.879-1.89 40.163-4.914 5.184-1.531 9.577-3.443 12.579-5.522 3.024-2.107 5.258-4.8 5.258-8.064h-4zM56 31c-15.333.004-29.05-1.803-39.033-4.751-4.95-1.455-8.758-3.1-11.423-4.967C2.9 19.439 2 17.791 2 16.5h-4c0 3.264 2.234 5.957 5.258 8.064 3.002 2.08 7.395 3.99 12.579 5.522C26.12 33.11 40.405 34.996 56 35v-4zM2 16.5c0-1.292.9-2.94 3.544-4.781C8.209 9.85 12.017 8.206 16.967 6.75 26.951 3.803 40.667 1.996 56 2v-4c-15.595.004-29.879 1.89-40.163 4.914-5.184 1.531-9.577 3.443-12.58 5.522C.235 10.543-2 13.236-2 16.5h4zM56 2c15.333-.004 29.05 1.803 39.033 4.751 4.95 1.455 8.758 3.1 11.423 4.968C109.1 13.56 110 15.209 110 16.5h4c0-3.264-2.234-5.957-5.258-8.064-3.002-2.08-7.395-3.99-12.579-5.522C85.88-.11 71.595-1.996 56-2v4z"/><path id="r" d="M83 10c0 5.523-18.58 10-41.5 10S0 15.523 0 10 18.58 0 41.5 0 83 4.477 83 10z"/><path id="t" d="M81 10c0 .2-.23 1.003-2.251 2.155-1.943 1.115-4.718 2.094-8.373 2.972C62.993 16.91 52.852 18.003 41.5 18v4c11.567-.003 22.177-1.149 29.813-2.985 3.856-.931 7.158-2.108 9.416-3.385C82.907 14.39 85 12.56 85 10h-4zm-39.5 8c-11.352.003-21.493-1.09-28.876-2.873-3.655-.878-6.43-1.857-8.373-2.972C2.23 11.003 2 10.2 2 10h-4c0 2.56 2.093 4.39 4.271 5.63 2.258 1.277 5.56 2.454 9.416 3.385C19.323 20.851 29.933 21.997 41.5 22v-4zM2 10c0-.2.23-1.003 2.251-2.155C6.194 6.73 8.97 5.751 12.624 4.873 20.007 3.09 30.147 1.997 41.5 2v-4C29.933-1.997 19.323-.851 11.687.985 7.83 1.916 4.529 3.093 2.27 4.37.093 5.61-2 7.44-2 10h4zm39.5-8c11.352-.003 21.493 1.09 28.876 2.873 3.655.878 6.43 1.857 8.373 2.972C80.77 8.997 81 9.8 81 10h4c0-2.56-2.093-4.39-4.271-5.63-2.258-1.277-5.56-2.454-9.416-3.385C63.677-.851 53.067-1.997 41.5-2v4z"/><path id="u" d="M5 2.5a2.5 2.5 0 1 1-5 0 2.5 2.5 0 0 1 5 0z"/><path id="v" d="M5.828 4.314c.802 0 1.563.141 2.282.424l.2.08-.425 1.161-.204-.07c-.695-.233-1.323-.349-1.886-.349-.444 0-.855.073-1.235.22-.376.143-.69.337-.94.58a2.72 2.72 0 0 0-.58.838 2.467 2.467 0 0 0 .016 2.004c.15.318.358.6.623.843.269.24.605.431 1.01.575.405.14.847.21 1.327.21.587 0 1.174-.105 1.761-.312l.2-.07.44 1.074-.2.086a6.18 6.18 0 0 1-2.46.5 5.191 5.191 0 0 1-1.825-.307c-.545-.204-.994-.483-1.349-.838a3.796 3.796 0 0 1-.821-1.246 4.055 4.055 0 0 1-.285-1.525c0-.552.099-1.064.295-1.536a3.56 3.56 0 0 1 .844-1.23c.365-.348.823-.62 1.375-.817a5.43 5.43 0 0 1 1.837-.295zm7.27-.027c.777 0 1.468.152 2.073.457a3.417 3.417 0 0 1 1.43 1.332c.346.58.52 1.255.52 2.025 0 .78-.17 1.473-.51 2.078a3.557 3.557 0 0 1-1.434 1.402c-.616.333-1.323.5-2.122.5a4.611 4.611 0 0 1-1.498-.242 4.084 4.084 0 0 1-1.273-.715A3.349 3.349 0 0 1 9.392 9.9c-.218-.501-.328-1.067-.328-1.697 0-.785.172-1.474.516-2.068a3.442 3.442 0 0 1 1.429-1.37c.608-.319 1.305-.478 2.09-.478zm.704 1.338a2.988 2.988 0 0 0-1.51 0c-.243.06-.477.159-.703.295a2.348 2.348 0 0 0-.586.494c-.168.197-.302.44-.402.73-.1.287-.15.604-.15.951 0 .827.255 1.492.767 1.993.512.501 1.152.752 1.918.752a2.782 2.782 0 0 0 1.756-.618 2.15 2.15 0 0 0 .612-.832c.154-.351.231-.75.231-1.198 0-.365-.053-.698-.16-1a2.243 2.243 0 0 0-.43-.756 2.504 2.504 0 0 0-.618-.51 2.595 2.595 0 0 0-.725-.301zm4.832-1.257h1.493l4.26 5.865V4.368h1.353V12h-1.51l-4.243-5.876V12h-1.353V4.368zm11.814 1.246h-1.39v5.14h.982c.247 0 .451-.004.612-.01.162-.008.373-.033.634-.076.262-.043.484-.102.666-.177a2.57 2.57 0 0 0 .575-.35c.2-.157.367-.347.5-.569.243-.408.365-.886.365-1.434a2.69 2.69 0 0 0-.135-.87 2.024 2.024 0 0 0-.349-.666 2.321 2.321 0 0 0-.51-.478 2.638 2.638 0 0 0-1.209-.473 5.65 5.65 0 0 0-.74-.037zm-.037-1.246c.48 0 .922.037 1.326.112a4.84 4.84 0 0 1 1.048.307c.293.129.555.284.784.467.23.183.417.378.564.585.147.208.267.434.36.677.096.244.163.484.198.72.04.233.06.474.06.725 0 .33-.027.648-.081.956a4.272 4.272 0 0 1-.285.935c-.136.315-.311.6-.526.854-.211.25-.489.478-.833.682-.34.2-.73.349-1.17.446-.226.05-.477.089-.752.118-.276.025-.503.039-.683.043a45.06 45.06 0 0 1-.74.005h-1.977V4.368h2.707zM36.397 12V4.368h5.355v1.246h-3.996v1.831h3.701v1.246h-3.7v2.063h3.995V12h-5.355zm7.008-7.632h1.493l4.26 5.865V4.368h1.353V12H49l-4.243-5.876V12h-1.353V4.368zm12.448-.07c.713 0 1.416.105 2.111.317l.22.064-.44 1.246-.204-.059c-.648-.179-1.24-.268-1.773-.268-.526 0-.977.086-1.353.257-.373.172-.559.393-.559.661 0 .176.083.33.247.462.169.133.385.245.65.338.265.09.557.18.876.269.322.09.644.193.966.311.323.119.616.255.881.409.265.154.48.36.645.617.168.255.252.548.252.881 0 .215-.037.428-.113.64a1.916 1.916 0 0 1-.37.617 2.525 2.525 0 0 1-.645.537c-.254.15-.58.274-.977.37-.394.094-.836.14-1.327.14-.49 0-.933-.044-1.327-.134a9.419 9.419 0 0 1-1.251-.397l-.199-.075.457-1.3.21.08c.905.322 1.652.484 2.239.484.551 0 .997-.085 1.337-.253.344-.168.516-.39.516-.666a.62.62 0 0 0-.156-.413 1.223 1.223 0 0 0-.419-.307 4.303 4.303 0 0 0-.607-.236 17.585 17.585 0 0 0-.714-.21 19.84 19.84 0 0 1-.752-.22 5.284 5.284 0 0 1-.72-.284 3.302 3.302 0 0 1-.601-.376 1.53 1.53 0 0 1-.42-.521 1.574 1.574 0 0 1-.155-.704c0-.644.315-1.185.945-1.622.634-.437 1.477-.655 2.53-.655zM59.858 12V4.368h5.355v1.246h-3.996v1.831h3.7v1.246h-3.7v2.063h3.996V12h-5.355zm9.795-6.386h-1.391v5.14h.983c.247 0 .451-.004.612-.01.161-.008.373-.033.634-.076s.483-.102.666-.177a2.57 2.57 0 0 0 .575-.35c.2-.157.367-.347.5-.569.243-.408.364-.886.364-1.434a2.69 2.69 0 0 0-.134-.87 2.022 2.022 0 0 0-.35-.666 2.318 2.318 0 0 0-.51-.478 2.638 2.638 0 0 0-1.208-.473 5.65 5.65 0 0 0-.741-.037zm-.038-1.246c.48 0 .922.037 1.327.112.405.076.754.178 1.047.307.294.129.555.284.785.467.229.183.417.378.564.585.146.208.266.434.36.677.096.244.162.484.198.72.04.233.06.474.06.725 0 .33-.028.648-.081.956a4.272 4.272 0 0 1-.285.935c-.136.315-.312.6-.526.854-.212.25-.49.478-.833.682-.34.2-.73.349-1.17.446-.226.05-.477.089-.753.118a10.36 10.36 0 0 1-.682.043c-.175.003-.422.005-.741.005h-1.977V4.368h2.707z"/><path id="w" d="M14.12 22.412c-.36.905-.848 1.679-1.464 2.32a8.793 8.793 0 0 1-2.004 1.556 8.884 8.884 0 0 1-2.188.87 8.468 8.468 0 0 1-2.044.277c-1.002 0-1.872-.119-2.61-.356a4.252 4.252 0 0 1-1.846-1.147c-.483-.527-.848-1.213-1.094-2.056-.237-.844-.356-1.873-.356-3.085 0-.616.035-1.284.106-2.004.079-.73.202-1.481.369-2.255.167-.773.378-1.551.633-2.333.263-.783.58-1.534.949-2.255.369-.73.795-1.41 1.279-2.043a8.8 8.8 0 0 1 1.634-1.648 7.342 7.342 0 0 1 2.017-1.094c.739-.273 1.552-.409 2.44-.409.623 0 1.208.07 1.753.21a4.042 4.042 0 0 1 1.437.634c.413.29.734.663.962 1.12.238.457.356 1.007.356 1.648 0 .36-.035.695-.105 1.002a2.127 2.127 0 0 1-.33.791c-.15.22-.347.391-.593.514-.237.123-.527.185-.87.185-.211 0-.457-.04-.739-.119-.272-.079-.536-.272-.79-.58.158-.079.312-.202.46-.369.15-.176.282-.373.396-.593a3.84 3.84 0 0 0 .277-.738 3.06 3.06 0 0 0 .106-.791c0-.211-.031-.418-.092-.62a1.27 1.27 0 0 0-.792-.883 1.826 1.826 0 0 0-.764-.145c-.501 0-.989.184-1.464.553-.465.37-.91.87-1.331 1.503a13.35 13.35 0 0 0-1.147 2.189 21.287 21.287 0 0 0-.883 2.65c-.247.931-.44 1.89-.58 2.874a20.14 20.14 0 0 0-.211 2.847c0 .624.044 1.196.131 1.714.097.51.264.95.501 1.319.246.369.576.659.99.87.421.202.962.303 1.62.303a6.264 6.264 0 0 0 2.954-.712 6.756 6.756 0 0 0 2.307-1.99l.62.276zm15.173-.25a12.1 12.1 0 0 1-.83 1.898 7.802 7.802 0 0 1-.936 1.358 5.05 5.05 0 0 1-.976.896 4.848 4.848 0 0 1-.975.528c-.317.123-.62.206-.91.25-.29.044-.554.066-.791.066-.765 0-1.375-.206-1.833-.62-.448-.421-.72-1.04-.817-1.858-.22.307-.461.61-.725.91-.264.29-.558.553-.883.79-.326.229-.69.418-1.095.567-.395.14-.834.211-1.318.211-.466 0-.914-.075-1.345-.224a2.925 2.925 0 0 1-1.147-.738c-.334-.343-.602-.791-.804-1.345-.202-.554-.303-1.23-.303-2.03 0-.615.061-1.275.184-1.978a12.514 12.514 0 0 1 1.517-4.126 8.168 8.168 0 0 1 1.344-1.714 6.057 6.057 0 0 1 1.754-1.187 5.086 5.086 0 0 1 2.149-.448c.764 0 1.318.132 1.66.396.352.263.528.588.528.975v.198l.29-1.437h3.89l-1.939 9.176c-.044.15-.074.299-.092.448-.018.14-.026.281-.026.422 0 .773.369 1.16 1.107 1.16.264 0 .506-.066.725-.198a2.44 2.44 0 0 0 .62-.553 3.81 3.81 0 0 0 .488-.805 7.47 7.47 0 0 0 .356-.988h1.133zm-6.802-6.091c0-.08-.018-.176-.053-.29a.931.931 0 0 0-.185-.343.856.856 0 0 0-.33-.277 1.09 1.09 0 0 0-.54-.118 1.82 1.82 0 0 0-1.08.369 4.017 4.017 0 0 0-.924.988 7.622 7.622 0 0 0-.751 1.385 13.92 13.92 0 0 0-.567 1.608c-.15.545-.264 1.085-.343 1.622a9.692 9.692 0 0 0-.118 1.424c0 .518.048.918.145 1.2.096.28.21.491.342.632.141.132.29.21.449.237.158.027.298.04.421.04.203 0 .414-.048.633-.145.229-.106.444-.255.646-.448.211-.203.4-.453.567-.752a3.57 3.57 0 0 0 .396-1.041l1.292-6.091zm27.658 6.09c-.378 1.108-.786 1.991-1.226 2.65-.43.66-.87 1.165-1.318 1.517-.44.342-.875.567-1.305.672a4.857 4.857 0 0 1-1.174.158c-.597 0-1.098-.083-1.502-.25a2.703 2.703 0 0 1-.976-.686 2.805 2.805 0 0 1-.54-.975 4.11 4.11 0 0 1-.159-1.134c0-.457.062-.989.185-1.595.132-.616.272-1.244.422-1.886.149-.641.285-1.26.408-1.859.132-.597.198-1.111.198-1.542 0-.923-.325-1.384-.976-1.384a1.27 1.27 0 0 0-.685.197 2.226 2.226 0 0 0-.58.541c-.176.22-.334.483-.475.791a7.29 7.29 0 0 0-.369.962L38.245 27h-3.89l1.978-9.32a2.761 2.761 0 0 0 .04-1.121.985.985 0 0 0-.145-.37.66.66 0 0 0-.251-.263.636.636 0 0 0-.382-.106c-.264 0-.51.066-.739.198-.22.132-.422.312-.606.54a4.128 4.128 0 0 0-.475.805 8 8 0 0 0-.369.975L31.574 27h-3.89l2.861-13.5h3.89l-.29 1.398c.29-.326.58-.585.87-.778a3.94 3.94 0 0 1 .856-.462c.282-.114.554-.189.818-.224.264-.044.514-.066.751-.066.352 0 .681.044.99.132.307.08.58.21.816.396.238.184.44.426.607.725.167.29.286.646.356 1.067.325-.5.66-.9 1.002-1.2.343-.307.677-.54 1.002-.698a3.57 3.57 0 0 1 .936-.316c.299-.053.571-.08.817-.08.43 0 .826.058 1.187.172a2.418 2.418 0 0 1 1.582 1.49c.15.386.224.848.224 1.384 0 .36-.035.751-.106 1.173-.061.413-.14.84-.237 1.28-.088.43-.189.86-.303 1.291-.114.43-.22.844-.317 1.24-.087.395-.166.764-.237 1.107a4.95 4.95 0 0 0-.092.883c0 .334.075.606.224.817.158.211.444.317.857.317.29 0 .545-.057.765-.171.22-.115.417-.277.593-.488.176-.211.334-.462.474-.752.15-.299.295-.624.436-.975h1.133zM47.103 33.75l4.51-21.252H55.5l-.435 2.03c.396-.334.848-.61 1.358-.83.51-.22 1.108-.33 1.793-.33.457 0 .888.075 1.292.224.404.14.752.378 1.042.712.298.325.531.76.698 1.305.176.545.264 1.218.264 2.018 0 .606-.044 1.265-.132 1.977-.079.703-.22 1.41-.422 2.123a11.59 11.59 0 0 1-.804 2.043 6.757 6.757 0 0 1-1.226 1.727 5.79 5.79 0 0 1-1.753 1.213c-.668.299-1.437.448-2.308.448-.342 0-.641-.026-.896-.079a2.904 2.904 0 0 1-.66-.21 1.907 1.907 0 0 1-.447-.304 2.663 2.663 0 0 1-.29-.37l-1.398 6.58-4.074.975zm5.907-9.558a.99.99 0 0 0 .316.422c.167.132.404.197.712.197.475 0 .897-.118 1.266-.355a3.76 3.76 0 0 0 .975-.963 6.31 6.31 0 0 0 .712-1.37c.194-.51.352-1.034.475-1.57s.21-1.063.263-1.582c.062-.527.093-1.002.093-1.424 0-.518-.049-.927-.145-1.226-.097-.299-.216-.523-.356-.672a.82.82 0 0 0-.435-.277 1.596 1.596 0 0 0-.422-.066c-.308 0-.633.114-.976.343-.334.22-.628.55-.883.989l-1.595 7.554zM65.613 8.635l3.994-.54-1.292 6.077a6.98 6.98 0 0 1 .725-.395c.22-.106.418-.185.594-.237.175-.053.334-.084.474-.093.15-.017.29-.026.422-.026.475 0 .905.079 1.292.237.396.158.734.422 1.015.791.281.36.497.835.646 1.424.158.589.237 1.31.237 2.162 0 .527-.052 1.12-.158 1.78-.096.65-.259 1.314-.487 1.99a10.535 10.535 0 0 1-.91 1.978 7.454 7.454 0 0 1-1.384 1.714 6.52 6.52 0 0 1-1.925 1.213c-.738.299-1.587.448-2.545.448-1.248 0-2.188-.303-2.82-.91-.634-.606-.95-1.454-.95-2.544 0-.255.013-.51.04-.765a4.67 4.67 0 0 1 .144-.777l2.888-13.527zm.87 14.04c-.053.23-.08.436-.08.62 0 .835.475 1.253 1.424 1.253.29 0 .572-.097.844-.29a3.42 3.42 0 0 0 .752-.791 6.56 6.56 0 0 0 .646-1.16c.193-.449.356-.914.487-1.398.141-.492.247-.993.317-1.503.079-.51.118-1.002.118-1.476 0-.325-.03-.642-.092-.95a2.973 2.973 0 0 0-.263-.843 1.512 1.512 0 0 0-.449-.58.945.945 0 0 0-.632-.225c-.097 0-.22.01-.37.027a2.216 2.216 0 0 0-.461.079 2.429 2.429 0 0 0-.448.145.882.882 0 0 0-.317.237l-1.476 6.856zm20.065-.513a15.018 15.018 0 0 1-1.305 1.845 9.437 9.437 0 0 1-1.648 1.595 8.155 8.155 0 0 1-2.03 1.134c-.739.282-1.552.422-2.44.422a5.963 5.963 0 0 1-1.74-.237 3.506 3.506 0 0 1-1.332-.765c-.369-.342-.65-.782-.843-1.318-.202-.545-.303-1.2-.303-1.965 0-.518.052-1.116.158-1.792a13.75 13.75 0 0 1 .5-2.083c.23-.712.532-1.411.91-2.097a8.114 8.114 0 0 1 1.372-1.832 6.187 6.187 0 0 1 1.885-1.305c.72-.334 1.542-.501 2.465-.501.606 0 1.099.074 1.477.224.386.14.69.33.91.567.228.237.382.514.46.83.089.308.133.629.133.963 0 .782-.172 1.511-.515 2.188a5.797 5.797 0 0 1-1.384 1.754A7.035 7.035 0 0 1 81.301 21a7.343 7.343 0 0 1-2.334.541c-.017.202-.035.395-.053.58-.008.176-.013.343-.013.501 0 .457.04.835.119 1.134.088.29.21.518.369.685.167.167.37.286.606.356.246.062.532.093.857.093.536 0 1.02-.07 1.45-.211.44-.14.849-.334 1.227-.58a6.614 6.614 0 0 0 1.068-.87c.342-.335.685-.69 1.028-1.068h.923zm-7.37-1.912a3.62 3.62 0 0 0 1.477-.435 4.546 4.546 0 0 0 1.252-.989c.36-.413.646-.879.857-1.397.22-.528.33-1.073.33-1.635 0-.334-.049-.602-.145-.804-.097-.202-.273-.303-.528-.303-.343 0-.681.167-1.015.5-.325.326-.633.752-.923 1.28-.29.527-.55 1.124-.778 1.792-.22.66-.395 1.323-.527 1.991zm15.332 1.912c-.255.73-.54 1.362-.857 1.898a7.402 7.402 0 0 1-.976 1.358c-.334.37-.68.668-1.041.896a5.193 5.193 0 0 1-1.028.528 4.73 4.73 0 0 1-.963.25 5.592 5.592 0 0 1-.804.066c-.404 0-.782-.061-1.134-.184a2.42 2.42 0 0 1-.923-.58 2.83 2.83 0 0 1-.606-1.002c-.15-.405-.224-.892-.224-1.464 0-.246.017-.514.053-.804.035-.299.087-.62.158-.962l2.887-13.527 3.995-.54-3.099 14.58c-.043.15-.074.3-.092.449-.009.14-.013.281-.013.422 0 .378.088.642.264.79.175.142.452.212.83.212a1.8 1.8 0 0 0 .765-.171c.255-.124.488-.29.699-.502.21-.21.4-.46.567-.751.166-.299.303-.62.408-.962h1.134zm2.254-13.58l3.995-.54-3.099 14.581a2.825 2.825 0 0 0-.118.791c0 .308.079.567.237.778.158.202.448.303.87.303.255 0 .44-.018.554-.053.114-.035.22-.074.316-.118a3.275 3.275 0 0 1-.33 1.265c-.175.352-.4.646-.672.884a2.8 2.8 0 0 1-.922.514 3.407 3.407 0 0 1-2.175-.013 2.563 2.563 0 0 1-.924-.594 2.953 2.953 0 0 1-.606-1.028c-.15-.413-.224-.91-.224-1.49 0-.237.017-.5.053-.79.035-.3.087-.62.158-.963l2.887-13.526zm6.235 0c0-.272.044-.522.132-.751.097-.237.224-.44.382-.606.159-.167.348-.295.567-.383.22-.096.462-.145.725-.145.273 0 .523.049.752.145.237.088.439.216.606.383.176.167.308.369.396.606.096.229.145.48.145.752 0 .342-.075.711-.224 1.107-.15.395-.365.791-.646 1.187a8.066 8.066 0 0 1-1.002 1.173 8.684 8.684 0 0 1-1.345 1.068l-.409-.396c.387-.395.686-.764.897-1.107.22-.343.329-.624.329-.844 0-.176-.07-.32-.211-.435a11.23 11.23 0 0 0-.448-.396 2.918 2.918 0 0 1-.448-.514c-.132-.21-.198-.492-.198-.843zm11.048 4.087c.052 1.17.101 2.184.145 3.046a262.727 262.727 0 0 0 .263 3.823l.093 1.173c.035.334.057.642.065.923.018.273.027.558.027.857 0 .59-.084 1.116-.251 1.582a3.863 3.863 0 0 1-.659 1.2 4.178 4.178 0 0 1-.962.883c-.361.238-.743.43-1.147.58-.396.15-.8.255-1.213.317-.413.07-.804.105-1.173.105-.677 0-1.266-.1-1.767-.303a3.86 3.86 0 0 1-1.226-.804 3.139 3.139 0 0 1-.712-1.108 3.448 3.448 0 0 1-.237-1.239c0-.316.044-.606.131-.87a2.89 2.89 0 0 1 .317-.725 2.49 2.49 0 0 1 .448-.54c.176-.159.356-.282.541-.37a33.073 33.073 0 0 0 1.911-4.008 63.396 63.396 0 0 0 1.411-3.994l3.995-.528zm-7.317 10.468c0 .633.123 1.108.369 1.424.255.308.681.462 1.279.462.298 0 .588-.04.87-.12.281-.087.531-.228.751-.421.22-.202.396-.462.528-.778.131-.316.197-.712.197-1.186 0-.229-.009-.449-.026-.66a19.74 19.74 0 0 0-.119-1.503 44.22 44.22 0 0 0-.105-1.041l-.119-1.371c-.044-.519-.092-1.125-.145-1.82a22.784 22.784 0 0 1-.962 2.558 51.057 51.057 0 0 1-1.226 2.545c.175.096.32.22.435.369.123.15.184.338.184.567 0 .167-.026.33-.079.487a1.416 1.416 0 0 1-.237.435 1.309 1.309 0 0 1-.382.304 1.08 1.08 0 0 1-.488.105c-.15 0-.29-.022-.422-.066a.514.514 0 0 1-.303-.29z"/><path id="y" d="M0 0c-.94.342-.94.343-.939.344A1.554 1.554 0 0 0-.9.441c.02.047.053.128.095.22.08.173.213.447.395.771a18.5 18.5 0 0 0 1.827 2.626c1.728 2.093 4.74 4.934 9.592 7.687C20.71 17.235 37.902 22.502 68.017 22l-.034-2c-29.885.498-46.693-4.735-55.99-9.995-4.649-2.622-7.387-5.219-9.034-7.22C2.152 1.81 1.655 1.03 1.333.456a8.017 8.017 0 0 1-.382-.77 1.268 1.268 0 0 1-.012-.029L.938-.347a.59.59 0 0 1 .001.003C.94-.343.94-.342 0 0zm68.017 22c30.089-.502 45.923-5.766 54.267-11.03 4.18-2.636 6.48-5.273 7.738-7.303a12.625 12.625 0 0 0 1.201-2.485c.103-.309.173-.575.21-.738a4.885 4.885 0 0 0 .054-.282l.003-.023.001-.008.001-.004c0-.001 0-.003-.992-.127s-.992-.125-.992-.127v-.002l.001-.003s0-.002 0 0l-.003.019a4.945 4.945 0 0 1-.178.654c-.173.514-.458 1.195-1.006 2.073-1.086 1.751-3.161 4.177-7.106 6.665C113.31 14.266 97.894 19.502 67.983 20l.034 2z"/><path id="z" d="M1.46-.342a1.5 1.5 0 1 0-2.92.684l2.92-.684zM128.961.34a1.5 1.5 0 0 0-2.922-.68l2.922.68zM0 0c-1.46.342-1.46.344-1.46.346l.002.005a2.782 2.782 0 0 0 .03.114c.014.049.04.139.072.234a9.2 9.2 0 0 0 .304.772c.266.592.759 1.51 1.502 2.53 1.5 2.042 4.104 4.65 8.568 7.186 8.908 5.061 25.21 9.826 55.008 9.313l-.052-3c-29.511.509-45.21-4.226-53.474-8.921-4.124-2.342-6.4-4.675-7.632-6.354-.623-.842-.96-1.48-1.182-1.98a4.846 4.846 0 0 1-.228-.595l-.003-.01.001.005.002.006v.003C1.46-.344 1.46-.342 0 0zm64.026 20.5c29.779-.513 45.926-5.282 54.685-10.067 4.389-2.398 6.933-4.806 8.393-6.689.725-.941 1.205-1.792 1.459-2.335.137-.296.241-.564.295-.721.03-.09.057-.178.07-.224l.021-.075.007-.027.003-.012.001-.005c0-.002.001-.005-1.46-.345-1.461-.34-1.46-.343-1.46-.345l.001-.004.002-.006.002-.008c0-.003 0-.003-.001.002a3.698 3.698 0 0 1-.199.5c-.206.445-.517 1.007-1.112 1.767-1.178 1.52-3.39 3.67-7.461 5.894-8.164 4.46-23.767 9.191-53.298 9.7l.052 3z"/><path id="A" d="M40 20c0 11.046-8.954 20-20 20S0 31.046 0 20 8.954 0 20 0s20 8.954 20 20z"/></defs></svg>