<svg width="217" height="215" viewBox="0 0 217 215" xmlns="http://www.w3.org/2000/svg" xmlns:xlink="http://www.w3.org/1999/xlink" xmlns:figma="http://www.figma.com/figma/ns"><title>donut</title><desc>Created using Figma</desc><g figma:type="canvas"><g figma:type="frame"><g figma:type="vector-operation" transform="translate(3.94 5.98)"><use xlink:href="#a" fill="#FFD387"/><use xlink:href="#b" fill="#4F4F4F"/></g><g figma:type="vector" transform="translate(25.15 76.29)"><use xlink:href="#c" fill="#FDBC79"/><use xlink:href="#d" fill="#4F4F4F"/></g><g figma:type="vector-operation" transform="translate(1 1)"><use xlink:href="#e" fill="#FF6B95"/><use xlink:href="#f" fill="#4F4F4F"/></g><use xlink:href="#g" transform="rotate(20 -26.667 241.092)" fill="#4F4F4F" figma:type="ellipse"/><use xlink:href="#g" transform="rotate(20 -16.01 367.86)" fill="#4F4F4F" figma:type="ellipse"/><use xlink:href="#h" transform="translate(85 46.34)" fill="#4F4F4F" figma:type="vector"/><use xlink:href="#i" transform="rotate(15 -210.447 221.355)" fill="#FFE28B" figma:type="vector"/><use xlink:href="#i" transform="rotate(60 2.553 60.441)" fill="#FFD146" figma:type="vector"/><use xlink:href="#i" transform="rotate(-40 262.375 -137.084)" fill="#FF0083" figma:type="vector"/><use xlink:href="#i" transform="rotate(-30 251.515 -311.607)" fill="#F2C94C" figma:type="vector"/><use xlink:href="#i" transform="rotate(40 -129.145 138.902)" fill="#EBB6FF" figma:type="vector"/><use xlink:href="#i" transform="rotate(-45 221.966 -51.601)" fill="#6FCF97" figma:type="vector"/><use xlink:href="#i" transform="rotate(10 -388.01 897.36)" fill="#DA77FF" figma:type="vector"/><use xlink:href="#i" transform="rotate(5 -836.695 285.737)" fill="#4DFF97" figma:type="vector"/><use xlink:href="#i" transform="rotate(-30 161.276 -295.786)" fill="#72DDFF" figma:type="vector"/></g></g><defs><path id="a" fill-rule="evenodd" d="M.059 104.528s5 101.5 103.5 101.5 103-98 103-98 6.5-106-103-108-103.5 104.5-103.5 104.5zm103.5-22c25-.5 25.5 19.5 25 24.5s-3.5 19.5-25 20-26.5-14-26.5-20 1.5-24 26.5-24.5z"/><path id="b" d="M.059 104.528l.998-.049v-.007l-.998.056zm206.5 3.5l-.998-.061-.001.007v.008l.999.046zm-78-1l.995.099-.995-.099zm-25 20l.023 1-.023-1zm0 78c-48.812 0-74.382-25.106-87.806-50.222-6.737-12.593-10.396-25.147-12.396-34.625a129.341 129.341 0 0 1-1.898-11.41 87.617 87.617 0 0 1-.324-3.185 49.722 49.722 0 0 1-.074-1.041l-.003-.052v-.014l-1 .049c-.998.049-.998.05-.998.051v.02a30.402 30.402 0 0 0 .017.285c.014.195.034.488.065.865.061.749.165 1.858.33 3.258.332 2.789.918 6.798 1.928 11.587 2.017 9.552 5.764 22.374 12.59 35.155 13.7 25.634 39.88 51.279 89.569 51.279v-2zm103-97l-.999-.046v.002l-.001.012-.003.049-.011.202c-.012.183-.03.449-.058.802a80.976 80.976 0 0 1-.307 3.073 120.4 120.4 0 0 1-1.842 11.01c-1.951 9.149-5.546 21.261-12.219 33.415-13.29 24.232-38.732 48.481-87.56 48.481v2c49.671 0 75.73-24.752 89.314-49.519 6.765-12.346 10.452-24.734 12.421-33.96.987-4.626 1.555-8.5 1.872-11.193.159-1.353.257-2.425.315-3.148a53.2 53.2 0 0 0 .06-.837l.013-.218a1.77 1.77 0 0 1 .003-.058v-.019c.001-.001.001-.002-.998-.048zm-103.019-107c54.33.992 79.752 27.731 91.67 54.16 5.99 13.269 8.563 26.428 9.659 36.356.548 4.95.719 9.05.755 11.938a84.325 84.325 0 0 1-.019 3.328 45.931 45.931 0 0 1-.044 1.141v.015l.998.062c.998.061.998.06.998.059v-.005l.001-.016.004-.062.011-.236c.009-.203.021-.51.032-.904a88.39 88.39 0 0 0 .019-3.407 126.025 126.025 0 0 0-.767-12.133c-1.107-10.01-3.752-23.475-9.824-36.957C184.826 27.297 158.747.036 103.577-.972l-.037 2zM.059 104.528l.998-.057v-.015a11.547 11.547 0 0 1-.013-.273 49.61 49.61 0 0 1-.026-.873 85.408 85.408 0 0 1-.004-3.337c.05-2.894.24-6.997.811-11.94 1.143-9.911 3.778-23.007 9.829-36.086C23.688 25.904 49.217.035 103.54 1.027l.037-1.999C48.4-1.98 22.179 24.402 9.838 51.108 3.702 64.405.993 77.81-.162 87.804a126.04 126.04 0 0 0-.823 12.134 88.317 88.317 0 0 0 .003 3.416 52.158 52.158 0 0 0 .038 1.145l.003.062v.016l.001.005c0 .001 0 .002.999-.054zm129.495 2.599c.26-2.602.268-9.091-3.065-14.909-3.391-5.916-10.13-10.946-22.95-10.69l.04 2c12.179-.244 18.19 4.476 21.174 9.684 3.042 5.308 3.05 11.318 2.81 13.716l1.991.199zm-25.972 20.901c10.999-.256 17.417-4.11 21.128-8.683 3.633-4.526 4.589-9.679 4.844-12.218l-1.991-.199c-.245 2.462-1.039 7.058-4.406 11.157-3.289 4.053-9.121 7.699-19.622 7.943l.047 2zm-27.523-21c0 3.222 1.325 8.596 5.448 13.112 4.159 4.554 11.076 8.143 22.075 7.888l-.047-2c-10.501.244-16.834-3.166-20.55-7.237-3.752-4.109-4.927-8.985-4.927-11.763h-2zm27.48-25.5c-12.775.255-19.731 5.007-23.44 10.637-3.614 5.546-4.04 11.831-4.04 14.863h2c-.001-2.969.323-8.683 3.71-13.763 3.29-4.994 9.584-9.493 21.81-9.737l-.04-2z"/><path id="c" d="M12.352 109.221c44 48 160.5 38.5 173.002-68 12.501-106.499-45.502 27-45.502 27s-12 51-66 51c-27 0-55-11.5-63-16.5s-20.5-17.5 1.5 6.5z"/><path id="d" d="M12.352 109.221l-.737.676.737-.676zm127.5-41l-.917-.399-.036.083-.02.087.973.229zm44.509-27.116c-6.201 52.825-38.145 81.501-73.954 91.087-35.9 9.611-75.615.028-97.317-23.647l-1.475 1.352c22.299 24.325 62.833 33.992 99.309 24.227 36.566-9.788 69.122-39.112 75.423-92.786l-1.986-.233zM73.852 120.22c27.373 0 44.146-12.948 54.045-25.893 4.929-6.452 8.178-12.943 10.161-17.758a71.008 71.008 0 0 0 2.128-5.86 47.046 47.046 0 0 0 .6-2.098 6.145 6.145 0 0 0 .037-.149l.002-.009v-.002c.001-.001.001-.002-.973-.231l-.973-.23v.001l-.001.005-.006.024a43.593 43.593 0 0 1-.596 2.094 67.913 67.913 0 0 1-2.067 5.694c-1.954 4.748-5.08 11.007-9.901 17.304-9.601 12.556-25.828 25.108-52.456 25.108v2zm66-52c.917.398.918.398.918.397l.002-.004.008-.018.031-.071.123-.282.481-1.09c.421-.95 1.036-2.329 1.816-4.047 1.56-3.44 3.772-8.227 6.389-13.645 5.237-10.84 12.068-24.146 18.511-34.135 3.215-4.986 6.277-9.074 9.005-11.635 1.352-1.272 2.544-2.09 3.551-2.46.971-.36 1.688-.282 2.275.111.646.432 1.322 1.367 1.882 3.127.569 1.78.955 4.175 1.146 7.395.388 6.488-.07 15.963-1.629 29.24l1.986.234c1.566-13.347 2.03-22.997 1.639-29.593-.199-3.321-.628-5.96-1.236-7.882-.618-1.944-1.482-3.385-2.676-4.183-1.252-.838-2.675-.845-4.081-.326-1.37.506-2.792 1.53-4.227 2.88-2.849 2.684-6.061 6.963-9.315 12.008-6.495 10.073-13.384 23.486-18.631 34.349a633.554 633.554 0 0 0-8.234 17.752 254.045 254.045 0 0 0-.608 1.382l-.032.072-.008.019-.002.005c-.001 0-.001.001.916.4zM13.09 108.545c-5.497-5.996-8.828-9.7-10.615-11.813-.911-1.079-1.359-1.672-1.507-1.93-.038-.066-.013-.039.008.046a.85.85 0 0 1 .012.343.95.95 0 0 1-.954.793.73.73 0 0 1-.19-.03c.005.004-.026-.011.03.02.29.156.808.53 1.535 1.077.73.55 1.621 1.242 2.6 1.994 1.957 1.503 4.277 3.25 6.313 4.524l1.06-1.696c-1.963-1.226-4.205-2.917-6.155-4.414-.974-.748-1.872-1.446-2.615-2.006-.746-.561-1.384-1.017-1.78-1.235a2.776 2.776 0 0 0-.396-.174 1.932 1.932 0 0 0-.332-.058 1.075 1.075 0 0 0-.639.179c-.609.408-.45 1.082-.428 1.172.047.186.133.35.196.459.254.445.83 1.18 1.715 2.227 1.807 2.136 5.164 5.87 10.667 11.874l1.475-1.352zm-2.768-4.976c8.136 5.085 36.317 16.652 63.53 16.652v-2c-26.787 0-54.605-11.433-62.47-16.348l-1.06 1.696z"/><path id="e" fill-rule="evenodd" d="M194.107 116.318c-6.02.913-11.857 1.799-15.607 7.19-3.744 5.382-3.546 13.722-3.351 21.891.221 9.286.437 18.354-5.149 22.61-7.018 5.347-16.27 1.982-24.023-.837-3.847-1.399-7.324-2.663-9.977-2.663-3.612 0-8.242 3.464-13.937 7.724-6.921 5.178-15.414 11.532-25.563 14.276-12.48 3.372-17.679-11.229-21.736-22.625-1.957-5.497-3.65-10.248-5.764-11.876-2.663-2.048-7.676-1.159-13.354-.152-8.181 1.451-17.743 3.146-23.646-3.347-6.069-6.676-3.668-14.455-1.512-21.441 1.397-4.526 2.691-8.718 1.512-12.06-1.221-3.458-6.332-2.364-12.1-1.129-8.409 1.8-18.214 3.899-19.4-7.371-2-19-3-107.5 101.5-106.5s119 92 110.5 106.5c-4.516 7.704-11.571 8.774-18.393 9.81zM81 95.008c1-8 7.5-22 26-22s26 10.5 26 22c0 1.05.025 2.118.05 3.2.251 10.791.534 22.893-23.55 28.801-26.5 6.5-29.5-24-28.5-32z"/><path id="f" d="M178.5 123.508l-.821-.571.821.571zm15.607-7.19l.15.988-.15-.988zm-18.958 29.081l-1 .024 1-.024zM170 168.009l.606.795-.606-.795zm-24.023-.837l.342-.94-.342.94zm-23.914 5.061l-.599-.801.599.801zM96.5 186.509l.26.965-.26-.965zm-21.736-22.625l-.942.336.942-.336zM69 152.008l.61-.792-.61.792zm-13.354-.152l.175.984-.175-.984zM32 148.509l-.74.672.74-.672zm-1.512-21.441l-.955-.295.955.295zM32 115.008l.943-.333-.943.333zm-12.1-1.129l-.21-.978.21.978zM.5 106.508l.994-.104-.994.104zm212 0l-.863-.505.863.505zm-79.5-11.5h-1 1zm.05 3.2l1-.022-1 .023zM109.5 127.01l.238.971-.238-.971zm69.821-2.93c3.468-4.986 8.843-5.848 14.936-6.773l-.3-1.977c-5.947.903-12.247 1.812-16.278 7.608l1.642 1.142zm-3.173 21.296c-.097-4.084-.196-8.148.194-11.863.386-3.705 1.246-6.942 2.979-9.433l-1.642-1.142c-2.011 2.891-2.925 6.516-3.326 10.368-.399 3.842-.301 8.033-.204 12.118l1.999-.048zm-5.542 23.429c3.09-2.355 4.5-5.989 5.134-10.06.626-4.048.519-8.726.408-13.369l-1.999.048c.11 4.643.222 9.142-.385 13.013-.6 3.849-1.875 6.876-4.37 8.777l1.212 1.591zm-24.971-.692c3.877 1.409 8.235 2.988 12.504 3.533 4.316.545 8.679.045 12.467-2.841l-1.212-1.591c-3.231 2.462-7.003 2.953-11.005 2.448-4.049-.505-8.194-2.019-12.07-3.429l-.684 1.88zM136 165.509c2.434 0 5.715 1.178 9.635 2.603l.684-1.88c-3.774-1.372-7.448-2.723-10.319-2.723v2zm-13.338 7.525c2.848-2.131 5.388-4.033 7.667-5.404 2.291-1.381 4.153-2.121 5.671-2.121v-2c-2.094 0-4.353.991-6.703 2.408-2.363 1.425-4.985 3.385-7.833 5.515l1.198 1.602zm-25.901 14.44c10.325-2.809 18.98-9.262 25.901-14.44l-1.198-1.602c-6.921 5.178-15.253 11.434-25.225 14.111l.522 1.931zM73.82 164.22c2.016 5.66 4.375 12.308 7.842 17.101 1.74 2.397 3.876 4.431 6.324 5.585 2.535 1.179 5.444 1.468 8.774.568l-.522-1.931c-2.91.787-5.332.515-7.408-.451-2.163-.991-3.92-2.688-5.547-4.944-3.267-4.514-5.536-10.864-7.578-16.599l-1.884.671zm-5.431-11.419c.84.646 1.708 2.027 2.638 4.103.917 2.042 1.815 4.567 2.794 7.316l1.884-.671c-.979-2.749-1.905-5.348-2.853-7.463-.933-2.081-1.969-3.889-3.244-4.87l-1.22 1.585zm-12.57.039c2.84-.503 5.445-.967 7.673-1.054 2.238-.09 3.854.213 4.897 1.015l1.22-1.585c-1.621-1.247-3.842-1.523-6.197-1.429-2.363.097-5.103.581-7.942 1.084l.35 1.969zm-24.56-3.659c3.188 3.507 7.346 4.765 11.659 4.979 4.263.206 8.811-.594 12.902-1.32l-.35-1.969c-4.09.726-8.414 1.499-12.453 1.292-3.989-.199-7.563-1.34-10.279-4.327l-1.48 1.345zm-1.727-22.408c-2.124 6.881-4.779 15.252 1.727 22.408l1.48-1.345c-5.632-6.195-3.484-13.383-1.296-20.473l-1.911-.59zm1.524-11.432c.545 1.5.508 3.129.168 5.083-.338 1.969-.994 4.086-1.692 6.349l1.91.59c.7-2.263 1.389-4.504 1.753-6.599.36-2.108.38-4.246-.253-6.089l-1.886.666zm-10.948-.484c2.884-.618 5.5-1.183 7.544-1.173 1.001.002 1.763.143 2.31.412.513.252.878.633 1.094 1.245l1.886-.666c-.395-1.117-1.127-1.896-2.096-2.373-.934-.459-2.04-.616-3.19-.618-2.257.001-5.082.6-7.966 1.217l.418 1.956zm-20.604-8.244c.312 2.96 1.202 5.162 2.599 6.722 1.368 1.497 3.261 2.384 5.21 2.744 3.886.701 8.655-.336 12.796-1.222l-.42-1.956c-4.268.914-8.606 1.826-12.02 1.21-1.703-.299-3.01-.888-4.076-2.11-1.038-1.16-1.818-2.922-2.1-5.597l-1.989.209zM102.01-.992C49.41-1.495 23.172 20.566 10.424 45.3-2.268 69.926-1.504 97.03-.495 106.613l1.99-.209C.502 96.987-.233 70.341 12.2 46.216 24.578 22.201 50.091.512 101.99 1.008l.019-2zm111.353 108.006c1.184-2.018 1.899-5.217 2.115-9.149.214-3.934-.07-8.794-.976-14.141-1.813-10.662-6.161-23.614-14.031-36.063-15.807-24.971-45.87-48.15-98.462-48.653l-.019 2c51.908.497 81.345 23.32 96.79 47.723 7.754 12.238 11.969 24.818 13.749 35.328.891 5.238 1.162 9.875.951 13.696-.21 3.824-.901 6.641-1.843 8.248l1.725 1.011zm-19.105 10.292c6.786-1.03 14.324-2.135 19.105-10.292l-1.725-1.011c-4.249 7.249-10.822 8.285-17.68 9.326l.3 1.977zM107 72.009c-9.535 0-16.054 3.62-20.305 8.33-4.223 4.678-6.167 10.38-6.688 14.546l1.985.248c.48-3.835 2.286-9.133 6.188-13.454 3.873-4.291 9.854-7.67 18.82-7.67v-2zm27 23c0-5.967-1.949-11.745-6.366-16.03-4.42-4.288-11.195-6.97-20.634-6.97v2c9.06 0 15.285 2.567 19.241 6.405 3.958 3.84 5.759 9.06 5.759 14.595h2zm.05 3.177c-.026-1.083-.05-2.14-.05-3.177h-2c0 1.06.025 2.14.05 3.223l2-.046zm-24.312 29.794c12.184-2.989 18.435-7.602 21.532-13.046 3.067-5.391 2.904-11.399 2.78-16.748l-2 .046c.127 5.441.231 10.879-2.519 15.713-2.72 4.782-8.37 9.174-20.27 12.092l.477 1.943zm-29.73-33.095c-.52 4.154-.008 13.987 4.036 22.011 2.024 4.002 5.06 7.686 9.222 9.868 4.246 2.202 9.658 2.887 16.472 1.216l-.477-1.943c-6.436 1.579-11.336.89-15.074-1.049-3.823-1.959-6.443-5.181-8.357-8.992-3.83-7.6-4.319-17.018-3.838-20.863l-1.985-.248z"/><path id="g" d="M8 6c0 3.314-1.79 6-4 6S0 9.314 0 6s1.79-6 4-6 4 2.686 4 6z"/><path id="h" d="M-1.2 4.773a1.5 1.5 0 1 0 2.4 1.8l-2.4-1.8zm29.7 6.4a1.5 1.5 0 0 0 3 0h-3zM0 5.673l1.2.901-.002.001-.001.002v.001c0-.002 0-.002.004-.006l.035-.044a10.602 10.602 0 0 1 .915-.964 14.177 14.177 0 0 1 3.063-2.197C7.922 1.901 12.04.729 17.636 2.128l.728-2.91C11.96-2.382 7.078-1.054 3.786.729A18.546 18.546 0 0 0 .099 3.376c-.41.386-.741.738-.943.968a10.222 10.222 0 0 0-.343.413l-.008.01-.003.003v.002c-.001 0-.002.001 1.198.901zm17.636-3.545c5.694 1.424 8.353 3.857 9.616 5.752.66.97.939 1.763 1.105 2.438a4.68 4.68 0 0 1 .142.849l.001.023v-.015s0-.002 1.5-.002 1.5-.001 1.5-.002v-.058a4.45 4.45 0 0 0-.033-.434 9.057 9.057 0 0 0-.2-1.088c-.208-.825-.679-2.095-1.519-3.375C28.011 3.611 24.67.795 18.364-.782l-.728 2.91z"/><path id="i" d="M0 1.2S.5 0 2 0s2 1.2 2 1.2v11.2S4 14 2 14s-2-1.6-2-1.6V1.2z"/></defs></svg>