<svg width="77" height="70" viewBox="0 0 77 70" version="1.1" xmlns="http://www.w3.org/2000/svg" xmlns:xlink="http://www.w3.org/1999/xlink" xmlns:figma="http://www.figma.com/figma/ns">
<title>ACCOUNT</title>
<desc>Created using Figma</desc>
<g id="Canvas" transform="translate(-1001 685)" figma:type="canvas">
<g id="ACCOUNT" style="mix-blend-mode:normal;" figma:type="frame">
<g id="ACCOUNT INFO" style="mix-blend-mode:normal;" figma:type="text">
<use xlink:href="#path0_fill" transform="translate(998.974 -649)" style="mix-blend-mode:normal;"/>
</g>
<g id="Group" style="mix-blend-mode:normal;" figma:type="frame">
<g id="Ellipse 7" style="mix-blend-mode:normal;" figma:type="ellipse">
<mask id="mask0_outline_ins">
<use xlink:href="#path1_fill" fill="white" transform="translate(1031.74 -673.889)"/>
</mask>
<g mask="url(#mask0_outline_ins)">
<use xlink:href="#path2_stroke_2x" transform="translate(1031.74 -673.889)" style="mix-blend-mode:normal;"/>
</g>
</g>
<g id="Vector 26" style="mix-blend-mode:normal;" figma:type="vector">
<use xlink:href="#path3_stroke" transform="translate(1021.97 -684)" style="mix-blend-mode:normal;"/>
</g>
</g>
</g>
</g>
<defs>
<path id="path0_fill" d="M 6.46973 5.59229L 7.8833 5.59229L 11.582 16L 10.3223 16L 9.26758 12.9751L 4.97559 12.9751L 3.9209 16L 2.771 16L 6.46973 5.59229ZM 7.12158 6.80811L 5.34912 11.8838L 8.88672 11.8838L 7.12158 6.80811ZM 19.1772 5.51904C 20.1245 5.51904 21.0669 5.70459 22.0044 6.07568L 21.6235 7.1084C 20.6763 6.78125 19.8486 6.61768 19.1406 6.61768C 18.5547 6.61768 18.0103 6.73486 17.5073 6.96924C 17.0093 7.19873 16.5942 7.50879 16.2622 7.89941C 15.9351 8.28516 15.6787 8.72949 15.4932 9.23242C 15.3076 9.73047 15.2148 10.2529 15.2148 10.7998C 15.2148 11.3662 15.3125 11.9058 15.5078 12.4185C 15.708 12.9263 15.9863 13.373 16.3428 13.7588C 16.6992 14.1396 17.1411 14.4424 17.6685 14.667C 18.2007 14.8916 18.7817 15.0039 19.4116 15.0039C 20.1636 15.0039 20.9473 14.8574 21.7627 14.5645L 22.1436 15.4873C 21.123 15.9268 20.1074 16.1465 19.0967 16.1465C 18.4717 16.1465 17.8857 16.0562 17.3389 15.8755C 16.792 15.6948 16.3135 15.4434 15.9033 15.1211C 15.498 14.7939 15.1489 14.4082 14.856 13.9639C 14.563 13.5195 14.3408 13.0312 14.1895 12.499C 14.043 11.9619 13.9697 11.3979 13.9697 10.8071C 13.9697 9.80615 14.1772 8.90771 14.5923 8.11182C 15.0122 7.31592 15.6201 6.68604 16.416 6.22217C 17.2119 5.75342 18.1323 5.51904 19.1772 5.51904ZM 29.812 5.51904C 30.7593 5.51904 31.7017 5.70459 32.6392 6.07568L 32.2583 7.1084C 31.311 6.78125 30.4834 6.61768 29.7754 6.61768C 29.1895 6.61768 28.645 6.73486 28.1421 6.96924C 27.644 7.19873 27.229 7.50879 26.897 7.89941C 26.5698 8.28516 26.3135 8.72949 26.1279 9.23242C 25.9424 9.73047 25.8496 10.2529 25.8496 10.7998C 25.8496 11.3662 25.9473 11.9058 26.1426 12.4185C 26.3428 12.9263 26.6211 13.373 26.9775 13.7588C 27.334 14.1396 27.7759 14.4424 28.3032 14.667C 28.8354 14.8916 29.4165 15.0039 30.0464 15.0039C 30.7983 15.0039 31.582 14.8574 32.3975 14.5645L 32.7783 15.4873C 31.7578 15.9268 30.7422 16.1465 29.7314 16.1465C 29.1064 16.1465 28.5205 16.0562 27.9736 15.8755C 27.4268 15.6948 26.9482 15.4434 26.5381 15.1211C 26.1328 14.7939 25.7837 14.4082 25.4907 13.9639C 25.1978 13.5195 24.9756 13.0312 24.8242 12.499C 24.6777 11.9619 24.6045 11.3979 24.6045 10.8071C 24.6045 9.80615 24.812 8.90771 25.2271 8.11182C 25.647 7.31592 26.2549 6.68604 27.0508 6.22217C 27.8467 5.75342 28.7671 5.51904 29.812 5.51904ZM 39.6997 5.48242C 40.3882 5.48242 41.0303 5.60449 41.626 5.84863C 42.2266 6.08789 42.7441 6.42725 43.1787 6.8667C 43.6182 7.30615 43.9624 7.85547 44.2114 8.51465C 44.4604 9.16895 44.585 9.88916 44.585 10.6753C 44.585 11.7397 44.3726 12.687 43.9478 13.5171C 43.5278 14.3423 42.9419 14.9819 42.1899 15.436C 41.4429 15.8853 40.5957 16.1099 39.6484 16.1099C 39.0234 16.1099 38.4253 16 37.854 15.7803C 37.2827 15.5557 36.7676 15.231 36.3086 14.8062C 35.8496 14.3813 35.4834 13.8271 35.21 13.1436C 34.9365 12.4551 34.7998 11.6812 34.7998 10.8218C 34.7998 10.0161 34.9243 9.27881 35.1733 8.60986C 35.4224 7.94092 35.7642 7.37939 36.1987 6.92529C 36.6333 6.46631 37.1509 6.1123 37.7515 5.86328C 38.3521 5.60938 39.0015 5.48242 39.6997 5.48242ZM 39.6338 6.57373C 39.1895 6.57373 38.7622 6.65674 38.3521 6.82275C 37.9419 6.98877 37.5635 7.23291 37.2168 7.55518C 36.875 7.87256 36.5991 8.30225 36.3892 8.84424C 36.1841 9.38135 36.0815 9.98926 36.0815 10.668C 36.0815 11.3174 36.1768 11.918 36.3672 12.4697C 36.5576 13.0166 36.8164 13.4756 37.1436 13.8467C 37.4707 14.2178 37.8564 14.5059 38.3008 14.7109C 38.75 14.916 39.231 15.0186 39.7437 15.0186C 40.0903 15.0186 40.4297 14.9673 40.7617 14.8647C 41.0986 14.7622 41.4209 14.6011 41.7285 14.3813C 42.0361 14.1567 42.3047 13.8833 42.5342 13.561C 42.7686 13.2388 42.9541 12.8408 43.0908 12.3672C 43.2324 11.8936 43.3032 11.3735 43.3032 10.8071C 43.3032 10.231 43.23 9.70361 43.0835 9.2251C 42.937 8.74658 42.7417 8.34619 42.4976 8.02393C 42.2583 7.70166 41.9775 7.43066 41.6553 7.21094C 41.3379 6.98633 41.0083 6.8252 40.6665 6.72754C 40.3296 6.625 39.9854 6.57373 39.6338 6.57373ZM 47.6978 5.59229L 48.9429 5.59229L 48.9429 12.3379C 48.9429 12.7529 48.9771 13.1094 49.0454 13.4072C 49.1187 13.7051 49.27 13.9834 49.4995 14.2422C 49.9878 14.7939 50.708 15.0698 51.6602 15.0698C 52.3486 15.0698 52.9224 14.9209 53.3813 14.623C 53.8452 14.3203 54.1455 13.8955 54.2822 13.3486C 54.3457 13.0898 54.3774 12.7529 54.3774 12.3379L 54.3774 5.59229L 55.6079 5.59229C 55.6079 7.15967 55.6079 8.44141 55.6079 9.4375C 55.6128 10.4336 55.6152 11.0732 55.6152 11.3564C 55.6152 11.6348 55.6152 11.8594 55.6152 12.0303C 55.6201 12.1963 55.6226 12.3354 55.6226 12.4478C 55.6226 12.6724 55.6177 12.8701 55.6079 13.041C 55.5981 13.207 55.564 13.4268 55.5054 13.7002C 55.4517 13.9736 55.376 14.2129 55.2783 14.418C 55.1807 14.6182 55.0317 14.833 54.8315 15.0625C 54.6362 15.292 54.4019 15.4824 54.1284 15.6338C 53.8599 15.7803 53.5132 15.9023 53.0884 16C 52.6685 16.0977 52.1924 16.1465 51.6602 16.1465C 51.0889 16.1465 50.5762 16.0879 50.1221 15.9707C 49.668 15.8486 49.3115 15.7046 49.0527 15.5386C 48.7939 15.3726 48.5693 15.1724 48.3789 14.938C 48.1934 14.7036 48.064 14.5034 47.9907 14.3374C 47.9224 14.1665 47.8662 13.9883 47.8223 13.8027C 47.7393 13.4805 47.6978 13.0239 47.6978 12.4331L 47.6978 5.59229ZM 59.2847 5.59229L 60.8594 5.59229L 66.5283 14.3008L 66.5283 5.59229L 67.7734 5.59229L 67.7734 16L 66.1987 16L 60.5298 7.27686L 60.5298 16L 59.2847 16L 59.2847 5.59229ZM 69.9414 5.59229L 78.1445 5.59229L 78.1445 6.69092L 74.6655 6.69092L 74.6655 16L 73.4204 16L 73.4204 6.69092L 69.9414 6.69092L 69.9414 5.59229ZM 22.8467 22.5923L 24.0918 22.5923L 24.0918 33L 22.8467 33L 22.8467 22.5923ZM 27.9736 22.5923L 29.5483 22.5923L 35.2173 31.3008L 35.2173 22.5923L 36.4624 22.5923L 36.4624 33L 34.8877 33L 29.2188 24.2769L 29.2188 33L 27.9736 33L 27.9736 22.5923ZM 41.377 23.6909L 41.377 27.0894L 45.7202 27.0894L 45.7202 28.188L 41.377 28.188L 41.377 33L 40.1318 33L 40.1318 22.5923L 46.1597 22.5923L 46.1597 23.6909L 41.377 23.6909ZM 53.623 22.4824C 54.3115 22.4824 54.9536 22.6045 55.5493 22.8486C 56.1499 23.0879 56.6675 23.4272 57.1021 23.8667C 57.5415 24.3062 57.8857 24.8555 58.1348 25.5146C 58.3838 26.1689 58.5083 26.8892 58.5083 27.6753C 58.5083 28.7397 58.2959 29.687 57.8711 30.5171C 57.4512 31.3423 56.8652 31.9819 56.1133 32.436C 55.3662 32.8853 54.519 33.1099 53.5718 33.1099C 52.9468 33.1099 52.3486 33 51.7773 32.7803C 51.2061 32.5557 50.6909 32.231 50.2319 31.8062C 49.7729 31.3813 49.4067 30.8271 49.1333 30.1436C 48.8599 29.4551 48.7231 28.6812 48.7231 27.8218C 48.7231 27.0161 48.8477 26.2788 49.0967 25.6099C 49.3457 24.9409 49.6875 24.3794 50.1221 23.9253C 50.5566 23.4663 51.0742 23.1123 51.6748 22.8633C 52.2754 22.6094 52.9248 22.4824 53.623 22.4824ZM 53.5571 23.5737C 53.1128 23.5737 52.6855 23.6567 52.2754 23.8228C 51.8652 23.9888 51.4868 24.2329 51.1401 24.5552C 50.7983 24.8726 50.5225 25.3022 50.3125 25.8442C 50.1074 26.3813 50.0049 26.9893 50.0049 27.668C 50.0049 28.3174 50.1001 28.918 50.2905 29.4697C 50.481 30.0166 50.7397 30.4756 51.0669 30.8467C 51.394 31.2178 51.7798 31.5059 52.2241 31.7109C 52.6733 31.916 53.1543 32.0186 53.667 32.0186C 54.0137 32.0186 54.353 31.9673 54.6851 31.8647C 55.022 31.7622 55.3442 31.6011 55.6519 31.3813C 55.9595 31.1567 56.228 30.8833 56.4575 30.561C 56.6919 30.2388 56.8774 29.8408 57.0142 29.3672C 57.1558 28.8936 57.2266 28.3735 57.2266 27.8071C 57.2266 27.231 57.1533 26.7036 57.0068 26.2251C 56.8604 25.7466 56.665 25.3462 56.4209 25.0239C 56.1816 24.7017 55.9009 24.4307 55.5786 24.2109C 55.2612 23.9863 54.9316 23.8252 54.5898 23.7275C 54.2529 23.625 53.9087 23.5737 53.5571 23.5737Z"/>
<path id="path1_fill" d="M 14 7C 14 10.866 10.866 14 7 14C 3.13401 14 0 10.866 0 7C 0 3.13401 3.13401 0 7 0C 10.866 0 14 3.13401 14 7Z"/>
<path id="path2_stroke_2x" d="M 12.5 7C 12.5 10.0376 10.0376 12.5 7 12.5L 7 15.5C 11.6944 15.5 15.5 11.6944 15.5 7L 12.5 7ZM 7 12.5C 3.96243 12.5 1.5 10.0376 1.5 7L -1.5 7C -1.5 11.6944 2.30558 15.5 7 15.5L 7 12.5ZM 1.5 7C 1.5 3.96243 3.96243 1.5 7 1.5L 7 -1.5C 2.30558 -1.5 -1.5 2.30558 -1.5 7L 1.5 7ZM 7 1.5C 10.0376 1.5 12.5 3.96243 12.5 7L 15.5 7C 15.5 2.30558 11.6944 -1.5 7 -1.5L 7 1.5Z"/>
<path id="path3_stroke" d="M 13.5 4L 13.7633 4.70225C 14.0561 4.59247 14.25 4.31263 14.25 4L 13.5 4ZM 13.5 0L 13.5 -0.75C 13.0858 -0.75 12.75 -0.414214 12.75 1.66533e-16L 13.5 0ZM 20 0L 20.75 0C 20.75 -0.414214 20.4142 -0.75 20 -0.75L 20 0ZM 20 4L 19.25 4C 19.25 4.31263 19.4439 4.59247 19.7367 4.70225L 20 4ZM 24 5.5L 23.7367 6.20225C 23.9891 6.29692 24.273 6.24879 24.4801 6.07617L 24 5.5ZM 27 3L 27.5606 2.50173C 27.2916 2.1991 26.8309 2.16462 26.5199 2.42383L 27 3ZM 31 7.5L 31.5303 8.03033C 31.8111 7.74953 31.8244 7.29853 31.5606 7.00173L 31 7.5ZM 28.5 10L 27.9697 9.46967C 27.7528 9.68652 27.6898 10.0136 27.8106 10.2954L 28.5 10ZM 30 13.5L 29.3106 13.7954C 29.4288 14.0712 29.7 14.25 30 14.25L 30 13.5ZM 34 13.5L 34.75 13.5C 34.75 13.0858 34.4142 12.75 34 12.75L 34 13.5ZM 34 20.5L 34 21.25C 34.4142 21.25 34.75 20.9142 34.75 20.5L 34 20.5ZM 30 20.5L 30 19.75C 29.7 19.75 29.4288 19.9288 29.3106 20.2046L 30 20.5ZM 28.5 24L 27.8106 23.7046C 27.6995 23.9638 27.7433 24.2635 27.9238 24.4801L 28.5 24ZM 31 27L 31.4983 27.5606C 31.8009 27.2916 31.8354 26.8309 31.5762 26.5199L 31 27ZM 26.5 31L 26.0315 31.5857C 26.3168 31.8139 26.7252 31.8033 26.9983 31.5606L 26.5 31ZM 24 29L 24.4685 28.4143C 24.2525 28.2415 23.9589 28.2017 23.7046 28.3106L 24 29ZM 20.5 30.5L 20.2046 29.8106C 19.9666 29.9126 19.7981 30.1301 19.7587 30.386L 20.5 30.5ZM 20 33.75L 20 34.5C 20.3702 34.5 20.685 34.2299 20.7413 33.864L 20 33.75ZM 13.5 33.75L 12.75 33.75C 12.75 34.1642 13.0858 34.5 13.5 34.5L 13.5 33.75ZM 13.5 30.5L 14.25 30.5C 14.25 30.2 14.0712 29.9288 13.7954 29.8106L 13.5 30.5ZM 10 29L 10.2954 28.3106C 10.0411 28.2017 9.74751 28.2415 9.53148 28.4143L 10 29ZM 7.5 31L 6.99828 31.5575C 7.27119 31.8031 7.68181 31.815 7.96852 31.5857L 7.5 31ZM 2.5 26.5L 1.96967 25.9697C 1.82418 26.1152 1.74485 26.314 1.75026 26.5197C 1.75567 26.7254 1.84534 26.9198 1.99828 27.0575L 2.5 26.5ZM 5 24L 5.53033 24.5303C 5.74718 24.3135 5.81017 23.9864 5.68936 23.7046L 5 24ZM 3.5 20.5L 4.18936 20.2046C 4.07117 19.9288 3.80002 19.75 3.5 19.75L 3.5 20.5ZM 0 20.5L -0.75 20.5C -0.75 20.9142 -0.414214 21.25 1.66533e-16 21.25L 0 20.5ZM 0 13.5L 0 12.75C -0.414214 12.75 -0.75 13.0858 -0.75 13.5L 0 13.5ZM 3.5 13.5L 3.5 14.25C 3.79254 14.25 4.05838 14.0799 4.18097 13.8143L 3.5 13.5ZM 5 10.25L 5.68097 10.5643C 5.80719 10.2908 5.75756 9.96836 5.55496 9.7455L 5 10.25ZM 2.5 7.5L 1.96967 6.96967C 1.68658 7.25276 1.67574 7.70827 1.94504 8.0045L 2.5 7.5ZM 7 3L 7.53033 2.46967C 7.23744 2.17678 6.76256 2.17678 6.46967 2.46967L 7 3ZM 9.5 5.5L 8.96967 6.03033C 9.17764 6.2383 9.48796 6.30551 9.76334 6.20225L 9.5 5.5ZM 14.25 4L 14.25 0L 12.75 0L 12.75 4L 14.25 4ZM 13.5 0.75L 20 0.75L 20 -0.75L 13.5 -0.75L 13.5 0.75ZM 19.25 0L 19.25 4L 20.75 4L 20.75 0L 19.25 0ZM 19.7367 4.70225L 23.7367 6.20225L 24.2633 4.79775L 20.2633 3.29775L 19.7367 4.70225ZM 24.4801 6.07617L 27.4801 3.57617L 26.5199 2.42383L 23.5199 4.92383L 24.4801 6.07617ZM 26.4394 3.49827L 30.4394 7.99827L 31.5606 7.00173L 27.5606 2.50173L 26.4394 3.49827ZM 30.4697 6.96967L 27.9697 9.46967L 29.0303 10.5303L 31.5303 8.03033L 30.4697 6.96967ZM 27.8106 10.2954L 29.3106 13.7954L 30.6894 13.2046L 29.1894 9.70456L 27.8106 10.2954ZM 30 14.25L 34 14.25L 34 12.75L 30 12.75L 30 14.25ZM 33.25 13.5L 33.25 20.5L 34.75 20.5L 34.75 13.5L 33.25 13.5ZM 34 19.75L 30 19.75L 30 21.25L 34 21.25L 34 19.75ZM 29.3106 20.2046L 27.8106 23.7046L 29.1894 24.2954L 30.6894 20.7954L 29.3106 20.2046ZM 27.9238 24.4801L 30.4238 27.4801L 31.5762 26.5199L 29.0762 23.5199L 27.9238 24.4801ZM 30.5017 26.4394L 26.0017 30.4394L 26.9983 31.5606L 31.4983 27.5606L 30.5017 26.4394ZM 26.9685 30.4143L 24.4685 28.4143L 23.5315 29.5857L 26.0315 31.5857L 26.9685 30.4143ZM 23.7046 28.3106L 20.2046 29.8106L 20.7954 31.1894L 24.2954 29.6894L 23.7046 28.3106ZM 19.7587 30.386L 19.2587 33.636L 20.7413 33.864L 21.2413 30.614L 19.7587 30.386ZM 20 33L 13.5 33L 13.5 34.5L 20 34.5L 20 33ZM 14.25 33.75L 14.25 30.5L 12.75 30.5L 12.75 33.75L 14.25 33.75ZM 13.7954 29.8106L 10.2954 28.3106L 9.70456 29.6894L 13.2046 31.1894L 13.7954 29.8106ZM 9.53148 28.4143L 7.03148 30.4143L 7.96852 31.5857L 10.4685 29.5857L 9.53148 28.4143ZM 8.00172 30.4425L 3.00172 25.9425L 1.99828 27.0575L 6.99828 31.5575L 8.00172 30.4425ZM 3.03033 27.0303L 5.53033 24.5303L 4.46967 23.4697L 1.96967 25.9697L 3.03033 27.0303ZM 5.68936 23.7046L 4.18936 20.2046L 2.81064 20.7954L 4.31064 24.2954L 5.68936 23.7046ZM 3.5 19.75L 0 19.75L 0 21.25L 3.5 21.25L 3.5 19.75ZM 0.75 20.5L 0.75 13.5L -0.75 13.5L -0.75 20.5L 0.75 20.5ZM 0 14.25L 3.5 14.25L 3.5 12.75L 0 12.75L 0 14.25ZM 4.18097 13.8143L 5.68097 10.5643L 4.31903 9.93571L 2.81903 13.1857L 4.18097 13.8143ZM 5.55496 9.7455L 3.05496 6.9955L 1.94504 8.0045L 4.44504 10.7545L 5.55496 9.7455ZM 3.03033 8.03033L 7.53033 3.53033L 6.46967 2.46967L 1.96967 6.96967L 3.03033 8.03033ZM 6.46967 3.53033L 8.96967 6.03033L 10.0303 4.96967L 7.53033 2.46967L 6.46967 3.53033ZM 9.76334 6.20225L 13.7633 4.70225L 13.2367 3.29775L 9.23666 4.79775L 9.76334 6.20225Z"/>
</defs>
</svg>
