<svg width="45" height="51" viewBox="0 0 45 51" version="1.1" xmlns="http://www.w3.org/2000/svg" xmlns:xlink="http://www.w3.org/1999/xlink" xmlns:figma="http://www.figma.com/figma/ns">
<title>cal</title>
<desc>Created using Figma</desc>
<g id="Canvas" transform="translate(347 549)" figma:type="canvas">
<g id="cal" style="mix-blend-mode:normal;" figma:type="frame">
<g id="Rectangle 11" style="mix-blend-mode:normal;" figma:type="rounded-rectangle">
<use xlink:href="#path0_fill" transform="translate(-347 -543.812)" fill="#FFFFFF" style="mix-blend-mode:normal;"/>
<mask id="mask0_outline_ins">
<use xlink:href="#path0_fill" fill="white" transform="translate(-347 -543.812)"/>
</mask>
<g mask="url(#mask0_outline_ins)">
<use xlink:href="#path1_stroke_2x" transform="translate(-347 -543.812)" style="mix-blend-mode:normal;"/>
</g>
</g>
<g id="Rectangle 12" style="mix-blend-mode:normal;" figma:type="rounded-rectangle">
<use xlink:href="#path2_fill" transform="translate(-341 -548.399)" fill="#FFFFFF" style="mix-blend-mode:normal;"/>
<mask id="mask1_outline_ins">
<use xlink:href="#path2_fill" fill="white" transform="translate(-341 -548.399)"/>
</mask>
<g mask="url(#mask1_outline_ins)">
<use xlink:href="#path3_stroke_2x" transform="translate(-341 -548.399)" style="mix-blend-mode:normal;"/>
</g>
</g>
<g id="Rectangle 12" style="mix-blend-mode:normal;" figma:type="rounded-rectangle">
<use xlink:href="#path2_fill" transform="translate(-328.5 -548.399)" fill="#FFFFFF" style="mix-blend-mode:normal;"/>
<mask id="mask2_outline_ins">
<use xlink:href="#path2_fill" fill="white" transform="translate(-328.5 -548.399)"/>
</mask>
<g mask="url(#mask2_outline_ins)">
<use xlink:href="#path3_stroke_2x" transform="translate(-328.5 -548.399)" style="mix-blend-mode:normal;"/>
</g>
</g>
<g id="Rectangle 12" style="mix-blend-mode:normal;" figma:type="rounded-rectangle">
<use xlink:href="#path2_fill" transform="translate(-316 -548.399)" fill="#FFFFFF" style="mix-blend-mode:normal;"/>
<mask id="mask3_outline_ins">
<use xlink:href="#path2_fill" fill="white" transform="translate(-316 -548.399)"/>
</mask>
<g mask="url(#mask3_outline_ins)">
<use xlink:href="#path3_stroke_2x" transform="translate(-316 -548.399)" style="mix-blend-mode:normal;"/>
</g>
</g>
<g id="Line 8" style="mix-blend-mode:normal;" figma:type="line">
<use xlink:href="#path4_stroke" transform="translate(-346 -532)" style="mix-blend-mode:normal;"/>
</g>
<g id="Rectangle 13" style="mix-blend-mode:normal;" figma:type="rounded-rectangle">
<mask id="mask4_outline_ins">
<use xlink:href="#path5_fill" fill="white" transform="translate(-332.375 -529)"/>
</mask>
<g mask="url(#mask4_outline_ins)">
<use xlink:href="#path6_stroke_2x" transform="translate(-332.375 -529)" style="mix-blend-mode:normal;"/>
</g>
</g>
<g id="Rectangle 13" style="mix-blend-mode:normal;" figma:type="rounded-rectangle">
<mask id="mask5_outline_ins">
<use xlink:href="#path5_fill" fill="white" transform="translate(-322.375 -529)"/>
</mask>
<g mask="url(#mask5_outline_ins)">
<use xlink:href="#path6_stroke_2x" transform="translate(-322.375 -529)" style="mix-blend-mode:normal;"/>
</g>
</g>
<g id="Rectangle 13" style="mix-blend-mode:normal;" figma:type="rounded-rectangle">
<mask id="mask6_outline_ins">
<use xlink:href="#path5_fill" fill="white" transform="translate(-312.375 -529)"/>
</mask>
<g mask="url(#mask6_outline_ins)">
<use xlink:href="#path6_stroke_2x" transform="translate(-312.375 -529)" style="mix-blend-mode:normal;"/>
</g>
</g>
<g id="Rectangle 13" style="mix-blend-mode:normal;" figma:type="rounded-rectangle">
<mask id="mask7_outline_ins">
<use xlink:href="#path5_fill" fill="white" transform="translate(-332.375 -520)"/>
</mask>
<g mask="url(#mask7_outline_ins)">
<use xlink:href="#path6_stroke_2x" transform="translate(-332.375 -520)" style="mix-blend-mode:normal;"/>
</g>
</g>
<g id="Rectangle 13" style="mix-blend-mode:normal;" figma:type="rounded-rectangle">
<mask id="mask8_outline_ins">
<use xlink:href="#path5_fill" fill="white" transform="translate(-322.375 -520)"/>
</mask>
<g mask="url(#mask8_outline_ins)">
<use xlink:href="#path6_stroke_2x" transform="translate(-322.375 -520)" style="mix-blend-mode:normal;"/>
</g>
</g>
<g id="Rectangle 13" style="mix-blend-mode:normal;" figma:type="rounded-rectangle">
<mask id="mask9_outline_ins">
<use xlink:href="#path5_fill" fill="white" transform="translate(-341.875 -520)"/>
</mask>
<g mask="url(#mask9_outline_ins)">
<use xlink:href="#path6_stroke_2x" transform="translate(-341.875 -520)" style="mix-blend-mode:normal;"/>
</g>
</g>
<g id="Rectangle 13" style="mix-blend-mode:normal;" figma:type="rounded-rectangle">
<mask id="mask10_outline_ins">
<use xlink:href="#path5_fill" fill="white" transform="translate(-312.375 -520)"/>
</mask>
<g mask="url(#mask10_outline_ins)">
<use xlink:href="#path6_stroke_2x" transform="translate(-312.375 -520)" style="mix-blend-mode:normal;"/>
</g>
</g>
<g id="Rectangle 13" style="mix-blend-mode:normal;" figma:type="rounded-rectangle">
<mask id="mask11_outline_ins">
<use xlink:href="#path5_fill" fill="white" transform="translate(-332.125 -511)"/>
</mask>
<g mask="url(#mask11_outline_ins)">
<use xlink:href="#path6_stroke_2x" transform="translate(-332.125 -511)" style="mix-blend-mode:normal;"/>
</g>
</g>
<g id="Rectangle 13" style="mix-blend-mode:normal;" figma:type="rounded-rectangle">
<mask id="mask12_outline_ins">
<use xlink:href="#path5_fill" fill="white" transform="translate(-322.125 -511)"/>
</mask>
<g mask="url(#mask12_outline_ins)">
<use xlink:href="#path6_stroke_2x" transform="translate(-322.125 -511)" style="mix-blend-mode:normal;"/>
</g>
</g>
<g id="Rectangle 13" style="mix-blend-mode:normal;" figma:type="rounded-rectangle">
<mask id="mask13_outline_ins">
<use xlink:href="#path5_fill" fill="white" transform="translate(-341.625 -511)"/>
</mask>
<g mask="url(#mask13_outline_ins)">
<use xlink:href="#path6_stroke_2x" transform="translate(-341.625 -511)" style="mix-blend-mode:normal;"/>
</g>
</g>
<g id="Rectangle 13" style="mix-blend-mode:normal;" figma:type="rounded-rectangle">
<mask id="mask14_outline_ins">
<use xlink:href="#path5_fill" fill="white" transform="translate(-312.125 -511)"/>
</mask>
<g mask="url(#mask14_outline_ins)">
<use xlink:href="#path6_stroke_2x" transform="translate(-312.125 -511)" style="mix-blend-mode:normal;"/>
</g>
</g>
</g>
</g>
<defs>
<path id="path0_fill" d="M 0 4C 0 1.79086 1.79086 0 4 0L 41 0C 43.2091 0 45 1.79086 45 4L 45 41C 45 43.2091 43.2091 45 41 45L 4 45C 1.79086 45 0 43.2091 0 41L 0 4Z"/>
<path id="path1_stroke_2x" d="M 4 1.5L 41 1.5L 41 -1.5L 4 -1.5L 4 1.5ZM 43.5 4L 43.5 41L 46.5 41L 46.5 4L 43.5 4ZM 41 43.5L 4 43.5L 4 46.5L 41 46.5L 41 43.5ZM 1.5 41L 1.5 4L -1.5 4L -1.5 41L 1.5 41ZM 4 -1.5C 0.962434 -1.5 -1.5 0.962434 -1.5 4L 1.5 4C 1.5 2.61929 2.61929 1.5 4 1.5L 4 -1.5ZM 41 1.5C 42.3807 1.5 43.5 2.61929 43.5 4L 46.5 4C 46.5 0.962434 44.0376 -1.5 41 -1.5L 41 1.5ZM 43.5 41C 43.5 42.3807 42.3807 43.5 41 43.5L 41 46.5C 44.0376 46.5 46.5 44.0376 46.5 41L 43.5 41ZM 4 43.5C 2.61929 43.5 1.5 42.3807 1.5 41L -1.5 41C -1.5 44.0376 0.962434 46.5 4 46.5L 4 43.5Z"/>
<path id="path2_fill" d="M 0 3C 0 1.34315 1.34315 0 3 0C 4.65685 0 6 1.34315 6 3L 6 9C 6 10.6569 4.65685 12 3 12C 1.34315 12 0 10.6569 0 9L 0 3Z"/>
<path id="path3_stroke_2x" d="M 4.5 3L 4.5 9L 7.5 9L 7.5 3L 4.5 3ZM 1.5 9L 1.5 3L -1.5 3L -1.5 9L 1.5 9ZM 3 -1.5C 0.514719 -1.5 -1.5 0.514719 -1.5 3L 1.5 3C 1.5 2.17157 2.17157 1.5 3 1.5L 3 -1.5ZM 3 1.5C 3.82843 1.5 4.5 2.17157 4.5 3L 7.5 3C 7.5 0.514718 5.48528 -1.5 3 -1.5L 3 1.5ZM 4.5 9C 4.5 9.82843 3.82843 10.5 3 10.5L 3 13.5C 5.48528 13.5 7.5 11.4853 7.5 9L 4.5 9ZM 3 10.5C 2.17157 10.5 1.5 9.82843 1.5 9L -1.5 9C -1.5 11.4853 0.514719 13.5 3 13.5L 3 10.5Z"/>
<path id="path4_stroke" d="M 0 0L 43 0L 43 -1.5L 0 -1.5L 0 0Z"/>
<path id="path5_fill" d="M 0 1.5C 0 0.671573 0.671573 0 1.5 0L 3.5 0C 4.32843 0 5 0.671573 5 1.5L 5 3.5C 5 4.32843 4.32843 5 3.5 5L 1.5 5C 0.671573 5 0 4.32843 0 3.5L 0 1.5Z"/>
<path id="path6_stroke_2x" d="M 1.5 1.2L 3.5 1.2L 3.5 -1.2L 1.5 -1.2L 1.5 1.2ZM 3.8 1.5L 3.8 3.5L 6.2 3.5L 6.2 1.5L 3.8 1.5ZM 3.5 3.8L 1.5 3.8L 1.5 6.2L 3.5 6.2L 3.5 3.8ZM 1.2 3.5L 1.2 1.5L -1.2 1.5L -1.2 3.5L 1.2 3.5ZM 1.5 -1.2C 0.00883115 -1.2 -1.2 0.00883115 -1.2 1.5L 1.2 1.5C 1.2 1.33431 1.33431 1.2 1.5 1.2L 1.5 -1.2ZM 3.5 1.2C 3.66569 1.2 3.8 1.33431 3.8 1.5L 6.2 1.5C 6.2 0.00883115 4.99117 -1.2 3.5 -1.2L 3.5 1.2ZM 3.8 3.5C 3.8 3.66569 3.66569 3.8 3.5 3.8L 3.5 6.2C 4.99117 6.2 6.2 4.99117 6.2 3.5L 3.8 3.5ZM 1.5 3.8C 1.33431 3.8 1.2 3.66569 1.2 3.5L -1.2 3.5C -1.2 4.99117 0.00883115 6.2 1.5 6.2L 1.5 3.8Z"/>
</defs>
</svg>
