<svg width="63" height="39" viewBox="0 0 63 39" version="1.1" xmlns="http://www.w3.org/2000/svg" xmlns:xlink="http://www.w3.org/1999/xlink" xmlns:figma="http://www.figma.com/figma/ns">
<title>Clear all icon</title>
<desc>Created using Figma</desc>
<g id="Canvas" transform="translate(-3 113)" figma:type="canvas">
<g id="Clear all icon" style="mix-blend-mode:normal;" figma:type="frame">
<g id="Rectangle 6" style="mix-blend-mode:normal;" figma:type="rounded-rectangle">
<use xlink:href="#path0_fill" transform="translate(25.3231 -112.75)" fill="#FFFFFF" style="mix-blend-mode:normal;"/>
<mask id="mask0_outline_ins">
<use xlink:href="#path0_fill" fill="white" transform="translate(25.3231 -112.75)"/>
</mask>
<g mask="url(#mask0_outline_ins)">
<use xlink:href="#path1_stroke_2x" transform="translate(25.3231 -112.75)" style="mix-blend-mode:normal;"/>
</g>
</g>
<g id="Rectangle 6" style="mix-blend-mode:normal;" figma:type="rounded-rectangle">
<use xlink:href="#path2_fill" transform="translate(25.3231 -104.375)" fill="#FFFFFF" style="mix-blend-mode:normal;"/>
<mask id="mask1_outline_ins">
<use xlink:href="#path2_fill" fill="white" transform="translate(25.3231 -104.375)"/>
</mask>
<g mask="url(#mask1_outline_ins)">
<use xlink:href="#path3_stroke_2x" transform="translate(25.3231 -104.375)" style="mix-blend-mode:normal;"/>
</g>
</g>
<g id="Rectangle 6" style="mix-blend-mode:normal;" figma:type="rounded-rectangle">
<use xlink:href="#path4_fill" transform="translate(25.3231 -96)" fill="#FFFFFF" style="mix-blend-mode:normal;"/>
<mask id="mask2_outline_ins">
<use xlink:href="#path4_fill" fill="white" transform="translate(25.3231 -96)"/>
</mask>
<g mask="url(#mask2_outline_ins)">
<use xlink:href="#path5_stroke_2x" transform="translate(25.3231 -96)" style="mix-blend-mode:normal;"/>
</g>
</g>
<g id="CLEAR ALL" style="mix-blend-mode:normal;" figma:type="text">
<use xlink:href="#path6_fill" transform="translate(2.15552 -87.625)" style="mix-blend-mode:normal;"/>
</g>
</g>
</g>
<defs>
<path id="path0_fill" d="M 0 0L 25 0L 25 5L 0 5L 0 0Z"/>
<path id="path1_stroke_2x" d="M 0 0L 0 -1L -1 -1L -1 0L 0 0ZM 25 0L 26 0L 26 -1L 25 -1L 25 0ZM 25 5L 25 6L 26 6L 26 5L 25 5ZM 0 5L -1 5L -1 6L 0 6L 0 5ZM 0 1L 25 1L 25 -1L 0 -1L 0 1ZM 24 0L 24 5L 26 5L 26 0L 24 0ZM 25 4L 0 4L 0 6L 25 6L 25 4ZM 1 5L 1 0L -1 0L -1 5L 1 5Z"/>
<path id="path2_fill" d="M 0 0L 20.25 0L 20.25 5L 0 5L 0 0Z"/>
<path id="path3_stroke_2x" d="M 0 0L 0 -1L -1 -1L -1 0L 0 0ZM 20.25 0L 21.25 0L 21.25 -1L 20.25 -1L 20.25 0ZM 20.25 5L 20.25 6L 21.25 6L 21.25 5L 20.25 5ZM 0 5L -1 5L -1 6L 0 6L 0 5ZM 0 1L 20.25 1L 20.25 -1L 0 -1L 0 1ZM 19.25 0L 19.25 5L 21.25 5L 21.25 0L 19.25 0ZM 20.25 4L 0 4L 0 6L 20.25 6L 20.25 4ZM 1 5L 1 0L -1 0L -1 5L 1 5Z"/>
<path id="path4_fill" d="M 0 0L 15.2074 0L 15.2074 5L 0 5L 0 0Z"/>
<path id="path5_stroke_2x" d="M 0 0L 0 -1L -1 -1L -1 0L 0 0ZM 15.2074 0L 16.2074 0L 16.2074 -1L 15.2074 -1L 15.2074 0ZM 15.2074 5L 15.2074 6L 16.2074 6L 16.2074 5L 15.2074 5ZM 0 5L -1 5L -1 6L 0 6L 0 5ZM 0 1L 15.2074 1L 15.2074 -1L 0 -1L 0 1ZM 14.2074 0L 14.2074 5L 16.2074 5L 16.2074 0L 14.2074 0ZM 15.2074 4L 0 4L 0 6L 15.2074 6L 15.2074 4ZM 1 5L 1 0L -1 0L -1 5L 1 5Z"/>
<path id="path6_fill" d="M 5.77734 4.13672C 6.53516 4.13672 7.28906 4.28516 8.03906 4.58203L 7.73438 5.4082C 6.97656 5.14648 6.31445 5.01562 5.74805 5.01562C 5.2793 5.01562 4.84375 5.10938 4.44141 5.29688C 4.04297 5.48047 3.71094 5.72852 3.44531 6.04102C 3.18359 6.34961 2.97852 6.70508 2.83008 7.10742C 2.68164 7.50586 2.60742 7.92383 2.60742 8.36133C 2.60742 8.81445 2.68555 9.24609 2.8418 9.65625C 3.00195 10.0625 3.22461 10.4199 3.50977 10.7285C 3.79492 11.0332 4.14844 11.2754 4.57031 11.4551C 4.99609 11.6348 5.46094 11.7246 5.96484 11.7246C 6.56641 11.7246 7.19336 11.6074 7.8457 11.373L 8.15039 12.1113C 7.33398 12.4629 6.52148 12.6387 5.71289 12.6387C 5.21289 12.6387 4.74414 12.5664 4.30664 12.4219C 3.86914 12.2773 3.48633 12.0762 3.1582 11.8184C 2.83398 11.5566 2.55469 11.248 2.32031 10.8926C 2.08594 10.5371 1.9082 10.1465 1.78711 9.7207C 1.66992 9.29102 1.61133 8.83984 1.61133 8.36719C 1.61133 7.56641 1.77734 6.84766 2.10938 6.21094C 2.44531 5.57422 2.93164 5.07031 3.56836 4.69922C 4.20508 4.32422 4.94141 4.13672 5.77734 4.13672ZM 10.207 4.19531L 11.2031 4.19531L 11.2031 11.6484L 14.9414 11.6484L 14.9414 12.5215L 10.207 12.5215L 10.207 4.19531ZM 16.8516 12.5215L 16.8516 4.19531L 21.7324 4.19531L 21.7324 5.07422L 17.8477 5.07422L 17.8477 7.79297L 21.4102 7.79297L 21.4102 8.67188L 17.8477 8.67188L 17.8477 11.6426L 21.7324 11.6426L 21.7324 12.5215L 16.8516 12.5215ZM 26.3965 4.19531L 27.5273 4.19531L 30.4863 12.5215L 29.4785 12.5215L 28.6348 10.1016L 25.2012 10.1016L 24.3574 12.5215L 23.4375 12.5215L 26.3965 4.19531ZM 26.918 5.16797L 25.5 9.22852L 28.3301 9.22852L 26.918 5.16797ZM 37.9805 6.48047C 37.9805 6.75781 37.9473 7.02148 37.8809 7.27148C 37.8145 7.52148 37.7109 7.75977 37.5703 7.98633C 37.4297 8.21289 37.2344 8.41016 36.9844 8.57812C 36.7383 8.74219 36.4492 8.86328 36.1172 8.94141L 38.4668 12.5215L 37.3535 12.5215L 35.0977 9.05273L 33.4863 9.05273L 33.4863 12.5215L 32.4844 12.5215L 32.4844 4.19531L 35.543 4.19531C 35.6836 4.19531 35.8105 4.19922 35.9238 4.20703C 36.0371 4.21484 36.1816 4.23633 36.3574 4.27148C 36.5371 4.30273 36.6953 4.34766 36.832 4.40625C 36.9688 4.46094 37.1113 4.54688 37.2598 4.66406C 37.4121 4.77734 37.5371 4.91211 37.6348 5.06836C 37.7363 5.22461 37.8184 5.42383 37.8809 5.66602C 37.9473 5.9082 37.9805 6.17969 37.9805 6.48047ZM 33.4863 8.17383L 34.9219 8.17383C 35.1211 8.17383 35.2969 8.16797 35.4492 8.15625C 35.6016 8.14062 35.7793 8.10352 35.9824 8.04492C 36.1895 7.98242 36.3594 7.89844 36.4922 7.79297C 36.6289 7.68359 36.7441 7.52734 36.8379 7.32422C 36.9355 7.11719 36.9844 6.87305 36.9844 6.5918C 36.9844 6.39258 36.959 6.21289 36.9082 6.05273C 36.8574 5.89258 36.793 5.76172 36.7148 5.66016C 36.6367 5.55469 36.541 5.46484 36.4277 5.39062C 36.3145 5.3125 36.2051 5.25391 36.0996 5.21484C 35.9941 5.17578 35.877 5.14453 35.748 5.12109C 35.6191 5.09766 35.5117 5.08398 35.4258 5.08008C 35.3438 5.07227 35.2559 5.06836 35.1621 5.06836L 33.4863 5.06836L 33.4863 8.17383ZM 46.2129 4.19531L 47.3438 4.19531L 50.3027 12.5215L 49.2949 12.5215L 48.4512 10.1016L 45.0176 10.1016L 44.1738 12.5215L 43.2539 12.5215L 46.2129 4.19531ZM 46.7344 5.16797L 45.3164 9.22852L 48.1465 9.22852L 46.7344 5.16797ZM 52.3008 4.19531L 53.2969 4.19531L 53.2969 11.6484L 57.0352 11.6484L 57.0352 12.5215L 52.3008 12.5215L 52.3008 4.19531ZM 58.9453 4.19531L 59.9414 4.19531L 59.9414 11.6484L 63.6797 11.6484L 63.6797 12.5215L 58.9453 12.5215L 58.9453 4.19531Z"/>
</defs>
</svg>
