<svg width="23" height="23" viewBox="0 0 23 23" version="1.1" xmlns="http://www.w3.org/2000/svg" xmlns:xlink="http://www.w3.org/1999/xlink" xmlns:figma="http://www.figma.com/figma/ns">
<title>Pin icon</title>
<desc>Created using Figma</desc>
<g id="Canvas" transform="translate(226 384)" figma:type="canvas">
<g id="Pin icon" style="mix-blend-mode:normal;" figma:type="frame">
<g id="Pin head" style="mix-blend-mode:normal;" figma:type="rounded-rectangle">
<use xlink:href="#path0_fill" transform="matrix(0.707107 0.707107 -0.707107 0.707107 -218.085 -370.466)" fill="#BDBDBD" style="mix-blend-mode:normal;"/>
<mask id="mask0_outline_ins">
<use xlink:href="#path0_fill" fill="white" transform="matrix(0.707107 0.707107 -0.707107 0.707107 -218.085 -370.466)"/>
</mask>
<g mask="url(#mask0_outline_ins)">
<use xlink:href="#path1_stroke_2x" transform="matrix(0.707107 0.707107 -0.707107 0.707107 -218.085 -370.466)" style="mix-blend-mode:normal;"/>
</g>
</g>
<g id="Pin body" style="mix-blend-mode:normal;" figma:type="vector">
<use xlink:href="#path2_fill" transform="matrix(0.707107 0.707107 -0.707107 0.707107 -214.128 -382.51)" fill="#D6193F" style="mix-blend-mode:normal;"/>
<use xlink:href="#path3_stroke" transform="matrix(0.707107 0.707107 -0.707107 0.707107 -214.128 -382.51)" style="mix-blend-mode:normal;"/>
</g>
</g>
</g>
<defs>
<path id="path0_fill" d="M 0 1.04988C 0 0.470048 0.470048 0 1.04988 0C 1.62971 0 2.09976 0.470048 2.09976 1.04988L 2.09976 9.3542C 2.09976 9.93404 1.62971 10.4041 1.04988 10.4041C 0.470048 10.4041 0 9.93404 0 9.3542L 0 1.04988Z"/>
<path id="path1_stroke_2x" d="M 1.39976 1.04988L 1.39976 9.3542L 2.79976 9.3542L 2.79976 1.04988L 1.39976 1.04988ZM 0.7 9.3542L 0.7 1.04988L -0.7 1.04988L -0.7 9.3542L 0.7 9.3542ZM 1.04988 -0.7C 0.0834484 -0.7 -0.7 0.0834484 -0.7 1.04988L 0.7 1.04988C 0.7 0.856647 0.856647 0.7 1.04988 0.7L 1.04988 -0.7ZM 1.04988 0.7C 1.24311 0.7 1.39976 0.856647 1.39976 1.04988L 2.79976 1.04988C 2.79976 0.0834484 2.01631 -0.7 1.04988 -0.7L 1.04988 0.7ZM 1.39976 9.3542C 1.39976 9.54744 1.24311 9.70408 1.04988 9.70408L 1.04988 11.1041C 2.01631 11.1041 2.79976 10.3206 2.79976 9.3542L 1.39976 9.3542ZM 1.04988 9.70408C 0.856647 9.70408 0.7 9.54744 0.7 9.3542L -0.7 9.3542C -0.7 10.3206 0.0834484 11.1041 1.04988 11.1041L 1.04988 9.70408Z"/>
<path id="path2_fill" d="M 12.125 0L 1.21875 0L 1.21875 2.4375L 3.15625 2.4375L 3.15625 9.65625C 1.62166 10.8514 0.760365 11.6092 0 13.1562L 13.3125 13.1562C 12.4768 11.5725 11.7491 10.8262 10.1562 9.65625L 10.1562 2.4375L 12.125 2.4375L 12.125 0Z"/>
<path id="path3_stroke" d="M 1.21875 0L 1.21875 -0.5L 0.71875 -0.5L 0.71875 0L 1.21875 0ZM 12.125 0L 12.625 0L 12.625 -0.5L 12.125 -0.5L 12.125 0ZM 12.125 2.4375L 12.125 2.9375L 12.625 2.9375L 12.625 2.4375L 12.125 2.4375ZM 10.1562 2.4375L 10.1562 1.9375L 9.65625 1.9375L 9.65625 2.4375L 10.1562 2.4375ZM 10.1562 9.65625L 9.65625 9.65625L 9.65625 9.90937L 9.86025 10.0592L 10.1562 9.65625ZM 13.3125 13.1562L 13.3125 13.6562L 14.1417 13.6562L 13.7547 12.9229L 13.3125 13.1562ZM 0 13.1562L -0.448729 12.9357L -0.802878 13.6562L 0 13.6562L 0 13.1562ZM 3.15625 9.65625L 3.46348 10.0507L 3.65625 9.90059L 3.65625 9.65625L 3.15625 9.65625ZM 3.15625 2.4375L 3.65625 2.4375L 3.65625 1.9375L 3.15625 1.9375L 3.15625 2.4375ZM 1.21875 2.4375L 0.71875 2.4375L 0.71875 2.9375L 1.21875 2.9375L 1.21875 2.4375ZM 1.21875 0.5L 12.125 0.5L 12.125 -0.5L 1.21875 -0.5L 1.21875 0.5ZM 11.625 0L 11.625 2.4375L 12.625 2.4375L 12.625 0L 11.625 0ZM 12.125 1.9375L 10.1562 1.9375L 10.1562 2.9375L 12.125 2.9375L 12.125 1.9375ZM 9.65625 2.4375L 9.65625 9.65625L 10.6562 9.65625L 10.6562 2.4375L 9.65625 2.4375ZM 9.86025 10.0592C 11.421 11.2035 12.0726 11.8668 12.8703 13.3896L 13.7547 12.9229C 12.8811 11.2783 12.0772 10.4489 10.4522 9.25328L 9.86025 10.0592ZM 13.3125 12.6562L 0 12.6562L 0 13.6562L 13.3125 13.6562L 13.3125 12.6562ZM 0.448729 13.3768C 1.15749 11.913 1.94056 11.2365 3.46348 10.0507L 2.84902 9.26178C 1.30277 10.4663 0.363245 11.3054 -0.448729 12.9357L 0.448729 13.3768ZM 3.65625 9.65625L 3.65625 2.4375L 2.65625 2.4375L 2.65625 9.65625L 3.65625 9.65625ZM 3.15625 1.9375L 1.21875 1.9375L 1.21875 2.9375L 3.15625 2.9375L 3.15625 1.9375ZM 1.71875 2.4375L 1.71875 0L 0.71875 0L 0.71875 2.4375L 1.71875 2.4375Z"/>
</defs>
</svg>
