<svg width="76" height="55" viewBox="0 0 76 55" version="1.1" xmlns="http://www.w3.org/2000/svg" xmlns:xlink="http://www.w3.org/1999/xlink" xmlns:figma="http://www.figma.com/figma/ns">
<title>Sign out</title>
<desc>Created using Figma</desc>
<g id="Canvas" transform="translate(-991 673)" figma:type="canvas">
<g id="Sign out" style="mix-blend-mode:normal;" figma:type="frame">
<g id="SIGN OUT" style="mix-blend-mode:normal;" figma:type="text">
<use xlink:href="#path0_fill" transform="translate(990 -634.375)" style="mix-blend-mode:normal;"/>
</g>
<g id="Group" style="mix-blend-mode:normal;" figma:type="frame">
<g id="Vector 22" style="mix-blend-mode:normal;" figma:type="vector">
<use xlink:href="#path1_stroke" transform="translate(1012 -671.659)" style="mix-blend-mode:normal;"/>
</g>
<g id="Vector 23" style="mix-blend-mode:normal;" figma:type="vector">
<use xlink:href="#path2_stroke" transform="translate(1012.41 -671.252)" style="mix-blend-mode:normal;"/>
</g>
<g id="Vector 24" style="mix-blend-mode:normal;" figma:type="vector">
<use xlink:href="#path3_stroke" transform="translate(1039.3 -661.474)" style="mix-blend-mode:normal;"/>
</g>
<g id="Vector 25" style="mix-blend-mode:normal;" figma:type="vector">
<use xlink:href="#path4_stroke" transform="translate(1031.56 -657.4)" style="mix-blend-mode:normal;"/>
</g>
</g>
</g>
</g>
<defs>
<path id="path0_fill" d="M 6.01318 5.49707C 6.81396 5.49707 7.67578 5.63623 8.59863 5.91455L 8.1958 7.0498C 7.31689 6.7959 6.55518 6.66895 5.91064 6.66895C 5.18799 6.66895 4.5752 6.82275 4.07227 7.13037C 3.57422 7.43311 3.3252 7.82617 3.3252 8.30957C 3.3252 8.57813 3.40576 8.81738 3.56689 9.02734C 3.72803 9.2373 3.94043 9.4082 4.2041 9.54004C 4.46777 9.67188 4.76807 9.80371 5.10498 9.93555C 5.44189 10.0625 5.78369 10.1797 6.13037 10.2871C 6.48193 10.3945 6.82617 10.5312 7.16309 10.6973C 7.5 10.8633 7.80029 11.0464 8.06396 11.2466C 8.32764 11.4419 8.54004 11.6982 8.70117 12.0156C 8.8623 12.333 8.94287 12.6919 8.94287 13.0923C 8.94287 13.3706 8.89893 13.6489 8.81104 13.9272C 8.72314 14.2007 8.57666 14.4741 8.37158 14.7476C 8.1665 15.0161 7.9126 15.2529 7.60986 15.458C 7.30713 15.6631 6.92383 15.8291 6.45996 15.9561C 6.00098 16.083 5.48828 16.1465 4.92188 16.1465C 4.35547 16.1465 3.83301 16.0879 3.35449 15.9707C 2.88086 15.8535 2.34863 15.6777 1.75781 15.4434L 2.18262 14.2349C 3.40332 14.689 4.36768 14.916 5.07568 14.916C 5.81787 14.916 6.4209 14.7671 6.88477 14.4692C 7.35352 14.1714 7.58789 13.7734 7.58789 13.2754C 7.58789 12.9434 7.48291 12.6577 7.27295 12.4185C 7.06787 12.1743 6.79932 11.979 6.46729 11.8325C 6.14014 11.6812 5.77637 11.542 5.37598 11.415C 4.97559 11.2832 4.5752 11.144 4.1748 10.9976C 3.7793 10.8462 3.41553 10.6729 3.0835 10.4775C 2.75635 10.2822 2.48779 10.0186 2.27783 9.68652C 2.07275 9.35449 1.97021 8.96387 1.97021 8.51465C 1.97021 8.11426 2.06543 7.73096 2.25586 7.36475C 2.45117 6.99854 2.71973 6.67871 3.06152 6.40527C 3.40332 6.12695 3.83057 5.90723 4.34326 5.74609C 4.85596 5.58008 5.4126 5.49707 6.01318 5.49707ZM 12.3193 5.59229L 13.5645 5.59229L 13.5645 16L 12.3193 16L 12.3193 5.59229ZM 22.0532 5.51172C 23.2251 5.51172 24.3408 5.80713 25.4004 6.39795L 24.9097 7.32812C 24.5386 7.13281 24.1064 6.96436 23.6133 6.82275C 23.1201 6.68115 22.6221 6.61035 22.1191 6.61035C 21.6064 6.61035 21.1108 6.70557 20.6323 6.896C 20.1587 7.08643 19.7363 7.35498 19.3652 7.70166C 18.9941 8.04346 18.6963 8.47803 18.4717 9.00537C 18.252 9.52783 18.1421 10.1016 18.1421 10.7266C 18.1421 11.5518 18.3252 12.2939 18.6914 12.9531C 19.0576 13.6123 19.563 14.125 20.2075 14.4912C 20.8521 14.8574 21.5723 15.0405 22.3682 15.0405C 23.3105 15.0405 24.0771 14.7573 24.668 14.1909L 24.668 11.5322L 21.709 11.5322L 21.709 10.5068L 25.8765 10.5068L 25.8765 14.5938C 25.7446 14.7451 25.5908 14.8916 25.415 15.0332C 25.2441 15.1748 25.0024 15.3384 24.6899 15.5239C 24.3823 15.7095 24.0015 15.8608 23.5474 15.978C 23.0933 16.0903 22.6025 16.1465 22.0752 16.1465C 21.3818 16.1465 20.7422 16.0439 20.1562 15.8389C 19.5752 15.6289 19.0869 15.3506 18.6914 15.0039C 18.2959 14.6572 17.9614 14.2544 17.688 13.7954C 17.4146 13.3315 17.2144 12.8481 17.0874 12.3452C 16.9604 11.8423 16.897 11.3296 16.897 10.8071C 16.897 10.2603 16.9653 9.73047 17.1021 9.21777C 17.2437 8.7002 17.4585 8.2168 17.7466 7.76758C 18.0347 7.31836 18.3789 6.92773 18.7793 6.5957C 19.1846 6.25879 19.668 5.99512 20.2295 5.80469C 20.791 5.60938 21.3989 5.51172 22.0532 5.51172ZM 29.1064 5.59229L 30.6812 5.59229L 36.3501 14.3008L 36.3501 5.59229L 37.5952 5.59229L 37.5952 16L 36.0205 16L 30.3516 7.27686L 30.3516 16L 29.1064 16L 29.1064 5.59229ZM 49.7168 5.48242C 50.4053 5.48242 51.0474 5.60449 51.6431 5.84863C 52.2437 6.08789 52.7612 6.42725 53.1958 6.8667C 53.6353 7.30615 53.9795 7.85547 54.2285 8.51465C 54.4775 9.16895 54.6021 9.88916 54.6021 10.6753C 54.6021 11.7397 54.3896 12.687 53.9648 13.5171C 53.5449 14.3423 52.959 14.9819 52.207 15.436C 51.46 15.8853 50.6128 16.1099 49.6655 16.1099C 49.0405 16.1099 48.4424 16 47.8711 15.7803C 47.2998 15.5557 46.7847 15.231 46.3257 14.8062C 45.8667 14.3813 45.5005 13.8271 45.2271 13.1436C 44.9536 12.4551 44.8169 11.6812 44.8169 10.8218C 44.8169 10.0161 44.9414 9.27881 45.1904 8.60986C 45.4395 7.94092 45.7812 7.37939 46.2158 6.92529C 46.6504 6.46631 47.168 6.1123 47.7686 5.86328C 48.3691 5.60938 49.0186 5.48242 49.7168 5.48242ZM 49.6509 6.57373C 49.2065 6.57373 48.7793 6.65674 48.3691 6.82275C 47.959 6.98877 47.5806 7.23291 47.2339 7.55518C 46.8921 7.87256 46.6162 8.30225 46.4062 8.84424C 46.2012 9.38135 46.0986 9.98926 46.0986 10.668C 46.0986 11.3174 46.1938 11.918 46.3843 12.4697C 46.5747 13.0166 46.8335 13.4756 47.1606 13.8467C 47.4878 14.2178 47.8735 14.5059 48.3179 14.7109C 48.7671 14.916 49.248 15.0186 49.7607 15.0186C 50.1074 15.0186 50.4468 14.9673 50.7788 14.8647C 51.1157 14.7622 51.438 14.6011 51.7456 14.3813C 52.0532 14.1567 52.3218 13.8833 52.5513 13.561C 52.7856 13.2388 52.9712 12.8408 53.1079 12.3672C 53.2495 11.8936 53.3203 11.3735 53.3203 10.8071C 53.3203 10.231 53.2471 9.70361 53.1006 9.2251C 52.9541 8.74658 52.7588 8.34619 52.5146 8.02393C 52.2754 7.70166 51.9946 7.43066 51.6724 7.21094C 51.355 6.98633 51.0254 6.8252 50.6836 6.72754C 50.3467 6.625 50.0024 6.57373 49.6509 6.57373ZM 57.7148 5.59229L 58.96 5.59229L 58.96 12.3379C 58.96 12.7529 58.9941 13.1094 59.0625 13.4072C 59.1357 13.7051 59.2871 13.9834 59.5166 14.2422C 60.0049 14.7939 60.7251 15.0698 61.6772 15.0698C 62.3657 15.0698 62.9395 14.9209 63.3984 14.623C 63.8623 14.3203 64.1626 13.8955 64.2993 13.3486C 64.3628 13.0898 64.3945 12.7529 64.3945 12.3379L 64.3945 5.59229L 65.625 5.59229C 65.625 7.15967 65.625 8.44141 65.625 9.4375C 65.6299 10.4336 65.6323 11.0732 65.6323 11.3564C 65.6323 11.6348 65.6323 11.8594 65.6323 12.0303C 65.6372 12.1963 65.6396 12.3354 65.6396 12.4478C 65.6396 12.6724 65.6348 12.8701 65.625 13.041C 65.6152 13.207 65.5811 13.4268 65.5225 13.7002C 65.4687 13.9736 65.3931 14.2129 65.2954 14.418C 65.1978 14.6182 65.0488 14.833 64.8486 15.0625C 64.6533 15.292 64.4189 15.4824 64.1455 15.6338C 63.877 15.7803 63.5303 15.9023 63.1055 16C 62.6855 16.0977 62.2095 16.1465 61.6772 16.1465C 61.106 16.1465 60.5933 16.0879 60.1392 15.9707C 59.6851 15.8486 59.3286 15.7046 59.0698 15.5386C 58.811 15.3726 58.5864 15.1724 58.396 14.938C 58.2104 14.7036 58.0811 14.5034 58.0078 14.3374C 57.9395 14.1665 57.8833 13.9883 57.8394 13.8027C 57.7563 13.4805 57.7148 13.0239 57.7148 12.4331L 57.7148 5.59229ZM 67.8003 5.59229L 76.0034 5.59229L 76.0034 6.69092L 72.5244 6.69092L 72.5244 16L 71.2793 16L 71.2793 6.69092L 67.8003 6.69092L 67.8003 5.59229Z"/>
<path id="path1_stroke" d="M 22.4074 0L 23.1574 0C 23.1574 -0.414214 22.8216 -0.75 22.4074 -0.75L 22.4074 0ZM 0 0L 0 -0.75C -0.414214 -0.75 -0.75 -0.414214 -0.75 1.66533e-16L 0 0ZM 0 27.2963L -0.75 27.2963C -0.75 27.7105 -0.414214 28.0463 1.66533e-16 28.0463L 0 27.2963ZM 22.4074 27.2963L 22.4074 28.0463C 22.8216 28.0463 23.1574 27.7105 23.1574 27.2963L 22.4074 27.2963ZM 23.1574 9.37037L 23.1574 0L 21.6574 0L 21.6574 9.37037L 23.1574 9.37037ZM 22.4074 -0.75L 0 -0.75L 0 0.75L 22.4074 0.75L 22.4074 -0.75ZM -0.75 0L -0.75 27.2963L 0.75 27.2963L 0.75 0L -0.75 0ZM 0 28.0463L 22.4074 28.0463L 22.4074 26.5463L 0 26.5463L 0 28.0463ZM 23.1574 27.2963L 23.1574 19.963L 21.6574 19.963L 21.6574 27.2963L 23.1574 27.2963Z"/>
<path id="path2_stroke" d="M 10.5926 5.7037L 11.3426 5.7037C 11.3426 5.42779 11.1911 5.17416 10.9482 5.04335L 10.5926 5.7037ZM 10.5926 33L 10.2178 33.6496C 10.4499 33.7835 10.7357 33.7835 10.9677 33.6495C 11.1997 33.5155 11.3426 33.2679 11.3426 33L 10.5926 33ZM -0.355575 0.660353L 10.237 6.36406L 10.9482 5.04335L 0.355575 -0.660353L -0.355575 0.660353ZM 9.84259 5.7037L 9.84259 33L 11.3426 33L 11.3426 5.7037L 9.84259 5.7037ZM 10.9674 32.3504L 0.374792 26.2393L -0.374792 27.5385L 10.2178 33.6496L 10.9674 32.3504Z"/>
<path id="path3_stroke" d="M 5.7037 4.07407L 6.13963 4.68437C 6.33673 4.54359 6.4537 4.31629 6.4537 4.07407C 6.4537 3.83186 6.33673 3.60456 6.13963 3.46377L 5.7037 4.07407ZM -0.435929 0.6103L 5.26778 4.68437L 6.13963 3.46377L 0.435929 -0.6103L -0.435929 0.6103ZM 5.26778 3.46377L -0.435929 7.53785L 0.435929 8.75845L 6.13963 4.68437L 5.26778 3.46377Z"/>
<path id="path4_stroke" d="M 13.4444 -0.75L 0 -0.75L 0 0.75L 13.4444 0.75L 13.4444 -0.75Z"/>
</defs>
</svg>
