<svg width="62" height="44" viewBox="0 0 62 44" version="1.1" xmlns="http://www.w3.org/2000/svg" xmlns:xlink="http://www.w3.org/1999/xlink" xmlns:figma="http://www.figma.com/figma/ns">
  <title>task plus</title>
  <desc>Created using Figma</desc>
  <g id="Canvas" transform="translate(192 116)" figma:type="canvas">
  <g id="task plus" style="mix-blend-mode:normal;" figma:type="frame">
  <g id="Rectangle 2" style="mix-blend-mode:normal;" figma:type="vector">
  <mask id="mask0_outline_ins">
  <use xlink:href="#path0_fill" fill="white" transform="translate(-178.086 -115.375)"/>
  </mask>
  <g mask="url(#mask0_outline_ins)">
  <use xlink:href="#path1_stroke_2x" transform="translate(-178.086 -115.375)" style="mix-blend-mode:normal;"/>
  </g>
  </g>
  <g id="Line 6" style="mix-blend-mode:normal;" figma:type="line">
  <use xlink:href="#path2_stroke" transform="matrix(0.707107 0.707107 -0.707107 0.707107 -172.051 -102.444)" style="mix-blend-mode:normal;"/>
  </g>
  <g id="Line 7" style="mix-blend-mode:normal;" figma:type="line">
  <use xlink:href="#path3_stroke" transform="matrix(-0.707159 0.707055 0.707055 0.707159 -158.258 -107.616)" style="mix-blend-mode:normal;"/>
  </g>
  <g id="ADD TASK" style="mix-blend-mode:normal;" figma:type="text">
  <use xlink:href="#path4_fill" transform="translate(-195.5 -85.625)" style="mix-blend-mode:normal;"/>
  </g>
  </g>
  </g>
  <defs>
  <path id="path0_fill" d="M 0 4C 0 1.79086 1.79086 0 4 0L 21 0C 23.2091 0 25 1.79086 25 4L 25 21C 25 23.2091 23.2091 25 21 25L 4 25C 1.79086 25 0 23.2091 0 21L 0 4Z"/>
  <path id="path1_stroke_2x" d="M 4 1.5L 21 1.5L 21 -1.5L 4 -1.5L 4 1.5ZM 23.5 4L 23.5 21L 26.5 21L 26.5 4L 23.5 4ZM 21 23.5L 4 23.5L 4 26.5L 21 26.5L 21 23.5ZM 1.5 21L 1.5 4L -1.5 4L -1.5 21L 1.5 21ZM 4 -1.5C 0.962434 -1.5 -1.5 0.962434 -1.5 4L 1.5 4C 1.5 2.61929 2.61929 1.5 4 1.5L 4 -1.5ZM 21 1.5C 22.3807 1.5 23.5 2.61929 23.5 4L 26.5 4C 26.5 0.962434 24.0376 -1.5 21 -1.5L 21 1.5ZM 23.5 21C 23.5 22.3807 22.3807 23.5 21 23.5L 21 26.5C 24.0376 26.5 26.5 24.0376 26.5 21L 23.5 21ZM 4 23.5C 2.61929 23.5 1.5 22.3807 1.5 21L -1.5 21C -1.5 24.0376 0.962434 26.5 4 26.5L 4 23.5Z"/>
  <path id="path2_stroke" d="M 0.75 -1.5C 0.335786 -1.5 0 -1.16421 0 -0.75C 0 -0.335786 0.335786 0 0.75 0L 0.75 -1.5ZM 5.34526 0C 5.75947 0 6.09526 -0.335786 6.09526 -0.75C 6.09526 -1.16421 5.75947 -1.5 5.34526 -1.5L 5.34526 0ZM 0.75 -1.11022e-16L 5.34526 -1.11022e-16L 5.34526 -1.5L 0.75 -1.5L 0.75 -1.11022e-16Z"/>
  <path id="path3_stroke" d="M 0.75 -1.5C 0.335786 -1.5 0 -1.16421 0 -0.75C 0 -0.335786 0.335786 0 0.75 0L 0.75 -1.5ZM 12.6606 0C 13.0749 0 13.4106 -0.335786 13.4106 -0.75C 13.4106 -1.16421 13.0749 -1.5 12.6606 -1.5L 12.6606 0ZM 0.75 -1.11022e-16L 12.6606 -1.11022e-16L 12.6606 -1.5L 0.75 -1.5L 0.75 -1.11022e-16Z"/>
  <path id="path4_fill" d="M 7.00195 4.19531L 8.13281 4.19531L 11.0918 12.5215L 10.084 12.5215L 9.24023 10.1016L 5.80664 10.1016L 4.96289 12.5215L 4.04297 12.5215L 7.00195 4.19531ZM 7.52344 5.16797L 6.10547 9.22852L 8.93555 9.22852L 7.52344 5.16797ZM 14.0859 5.07422L 14.0859 11.6426L 15.2988 11.6426C 15.4746 11.6426 15.6191 11.6406 15.7324 11.6367C 15.8496 11.6328 16.0059 11.6211 16.2012 11.6016C 16.4004 11.582 16.5703 11.5527 16.7109 11.5137C 16.8555 11.4746 17.0176 11.418 17.1973 11.3438C 17.3809 11.2695 17.543 11.1797 17.6836 11.0742C 17.8242 10.9688 17.9648 10.834 18.1055 10.6699C 18.2461 10.5059 18.3691 10.3203 18.4746 10.1133C 18.7324 9.61719 18.8613 9.01367 18.8613 8.30273C 18.8613 7.81055 18.7891 7.36719 18.6445 6.97266C 18.5039 6.57422 18.3145 6.25195 18.0762 6.00586C 17.8418 5.75586 17.5898 5.55859 17.3203 5.41406C 17.0547 5.26953 16.7754 5.17187 16.4824 5.12109C 16.3105 5.08984 16.0508 5.07422 15.7031 5.07422L 14.0859 5.07422ZM 15.668 4.19531C 16.207 4.19531 16.6973 4.25 17.1387 4.35938C 17.5801 4.46484 17.9492 4.61523 18.2461 4.81055C 18.5469 5.00586 18.8047 5.22656 19.0195 5.47266C 19.2344 5.71875 19.4004 5.99414 19.5176 6.29883C 19.6387 6.59961 19.7266 6.89648 19.7812 7.18945C 19.8359 7.48242 19.8633 7.78711 19.8633 8.10352C 19.8633 8.4668 19.8359 8.81641 19.7812 9.15234C 19.7266 9.48828 19.6309 9.83008 19.4941 10.1777C 19.3613 10.5254 19.1895 10.8379 18.9785 11.1152C 18.7715 11.3887 18.502 11.6367 18.1699 11.8594C 17.8379 12.0781 17.4609 12.2402 17.0391 12.3457C 16.8203 12.4004 16.5762 12.4414 16.3066 12.4688C 16.0371 12.4961 15.8145 12.5117 15.6387 12.5156C 15.4629 12.5195 15.2148 12.5215 14.8945 12.5215L 13.0898 12.5215L 13.0898 4.19531L 15.668 4.19531ZM 23.4961 5.07422L 23.4961 11.6426L 24.709 11.6426C 24.8848 11.6426 25.0293 11.6406 25.1426 11.6367C 25.2598 11.6328 25.416 11.6211 25.6113 11.6016C 25.8105 11.582 25.9805 11.5527 26.1211 11.5137C 26.2656 11.4746 26.4277 11.418 26.6074 11.3438C 26.791 11.2695 26.9531 11.1797 27.0938 11.0742C 27.2344 10.9688 27.375 10.834 27.5156 10.6699C 27.6562 10.5059 27.7793 10.3203 27.8848 10.1133C 28.1426 9.61719 28.2715 9.01367 28.2715 8.30273C 28.2715 7.81055 28.1992 7.36719 28.0547 6.97266C 27.9141 6.57422 27.7246 6.25195 27.4863 6.00586C 27.252 5.75586 27 5.55859 26.7305 5.41406C 26.4648 5.26953 26.1855 5.17187 25.8926 5.12109C 25.7207 5.08984 25.4609 5.07422 25.1133 5.07422L 23.4961 5.07422ZM 25.0781 4.19531C 25.6172 4.19531 26.1074 4.25 26.5488 4.35938C 26.9902 4.46484 27.3594 4.61523 27.6562 4.81055C 27.957 5.00586 28.2148 5.22656 28.4297 5.47266C 28.6445 5.71875 28.8105 5.99414 28.9277 6.29883C 29.0488 6.59961 29.1367 6.89648 29.1914 7.18945C 29.2461 7.48242 29.2734 7.78711 29.2734 8.10352C 29.2734 8.4668 29.2461 8.81641 29.1914 9.15234C 29.1367 9.48828 29.041 9.83008 28.9043 10.1777C 28.7715 10.5254 28.5996 10.8379 28.3887 11.1152C 28.1816 11.3887 27.9121 11.6367 27.5801 11.8594C 27.248 12.0781 26.8711 12.2402 26.4492 12.3457C 26.2305 12.4004 25.9863 12.4414 25.7168 12.4688C 25.4473 12.4961 25.2246 12.5117 25.0488 12.5156C 24.873 12.5195 24.625 12.5215 24.3047 12.5215L 22.5 12.5215L 22.5 4.19531L 25.0781 4.19531ZM 33.9902 4.19531L 40.5527 4.19531L 40.5527 5.07422L 37.7695 5.07422L 37.7695 12.5215L 36.7734 12.5215L 36.7734 5.07422L 33.9902 5.07422L 33.9902 4.19531ZM 44.3027 4.19531L 45.4336 4.19531L 48.3926 12.5215L 47.3848 12.5215L 46.541 10.1016L 43.1074 10.1016L 42.2637 12.5215L 41.3438 12.5215L 44.3027 4.19531ZM 44.8242 5.16797L 43.4062 9.22852L 46.2363 9.22852L 44.8242 5.16797ZM 53.502 4.11914C 54.1426 4.11914 54.832 4.23047 55.5703 4.45312L 55.248 5.36133C 54.5449 5.1582 53.9355 5.05664 53.4199 5.05664C 52.8418 5.05664 52.3516 5.17969 51.9492 5.42578C 51.5508 5.66797 51.3516 5.98242 51.3516 6.36914C 51.3516 6.58398 51.416 6.77539 51.5449 6.94336C 51.6738 7.11133 51.8438 7.24805 52.0547 7.35352C 52.2656 7.45898 52.5059 7.56445 52.7754 7.66992C 53.0449 7.77148 53.3184 7.86523 53.5957 7.95117C 53.877 8.03711 54.1523 8.14648 54.4219 8.2793C 54.6914 8.41211 54.9316 8.55859 55.1426 8.71875C 55.3535 8.875 55.5234 9.08008 55.6523 9.33398C 55.7812 9.58789 55.8457 9.875 55.8457 10.1953C 55.8457 10.418 55.8105 10.6406 55.7402 10.8633C 55.6699 11.082 55.5527 11.3008 55.3887 11.5195C 55.2246 11.7344 55.0215 11.9238 54.7793 12.0879C 54.5371 12.252 54.2305 12.3848 53.8594 12.4863C 53.4922 12.5879 53.082 12.6387 52.6289 12.6387C 52.1758 12.6387 51.7578 12.5918 51.375 12.498C 50.9961 12.4043 50.5703 12.2637 50.0977 12.0762L 50.4375 11.1094C 51.4141 11.4727 52.1855 11.6543 52.752 11.6543C 53.3457 11.6543 53.8281 11.5352 54.1992 11.2969C 54.5742 11.0586 54.7617 10.7402 54.7617 10.3418C 54.7617 10.0762 54.6777 9.84766 54.5098 9.65625C 54.3457 9.46094 54.1309 9.30469 53.8652 9.1875C 53.6035 9.06641 53.3125 8.95508 52.9922 8.85352C 52.6719 8.74805 52.3516 8.63672 52.0312 8.51953C 51.7148 8.39844 51.4238 8.25977 51.1582 8.10352C 50.8965 7.94727 50.6816 7.73633 50.5137 7.4707C 50.3496 7.20508 50.2676 6.89258 50.2676 6.5332C 50.2676 6.21289 50.3438 5.90625 50.4961 5.61328C 50.6523 5.32031 50.8672 5.06445 51.1406 4.8457C 51.4141 4.62305 51.7559 4.44727 52.166 4.31836C 52.5762 4.18555 53.0215 4.11914 53.502 4.11914ZM 58.3711 4.19531L 59.3672 4.19531L 59.3672 12.5215L 58.3711 12.5215L 58.3711 4.19531ZM 63.0352 4.19531L 64.2832 4.19531L 60.7617 8.16797L 64.5059 12.5215L 63.2227 12.5215L 59.5078 8.25L 63.0352 4.19531Z"/>
  </defs>
</svg>
